<svg width="333" height="448" viewBox="0 0 333 448" fill="none" xmlns="http://www.w3.org/2000/svg">
<path d="M263.156 387.247C263.212 387.247 263.267 387.247 263.323 387.247C263.713 387.359 264.103 387.471 264.549 387.583C264.326 388.367 264.159 389.095 263.992 389.823L264.047 389.879C264.716 389.487 265.44 389.095 266.164 388.647C266.387 389.039 266.61 389.431 266.889 389.879C266.22 390.27 265.607 390.606 264.939 390.998C264.827 391.054 264.772 391.11 264.772 391.222C265.496 391.446 266.22 391.614 267 391.838C266.889 392.342 266.777 392.734 266.61 393.182C266.164 393.07 265.774 392.958 265.329 392.846C264.549 392.622 263.825 392.454 263.045 392.23C262.877 392.174 262.766 392.23 262.655 392.286C261.763 392.79 260.928 393.294 260.036 393.798C259.591 394.078 259.145 394.301 258.699 394.525C258.643 394.525 258.588 394.581 258.476 394.693C258.588 394.749 258.643 394.749 258.699 394.805C259.423 395.253 260.203 395.645 260.928 396.093C261.485 396.429 262.042 396.765 262.599 397.045C262.766 397.157 262.877 397.157 263.045 397.101C264.159 396.765 265.273 396.485 266.387 396.205C266.443 396.205 266.443 396.205 266.499 396.205C266.61 396.653 266.721 397.101 266.889 397.549C266.164 397.773 265.384 397.941 264.66 398.165C264.604 398.276 264.66 398.332 264.772 398.388C265.44 398.724 266.053 399.116 266.721 399.508C266.499 399.9 266.276 400.348 265.997 400.74C265.273 400.348 264.604 399.9 263.88 399.508L263.825 399.564C263.992 400.292 264.214 401.02 264.437 401.804C263.992 401.916 263.546 402.028 263.1 402.196C262.989 401.804 262.877 401.468 262.822 401.132C262.599 400.292 262.376 399.452 262.153 398.612C262.097 398.5 261.986 398.388 261.875 398.332C260.705 397.661 259.535 396.933 258.365 396.261C258.253 396.205 258.142 396.149 258.031 396.093C257.975 396.037 257.864 396.037 257.752 396.037C257.752 396.261 257.752 396.429 257.752 396.597C257.752 397.941 257.752 399.34 257.752 400.684C257.752 400.908 257.808 401.076 257.975 401.244C258.755 401.972 259.479 402.755 260.259 403.539C260.315 403.595 260.426 403.707 260.482 403.763C260.37 403.987 259.869 404.491 259.479 404.771C258.978 404.267 258.532 403.819 258.031 403.315C257.975 403.259 257.919 403.147 257.752 403.259C257.752 404.043 257.752 404.827 257.752 405.667C257.251 405.667 256.805 405.667 256.359 405.667C256.359 404.883 256.359 404.043 256.359 403.147C256.192 403.259 256.136 403.315 256.081 403.371C255.635 403.819 255.189 404.267 254.799 404.715C254.744 404.771 254.688 404.771 254.688 404.827C254.354 404.491 254.019 404.155 253.685 403.819C253.964 403.539 254.298 403.203 254.577 402.867C255.134 402.307 255.691 401.748 256.248 401.188C256.304 401.076 256.359 400.964 256.359 400.852C256.359 399.34 256.359 397.885 256.359 396.373C256.359 396.261 256.359 396.205 256.304 396.093C256.025 396.261 255.747 396.429 255.468 396.597C254.465 397.157 253.462 397.773 252.46 398.332C252.181 398.5 251.958 398.668 251.903 399.06C251.68 400.012 251.401 401.02 251.123 401.972C251.067 402.084 251.011 402.196 250.955 402.363C250.51 402.252 250.064 402.14 249.618 402.028C249.786 401.244 250.064 400.516 250.175 399.788L250.12 399.732C249.451 400.124 248.727 400.516 248.003 400.964C247.78 400.572 247.557 400.18 247.279 399.788C247.334 399.732 247.39 399.676 247.446 399.62C248.003 399.284 248.616 398.948 249.173 398.612C249.284 398.556 249.34 398.5 249.284 398.388C248.56 398.165 247.836 397.997 247.111 397.773C247.223 397.325 247.334 396.877 247.446 396.429C247.669 396.485 247.947 396.541 248.17 396.597C249.061 396.821 249.897 397.045 250.733 397.269C250.788 397.269 250.844 397.269 250.9 397.325C251.067 397.381 251.178 397.381 251.345 397.269C252.627 396.541 253.908 395.813 255.134 395.029C255.245 394.973 255.301 394.917 255.412 394.805C254.967 394.525 254.577 394.301 254.187 394.078C253.24 393.518 252.292 392.958 251.29 392.398C251.123 392.286 251.011 392.286 250.788 392.342C249.674 392.678 248.56 392.958 247.446 393.238C247.39 393.238 247.39 393.238 247.334 393.238C247.223 392.79 247.111 392.342 247 391.894C247.78 391.67 248.504 391.502 249.228 391.278C249.284 391.11 249.117 391.11 249.061 391.054C248.448 390.718 247.836 390.326 247.167 389.991C247.39 389.543 247.613 389.151 247.891 388.759C248.616 389.151 249.284 389.599 250.064 389.991C250.064 389.879 250.064 389.767 250.064 389.711C249.897 389.151 249.73 388.535 249.563 387.975C249.563 387.863 249.563 387.807 249.507 387.695C249.953 387.583 250.398 387.471 250.844 387.303C250.955 387.751 251.067 388.199 251.234 388.647C251.457 389.375 251.624 390.103 251.791 390.886C251.847 391.11 252.014 391.166 252.181 391.278C253.017 391.782 253.908 392.286 254.744 392.734C255.134 392.958 255.468 393.182 255.858 393.406C255.914 393.462 256.025 393.462 256.136 393.518C256.136 393.406 256.192 393.35 256.192 393.294C256.192 392.23 256.192 391.166 256.192 390.103C256.192 389.655 256.192 389.151 256.192 388.703C256.192 388.591 256.136 388.479 256.081 388.423C255.468 387.807 254.855 387.191 254.298 386.631C254.019 386.351 253.741 386.071 253.518 385.792C253.852 385.456 254.187 385.12 254.521 384.784C255.078 385.344 255.635 385.904 256.192 386.463C256.359 386.351 256.304 386.239 256.304 386.127C256.304 385.456 256.304 384.728 256.304 384C256.749 384 257.195 384 257.696 384C257.696 384.784 257.696 385.568 257.696 386.351C257.808 386.463 257.919 386.407 257.975 386.295C258.365 385.848 258.811 385.456 259.256 385.008C259.312 384.952 259.368 384.896 259.423 384.84C259.758 385.176 260.092 385.512 260.426 385.848C260.37 385.904 260.315 385.96 260.259 386.016C259.479 386.799 258.643 387.639 257.864 388.423C257.752 388.535 257.696 388.591 257.696 388.759C257.696 390.27 257.696 391.838 257.696 393.35C257.696 393.406 257.696 393.462 257.752 393.518C257.864 393.462 257.975 393.462 258.031 393.406C259.312 392.678 260.538 391.894 261.819 391.166C261.986 391.054 262.097 390.942 262.153 390.718C262.432 389.655 262.71 388.591 262.989 387.527C263.156 387.359 263.156 387.303 263.156 387.247Z" fill="white"/>
<path d="M242.156 90.2472C242.212 90.2472 242.267 90.2472 242.323 90.2472C242.713 90.3592 243.103 90.4712 243.549 90.5831C243.326 91.3669 243.159 92.0948 242.992 92.8226L243.047 92.8786C243.716 92.4866 244.44 92.0948 245.164 91.6469C245.387 92.0388 245.61 92.4307 245.889 92.8786C245.22 93.2705 244.607 93.6064 243.939 93.9983C243.827 94.0543 243.772 94.1103 243.772 94.2222C244.496 94.4462 245.22 94.6141 246 94.8381C245.889 95.3419 245.777 95.7339 245.61 96.1818C245.164 96.0698 244.774 95.9578 244.329 95.8458C243.549 95.6219 242.825 95.4539 242.045 95.23C241.877 95.174 241.766 95.23 241.655 95.286C240.763 95.7898 239.928 96.2937 239.036 96.7976C238.591 97.0775 238.145 97.3015 237.699 97.5254C237.643 97.5254 237.588 97.5814 237.476 97.6934C237.588 97.7494 237.643 97.7494 237.699 97.8053C238.423 98.2532 239.203 98.6451 239.928 99.093C240.485 99.4289 241.042 99.7649 241.599 100.045C241.766 100.157 241.877 100.157 242.045 100.101C243.159 99.7649 244.273 99.4849 245.387 99.205C245.443 99.205 245.443 99.205 245.499 99.205C245.61 99.6529 245.721 100.101 245.889 100.549C245.164 100.773 244.384 100.941 243.66 101.165C243.604 101.276 243.66 101.332 243.772 101.388C244.44 101.724 245.053 102.116 245.721 102.508C245.499 102.9 245.276 103.348 244.997 103.74C244.273 103.348 243.604 102.9 242.88 102.508L242.825 102.564C242.992 103.292 243.214 104.02 243.437 104.804C242.992 104.916 242.546 105.028 242.1 105.196C241.989 104.804 241.877 104.468 241.822 104.132C241.599 103.292 241.376 102.452 241.153 101.612C241.097 101.5 240.986 101.388 240.875 101.332C239.705 100.661 238.535 99.9328 237.365 99.261C237.253 99.205 237.142 99.149 237.031 99.093C236.975 99.037 236.864 99.037 236.752 99.037C236.752 99.261 236.752 99.4289 236.752 99.5969C236.752 100.941 236.752 102.34 236.752 103.684C236.752 103.908 236.808 104.076 236.975 104.244C237.755 104.972 238.479 105.755 239.259 106.539C239.315 106.595 239.426 106.707 239.482 106.763C239.37 106.987 238.869 107.491 238.479 107.771C237.978 107.267 237.532 106.819 237.031 106.315C236.975 106.259 236.919 106.147 236.752 106.259C236.752 107.043 236.752 107.827 236.752 108.667C236.251 108.667 235.805 108.667 235.359 108.667C235.359 107.883 235.359 107.043 235.359 106.147C235.192 106.259 235.136 106.315 235.081 106.371C234.635 106.819 234.189 107.267 233.799 107.715C233.744 107.771 233.688 107.771 233.688 107.827C233.354 107.491 233.019 107.155 232.685 106.819C232.964 106.539 233.298 106.203 233.577 105.867C234.134 105.307 234.691 104.748 235.248 104.188C235.304 104.076 235.359 103.964 235.359 103.852C235.359 102.34 235.359 100.885 235.359 99.373C235.359 99.261 235.359 99.205 235.304 99.093C235.025 99.261 234.747 99.4289 234.468 99.5969C233.465 100.157 232.462 100.773 231.46 101.332C231.181 101.5 230.958 101.668 230.903 102.06C230.68 103.012 230.401 104.02 230.123 104.972C230.067 105.084 230.011 105.196 229.955 105.363C229.51 105.252 229.064 105.14 228.618 105.028C228.786 104.244 229.064 103.516 229.175 102.788L229.12 102.732C228.451 103.124 227.727 103.516 227.003 103.964C226.78 103.572 226.557 103.18 226.279 102.788C226.334 102.732 226.39 102.676 226.446 102.62C227.003 102.284 227.616 101.948 228.173 101.612C228.284 101.556 228.34 101.5 228.284 101.388C227.56 101.165 226.836 100.997 226.111 100.773C226.223 100.325 226.334 99.8768 226.446 99.4289C226.669 99.4849 226.947 99.5409 227.17 99.5969C228.061 99.8208 228.897 100.045 229.733 100.269C229.788 100.269 229.844 100.269 229.9 100.325C230.067 100.381 230.178 100.381 230.345 100.269C231.627 99.5409 232.908 98.8131 234.134 98.0293C234.245 97.9733 234.301 97.9173 234.412 97.8053C233.967 97.5254 233.577 97.3015 233.187 97.0775C232.24 96.5177 231.292 95.9578 230.29 95.3979C230.123 95.286 230.011 95.286 229.788 95.342C228.674 95.6779 227.56 95.9578 226.446 96.2377C226.39 96.2377 226.39 96.2377 226.334 96.2377C226.223 95.7898 226.111 95.3419 226 94.8941C226.78 94.6701 227.504 94.5022 228.228 94.2782C228.284 94.1102 228.117 94.1103 228.061 94.0543C227.448 93.7183 226.836 93.3264 226.167 92.9905C226.39 92.5426 226.613 92.1507 226.891 91.7588C227.616 92.1507 228.284 92.5986 229.064 92.9905C229.064 92.8786 229.064 92.7666 229.064 92.7106C228.897 92.1507 228.73 91.5349 228.563 90.975C228.563 90.8631 228.563 90.8071 228.507 90.6951C228.953 90.5831 229.398 90.4712 229.844 90.3032C229.955 90.7511 230.067 91.199 230.234 91.6469C230.457 92.3747 230.624 93.1025 230.791 93.8863C230.847 94.1103 231.014 94.1662 231.181 94.2782C232.017 94.7821 232.908 95.286 233.744 95.7339C234.134 95.9578 234.468 96.1817 234.858 96.4057C234.914 96.4617 235.025 96.4617 235.136 96.5177C235.136 96.4057 235.192 96.3497 235.192 96.2937C235.192 95.23 235.192 94.1662 235.192 93.1025C235.192 92.6546 235.192 92.1507 235.192 91.7029C235.192 91.5909 235.136 91.4789 235.081 91.4229C234.468 90.8071 233.855 90.1912 233.298 89.6314C233.019 89.3514 232.741 89.0715 232.518 88.7916C232.852 88.4556 233.187 88.1197 233.521 87.7838C234.078 88.3437 234.635 88.9035 235.192 89.4634C235.359 89.3514 235.304 89.2395 235.304 89.1275C235.304 88.4557 235.304 87.7278 235.304 87C235.749 87 236.195 87 236.696 87C236.696 87.7838 236.696 88.5676 236.696 89.3514C236.808 89.4634 236.919 89.4074 236.975 89.2954C237.365 88.8475 237.811 88.4557 238.256 88.0078C238.312 87.9518 238.368 87.8958 238.423 87.8398C238.758 88.1757 239.092 88.5116 239.426 88.8476C239.37 88.9035 239.315 88.9595 239.259 89.0155C238.479 89.7993 237.643 90.6391 236.864 91.4229C236.752 91.5349 236.696 91.5909 236.696 91.7588C236.696 93.2705 236.696 94.8381 236.696 96.3497C236.696 96.4057 236.696 96.4617 236.752 96.5177C236.864 96.4617 236.975 96.4617 237.031 96.4057C238.312 95.6779 239.538 94.8941 240.819 94.1662C240.986 94.0543 241.097 93.9423 241.153 93.7183C241.432 92.6546 241.71 91.5909 241.989 90.5271C242.156 90.3592 242.156 90.3032 242.156 90.2472Z" fill="white"/>
<path d="M329.156 3.24721C329.212 3.24721 329.267 3.24721 329.323 3.24721C329.713 3.35918 330.103 3.47116 330.549 3.58313C330.326 4.36694 330.159 5.09476 329.992 5.82258L330.047 5.87855C330.716 5.48665 331.44 5.09475 332.164 4.64686C332.387 5.03877 332.61 5.43066 332.889 5.87855C332.22 6.27045 331.607 6.60637 330.939 6.99828C330.827 7.05426 330.772 7.11026 330.772 7.22223C331.496 7.44618 332.22 7.61412 333 7.83807C332.889 8.34194 332.777 8.73386 332.61 9.18175C332.164 9.06978 331.774 8.9578 331.329 8.84583C330.549 8.62189 329.825 8.45392 329.045 8.22998C328.877 8.17399 328.766 8.22998 328.655 8.28597C327.763 8.78984 326.928 9.29371 326.036 9.79759C325.591 10.0775 325.145 10.3015 324.699 10.5254C324.643 10.5254 324.588 10.5814 324.476 10.6934C324.588 10.7494 324.643 10.7494 324.699 10.8053C325.423 11.2532 326.203 11.6451 326.928 12.093C327.485 12.4289 328.042 12.7649 328.599 13.0448C328.766 13.1568 328.877 13.1568 329.045 13.1008C330.159 12.7649 331.273 12.4849 332.387 12.205C332.443 12.205 332.443 12.205 332.499 12.205C332.61 12.6529 332.721 13.1008 332.889 13.5487C332.164 13.7726 331.384 13.9406 330.66 14.1645C330.604 14.2765 330.66 14.3325 330.772 14.3885C331.44 14.7244 332.053 15.1163 332.721 15.5082C332.499 15.9001 332.276 16.348 331.997 16.7399C331.273 16.348 330.604 15.9001 329.88 15.5082L329.825 15.5642C329.992 16.292 330.214 17.0198 330.437 17.8036C329.992 17.9156 329.546 18.0276 329.1 18.1955C328.989 17.8036 328.877 17.4677 328.822 17.1318C328.599 16.292 328.376 15.4522 328.153 14.6124C328.097 14.5004 327.986 14.3885 327.875 14.3325C326.705 13.6606 325.535 12.9328 324.365 12.261C324.253 12.205 324.142 12.149 324.031 12.093C323.975 12.037 323.864 12.037 323.752 12.037C323.752 12.261 323.752 12.4289 323.752 12.5969C323.752 13.9406 323.752 15.3402 323.752 16.6839C323.752 16.9078 323.808 17.0758 323.975 17.2438C324.755 17.9716 325.479 18.7554 326.259 19.5392C326.315 19.5952 326.426 19.7072 326.482 19.7631C326.37 19.9871 325.869 20.491 325.479 20.7709C324.978 20.267 324.532 19.8191 324.031 19.3152C323.975 19.2593 323.919 19.1473 323.752 19.2593C323.752 20.0431 323.752 20.8269 323.752 21.6667C323.251 21.6667 322.805 21.6667 322.359 21.6667C322.359 20.8829 322.359 20.0431 322.359 19.1473C322.192 19.2593 322.136 19.3152 322.081 19.3712C321.635 19.8191 321.189 20.267 320.799 20.7149C320.744 20.7709 320.688 20.7709 320.688 20.8269C320.354 20.491 320.019 20.155 319.685 19.8191C319.964 19.5392 320.298 19.2033 320.577 18.8674C321.134 18.3075 321.691 17.7476 322.248 17.1878C322.304 17.0758 322.359 16.9638 322.359 16.8519C322.359 15.3402 322.359 13.8846 322.359 12.373C322.359 12.261 322.359 12.205 322.304 12.093C322.025 12.261 321.747 12.4289 321.468 12.5969C320.465 13.1568 319.462 13.7726 318.46 14.3325C318.181 14.5004 317.958 14.6684 317.903 15.0603C317.68 16.0121 317.401 17.0198 317.123 17.9716C317.067 18.0835 317.011 18.1955 316.955 18.3635C316.51 18.2515 316.064 18.1395 315.618 18.0276C315.786 17.2438 316.064 16.5159 316.175 15.7881L316.12 15.7321C315.451 16.124 314.727 16.5159 314.003 16.9638C313.78 16.5719 313.557 16.18 313.279 15.7881C313.334 15.7321 313.39 15.6762 313.446 15.6202C314.003 15.2842 314.616 14.9483 315.173 14.6124C315.284 14.5564 315.34 14.5004 315.284 14.3885C314.56 14.1645 313.836 13.9966 313.111 13.7726C313.223 13.3247 313.334 12.8768 313.446 12.4289C313.669 12.4849 313.947 12.5409 314.17 12.5969C315.061 12.8208 315.897 13.0448 316.733 13.2687C316.788 13.2687 316.844 13.2687 316.9 13.3247C317.067 13.3807 317.178 13.3807 317.345 13.2687C318.627 12.5409 319.908 11.8131 321.134 11.0293C321.245 10.9733 321.301 10.9173 321.412 10.8053C320.967 10.5254 320.577 10.3015 320.187 10.0775C319.24 9.51765 318.292 8.95779 317.29 8.39793C317.123 8.28596 317.011 8.28597 316.788 8.34196C315.674 8.67787 314.56 8.95779 313.446 9.23772C313.39 9.23772 313.39 9.23772 313.334 9.23772C313.223 8.78983 313.111 8.34195 313 7.89406C313.78 7.67011 314.504 7.50215 315.228 7.27821C315.284 7.11025 315.117 7.11025 315.061 7.05427C314.448 6.71835 313.836 6.32645 313.167 5.99053C313.39 5.54264 313.613 5.15073 313.891 4.75883C314.616 5.15073 315.284 5.59863 316.064 5.99053C316.064 5.87856 316.064 5.76659 316.064 5.7106C315.897 5.15074 315.73 4.53489 315.563 3.97502C315.563 3.86305 315.563 3.80707 315.507 3.69509C315.953 3.58312 316.398 3.47116 316.844 3.3032C316.955 3.75109 317.067 4.19898 317.234 4.64686C317.457 5.37469 317.624 6.10251 317.791 6.88631C317.847 7.11026 318.014 7.16623 318.181 7.27821C319.017 7.78208 319.908 8.28596 320.744 8.73385C321.134 8.9578 321.468 9.18175 321.858 9.40569C321.914 9.46168 322.025 9.46167 322.136 9.51765C322.136 9.40568 322.192 9.3497 322.192 9.29371C322.192 8.22997 322.192 7.16625 322.192 6.10251C322.192 5.65462 322.192 5.15074 322.192 4.70285C322.192 4.59088 322.136 4.47891 322.081 4.42292C321.468 3.80708 320.855 3.19122 320.298 2.63136C320.019 2.35143 319.741 2.0715 319.518 1.79157C319.852 1.45565 320.187 1.11974 320.521 0.783821C321.078 1.34368 321.635 1.90354 322.192 2.46341C322.359 2.35143 322.304 2.23946 322.304 2.12749C322.304 1.45565 322.304 0.727821 322.304 0C322.749 0 323.195 0 323.696 0C323.696 0.783807 323.696 1.56762 323.696 2.35143C323.808 2.4634 323.919 2.40741 323.975 2.29544C324.365 1.84755 324.811 1.45565 325.256 1.00776C325.312 0.951776 325.368 0.895779 325.423 0.839793C325.758 1.17571 326.092 1.51164 326.426 1.84755C326.37 1.90354 326.315 1.95952 326.259 2.01551C325.479 2.79931 324.643 3.63912 323.864 4.42292C323.752 4.5349 323.696 4.59087 323.696 4.75883C323.696 6.27045 323.696 7.83808 323.696 9.3497C323.696 9.40569 323.696 9.46167 323.752 9.51765C323.864 9.46167 323.975 9.46168 324.031 9.40569C325.312 8.67787 326.538 7.89406 327.819 7.16624C327.986 7.05427 328.097 6.94229 328.153 6.71834C328.432 5.65461 328.71 4.59088 328.989 3.52714C329.156 3.35918 329.156 3.3032 329.156 3.24721Z" fill="white"/>
<path d="M16.156 250.247C16.2117 250.247 16.2674 250.247 16.3231 250.247C16.7131 250.359 17.1031 250.471 17.5487 250.583C17.3259 251.367 17.1588 252.095 16.9916 252.823L17.0474 252.879C17.7159 252.487 18.4401 252.095 19.1643 251.647C19.3872 252.039 19.61 252.431 19.8886 252.879C19.2201 253.27 18.6072 253.606 17.9387 253.998C17.8273 254.054 17.7716 254.11 17.7716 254.222C18.4958 254.446 19.2201 254.614 20 254.838C19.8886 255.342 19.7772 255.734 19.61 256.182C19.1643 256.07 18.7744 255.958 18.3287 255.846C17.5487 255.622 16.8245 255.454 16.0446 255.23C15.8774 255.174 15.766 255.23 15.6546 255.286C14.7632 255.79 13.9276 256.294 13.0362 256.798C12.5905 257.078 12.1448 257.301 11.6992 257.525C11.6435 257.525 11.5877 257.581 11.4763 257.693C11.5877 257.749 11.6435 257.749 11.6992 257.805C12.4234 258.253 13.2033 258.645 13.9276 259.093C14.4847 259.429 15.0418 259.765 15.5989 260.045C15.766 260.157 15.8774 260.157 16.0446 260.101C17.1588 259.765 18.273 259.485 19.3872 259.205C19.4429 259.205 19.4429 259.205 19.4986 259.205C19.61 259.653 19.7215 260.101 19.8886 260.549C19.1643 260.773 18.3844 260.941 17.6602 261.165C17.6045 261.276 17.6602 261.332 17.7716 261.388C18.4401 261.724 19.0529 262.116 19.7214 262.508C19.4986 262.9 19.2758 263.348 18.9972 263.74C18.273 263.348 17.6045 262.9 16.8802 262.508L16.8245 262.564C16.9916 263.292 17.2145 264.02 17.4373 264.804C16.9916 264.916 16.546 265.028 16.1003 265.196C15.9889 264.804 15.8774 264.468 15.8217 264.132C15.5989 263.292 15.376 262.452 15.1532 261.612C15.0975 261.5 14.9861 261.388 14.8747 261.332C13.7047 260.661 12.5348 259.933 11.3649 259.261C11.2535 259.205 11.1421 259.149 11.0306 259.093C10.9749 259.037 10.8635 259.037 10.7521 259.037C10.7521 259.261 10.7521 259.429 10.7521 259.597C10.7521 260.941 10.7521 262.34 10.7521 263.684C10.7521 263.908 10.8078 264.076 10.9749 264.244C11.7549 264.972 12.4791 265.755 13.2591 266.539C13.3148 266.595 13.4262 266.707 13.4819 266.763C13.3705 266.987 12.8691 267.491 12.4791 267.771C11.9777 267.267 11.532 266.819 11.0306 266.315C10.9749 266.259 10.9192 266.147 10.7521 266.259C10.7521 267.043 10.7521 267.827 10.7521 268.667C10.2507 268.667 9.80502 268.667 9.35933 268.667C9.35933 267.883 9.35933 267.043 9.35933 266.147C9.1922 266.259 9.13649 266.315 9.08078 266.371C8.6351 266.819 8.18942 267.267 7.79944 267.715C7.74373 267.771 7.68803 267.771 7.68803 267.827C7.35376 267.491 7.0195 267.155 6.68524 266.819C6.96379 266.539 7.29805 266.203 7.5766 265.867C8.1337 265.307 8.6908 264.748 9.24791 264.188C9.30362 264.076 9.35933 263.964 9.35933 263.852C9.35933 262.34 9.35933 260.885 9.35933 259.373C9.35933 259.261 9.35933 259.205 9.30362 259.093C9.02507 259.261 8.74652 259.429 8.46797 259.597C7.46518 260.157 6.4624 260.773 5.45961 261.332C5.18106 261.5 4.95822 261.668 4.90251 262.06C4.67967 263.012 4.40111 264.02 4.12256 264.972C4.06685 265.084 4.01114 265.196 3.95543 265.363C3.50974 265.252 3.06407 265.14 2.61838 265.028C2.78551 264.244 3.06407 263.516 3.17549 262.788L3.11977 262.732C2.45125 263.124 1.72702 263.516 1.00279 263.964C0.779946 263.572 0.557103 263.18 0.278552 262.788C0.334262 262.732 0.389974 262.676 0.445684 262.62C1.00279 262.284 1.6156 261.948 2.1727 261.612C2.28412 261.556 2.33983 261.5 2.28412 261.388C1.55988 261.165 0.835653 260.997 0.111419 260.773C0.22284 260.325 0.334264 259.877 0.445684 259.429C0.668526 259.485 0.94707 259.541 1.16991 259.597C2.06128 259.821 2.89693 260.045 3.73259 260.269C3.7883 260.269 3.84401 260.269 3.89972 260.325C4.06685 260.381 4.17828 260.381 4.34541 260.269C5.62674 259.541 6.90807 258.813 8.1337 258.029C8.24512 257.973 8.30083 257.917 8.41225 257.805C7.96657 257.525 7.5766 257.301 7.18663 257.078C6.23955 256.518 5.29248 255.958 4.28969 255.398C4.12256 255.286 4.01114 255.286 3.7883 255.342C2.6741 255.678 1.55989 255.958 0.445684 256.238C0.389974 256.238 0.389967 256.238 0.334257 256.238C0.222836 255.79 0.111421 255.342 0 254.894C0.779944 254.67 1.50418 254.502 2.22841 254.278C2.28412 254.11 2.11699 254.11 2.06128 254.054C1.44847 253.718 0.835656 253.326 0.167133 252.991C0.389974 252.543 0.612808 252.151 0.89136 251.759C1.61559 252.151 2.28412 252.599 3.06407 252.991C3.06407 252.879 3.06407 252.767 3.06407 252.711C2.89694 252.151 2.7298 251.535 2.56267 250.975C2.56267 250.863 2.56267 250.807 2.50696 250.695C2.95265 250.583 3.39833 250.471 3.84401 250.303C3.95543 250.751 4.06685 251.199 4.23398 251.647C4.45682 252.375 4.62395 253.103 4.79108 253.886C4.84679 254.11 5.01393 254.166 5.18106 254.278C6.01672 254.782 6.90808 255.286 7.74373 255.734C8.1337 255.958 8.46796 256.182 8.85794 256.406C8.91365 256.462 9.02507 256.462 9.13649 256.518C9.13649 256.406 9.1922 256.35 9.1922 256.294C9.1922 255.23 9.1922 254.166 9.1922 253.103C9.1922 252.655 9.1922 252.151 9.1922 251.703C9.1922 251.591 9.13649 251.479 9.08078 251.423C8.46797 250.807 7.85515 250.191 7.29805 249.631C7.01949 249.351 6.74095 249.071 6.51811 248.792C6.85237 248.456 7.18663 248.12 7.52089 247.784C8.078 248.344 8.6351 248.904 9.1922 249.463C9.35933 249.351 9.30362 249.239 9.30362 249.127C9.30362 248.456 9.30362 247.728 9.30362 247C9.7493 247 10.195 247 10.6964 247C10.6964 247.784 10.6964 248.568 10.6964 249.351C10.8078 249.463 10.9192 249.407 10.9749 249.295C11.3649 248.848 11.8106 248.456 12.2563 248.008C12.312 247.952 12.3677 247.896 12.4234 247.84C12.7577 248.176 13.0919 248.512 13.4262 248.848C13.3705 248.904 13.3148 248.96 13.2591 249.016C12.4791 249.799 11.6435 250.639 10.8635 251.423C10.7521 251.535 10.6964 251.591 10.6964 251.759C10.6964 253.27 10.6964 254.838 10.6964 256.35C10.6964 256.406 10.6964 256.462 10.7521 256.518C10.8635 256.462 10.9749 256.462 11.0306 256.406C12.312 255.678 13.5376 254.894 14.8189 254.166C14.9861 254.054 15.0975 253.942 15.1532 253.718C15.4318 252.655 15.7103 251.591 15.9889 250.527C16.156 250.359 16.156 250.303 16.156 250.247Z" fill="white"/>
<path d="M98.4684 253C95.1772 253 95.1772 258.148 98.4684 258.148C101.844 258.148 101.844 253 98.4684 253Z" fill="#F9F0B9"/>
<path d="M304.468 442C301.177 442 301.177 447.148 304.468 447.148C307.844 447.148 307.844 442 304.468 442Z" fill="#E781FC"/>
<path d="M195.468 400C192.177 400 192.177 405.148 195.468 405.148C198.844 405.148 198.844 400 195.468 400Z" fill="#F9F0B9"/>
<path d="M288.468 144C285.177 144 285.177 149.148 288.468 149.148C291.844 149.148 291.844 144 288.468 144Z" fill="#D7E8E6"/>
<path d="M248.468 30C245.177 30 245.177 35.1477 248.468 35.1477C251.844 35.1477 251.844 30 248.468 30Z" fill="#D7E8E6"/>
</svg>
