<svg width="20" height="20" viewBox="0 0 20 20" fill="none" xmlns="http://www.w3.org/2000/svg">
<path d="M9.99 0C4.47 0 0 4.369 0 9.75223C0 15.1355 4.47 19.5045 9.99 19.5045C15.52 19.5045 20 15.1355 20 9.75223C20 4.369 15.52 0 9.99 0ZM14 13.6531C13.9075 13.7435 13.7976 13.8153 13.6766 13.8642C13.5557 13.9131 13.426 13.9383 13.295 13.9383C13.164 13.9383 13.0343 13.9131 12.9134 13.8642C12.7924 13.8153 12.6825 13.7435 12.59 13.6531L9.3 10.4446C9.20551 10.3543 9.13034 10.2466 9.07885 10.1278C9.02735 10.0089 9.00055 9.88126 9 9.75223V5.85134C9 5.31497 9.45 4.87612 10 4.87612C10.55 4.87612 11 5.31497 11 5.85134V9.35239L14 12.2781C14.39 12.6584 14.39 13.2728 14 13.6531Z" fill="#2558BF"/>
</svg>
