<svg width="155" height="158" viewBox="0 0 155 158" fill="none" xmlns="http://www.w3.org/2000/svg">
<mask id="mask0_66_261" style="mask-type:alpha" maskUnits="userSpaceOnUse" x="-53" y="0" width="208" height="158">
<path d="M-53 0L-0.299988 157.5H154.4L109.9 19.9L-53 0Z" fill="#4172E5"/>
</mask>
<g mask="url(#mask0_66_261)">
<path d="M7.20001 -21.3999H2.5V170.6H7.20001V-21.3999Z" fill="#D7E8E6"/>
<path d="M18.8001 -21.3999H14.1001V170.6H18.8001V-21.3999Z" fill="#D7E8E6"/>
<path d="M30.5 -21.3999H25.8V170.6H30.5V-21.3999Z" fill="#D7E8E6"/>
<path d="M42.1002 -21.3999H37.4001V170.6H42.1002V-21.3999Z" fill="#D7E8E6"/>
<path d="M53.7 -21.3999H49V170.6H53.7V-21.3999Z" fill="#D7E8E6"/>
<path d="M65.4001 -21.3999H60.7001V170.6H65.4001V-21.3999Z" fill="#D7E8E6"/>
<path d="M77 -21.3999H72.3V170.6H77V-21.3999Z" fill="#D7E8E6"/>
<path d="M88.6002 -21.3999H83.9001V170.6H88.6002V-21.3999Z" fill="#D7E8E6"/>
<path d="M100.3 -21.3999H95.6001V170.6H100.3V-21.3999Z" fill="#D7E8E6"/>
<path d="M111.9 -21.3999H107.2V170.6H111.9V-21.3999Z" fill="#D7E8E6"/>
<path d="M123.5 -21.3999H118.8V170.6H123.5V-21.3999Z" fill="#D7E8E6"/>
<path d="M135.2 -21.3999H130.5V170.6H135.2V-21.3999Z" fill="#D7E8E6"/>
<path d="M146.8 -21.3999H142.1V170.6H146.8V-21.3999Z" fill="#D7E8E6"/>
<path d="M158.5 -21.3999H153.8V170.6H158.5V-21.3999Z" fill="#D7E8E6"/>
</g>
</svg>
