<svg width="208" height="158" viewBox="0 0 208 158" fill="none" xmlns="http://www.w3.org/2000/svg">
<mask id="mask0_201_2308" style="mask-type:alpha" maskUnits="userSpaceOnUse" x="0" y="0" width="208" height="158">
<path d="M0 0L52.7 157.5H207.4L162.9 19.9L0 0Z" fill="#4172E5"/>
</mask>
<g mask="url(#mask0_201_2308)">
<path d="M13.6001 -21.3999H8.90009V170.6H13.6001V-21.3999Z" fill="#D7E8E6"/>
<path d="M2.30011 -21.3999H-2.3999V170.6H2.30011V-21.3999Z" fill="#D7E8E6"/>
<path d="M25.3001 -21.3999H20.6001V170.6H25.3001V-21.3999Z" fill="#D7E8E6"/>
<path d="M36.9001 -21.3999H32.2001V170.6H36.9001V-21.3999Z" fill="#D7E8E6"/>
<path d="M48.5001 -21.3999H43.8001V170.6H48.5001V-21.3999Z" fill="#D7E8E6"/>
<path d="M60.2001 -21.3999H55.5001V170.6H60.2001V-21.3999Z" fill="#D7E8E6"/>
<path d="M71.8001 -21.3999H67.1001V170.6H71.8001V-21.3999Z" fill="#D7E8E6"/>
<path d="M83.5001 -21.3999H78.8001V170.6H83.5001V-21.3999Z" fill="#D7E8E6"/>
<path d="M95.1001 -21.3999H90.4001V170.6H95.1001V-21.3999Z" fill="#D7E8E6"/>
<path d="M106.7 -21.3999H102V170.6H106.7V-21.3999Z" fill="#D7E8E6"/>
<path d="M118.4 -21.3999H113.7V170.6H118.4V-21.3999Z" fill="#D7E8E6"/>
<path d="M130 -21.3999H125.3V170.6H130V-21.3999Z" fill="#D7E8E6"/>
<path d="M141.6 -21.3999H136.9V170.6H141.6V-21.3999Z" fill="#D7E8E6"/>
<path d="M153.3 -21.3999H148.6V170.6H153.3V-21.3999Z" fill="#D7E8E6"/>
<path d="M164.9 -21.3999H160.2V170.6H164.9V-21.3999Z" fill="#D7E8E6"/>
<path d="M176.5 -21.3999H171.8V170.6H176.5V-21.3999Z" fill="#D7E8E6"/>
<path d="M188.2 -21.3999H183.5V170.6H188.2V-21.3999Z" fill="#D7E8E6"/>
<path d="M199.8 -21.3999H195.1V170.6H199.8V-21.3999Z" fill="#D7E8E6"/>
<path d="M211.5 -21.3999H206.8V170.6H211.5V-21.3999Z" fill="#D7E8E6"/>
</g>
</svg>
