<svg width="1600" height="890" viewBox="0 0 1600 890" fill="none" xmlns="http://www.w3.org/2000/svg">
<mask id="mask0_171_2257" style="mask-type:alpha" maskUnits="userSpaceOnUse" x="-183" y="507" width="365" height="244">
<path d="M-182.322 531.134L-50.9581 750.593L181.722 699.419L69.2742 507.179L-182.322 531.134Z" fill="#4172E5"/>
</mask>
<g mask="url(#mask0_171_2257)">
<path d="M-46.5267 467.488L-53.4326 469.004L10.2422 757.825L17.1481 756.31L-46.5267 467.488Z" fill="#D7E8E6"/>
<path d="M-29.0797 463.651L-35.9856 465.167L27.6892 753.988L34.5951 752.473L-29.0797 463.651Z" fill="#D7E8E6"/>
<path d="M-11.4817 459.781L-18.3876 461.297L45.2872 750.118L52.1931 748.602L-11.4817 459.781Z" fill="#D7E8E6"/>
<path d="M5.96527 455.944L-0.940552 457.46L62.7342 746.281L69.6401 744.765L5.96527 455.944Z" fill="#D7E8E6"/>
<path d="M23.4127 452.107L16.5068 453.622L80.1816 742.444L87.0875 740.928L23.4127 452.107Z" fill="#D7E8E6"/>
<path d="M41.0104 448.237L34.1045 449.752L97.7793 738.573L104.685 737.058L41.0104 448.237Z" fill="#D7E8E6"/>
<path d="M58.4578 444.399L51.5519 445.915L115.227 734.736L122.133 733.221L58.4578 444.399Z" fill="#D7E8E6"/>
<path d="M75.9047 440.562L68.9989 442.078L132.674 730.899L139.58 729.384L75.9047 440.562Z" fill="#D7E8E6"/>
<path d="M93.5023 436.692L86.5964 438.208L150.271 727.029L157.177 725.513L93.5023 436.692Z" fill="#D7E8E6"/>
<path d="M110.95 432.855L104.044 434.37L167.719 723.192L174.625 721.676L110.95 432.855Z" fill="#D7E8E6"/>
<path d="M128.547 428.985L121.641 430.5L185.316 719.322L192.222 717.806L128.547 428.985Z" fill="#D7E8E6"/>
</g>
<path d="M1863.71 556.653L1519.98 806.417L1048 396.709L1658.07 88.2329L1863.71 556.653Z" fill="#4172E5"/>
</svg>
