<svg width="320" height="243" viewBox="0 0 320 243" fill="none" xmlns="http://www.w3.org/2000/svg">
<mask id="mask0_201_2385" style="mask-type:alpha" maskUnits="userSpaceOnUse" x="0" y="0" width="320" height="243">
<path d="M0 0L81.159 242.553H319.4L250.869 30.6464L0 0Z" fill="#4172E5"/>
</mask>
<g mask="url(#mask0_201_2385)">
<path d="M20.9444 -32.9563H13.7063V262.727H20.9444V-32.9563Z" fill="#D7E8E6"/>
<path d="M3.54219 -32.9563H-3.69592V262.727H3.54219V-32.9563Z" fill="#D7E8E6"/>
<path d="M38.9625 -32.9563H31.7244V262.727H38.9625V-32.9563Z" fill="#D7E8E6"/>
<path d="M56.8269 -32.9563H49.5888V262.727H56.8269V-32.9563Z" fill="#D7E8E6"/>
<path d="M74.6908 -32.9563H67.4528V262.727H74.6908V-32.9563Z" fill="#D7E8E6"/>
<path d="M92.7091 -32.9563H85.4709V262.727H92.7091V-32.9563Z" fill="#D7E8E6"/>
<path d="M110.573 -32.9563H103.335V262.727H110.573V-32.9563Z" fill="#D7E8E6"/>
<path d="M128.591 -32.9563H121.353V262.727H128.591V-32.9563Z" fill="#D7E8E6"/>
<path d="M146.456 -32.9563H139.218V262.727H146.456V-32.9563Z" fill="#D7E8E6"/>
<path d="M164.32 -32.9563H157.082V262.727H164.32V-32.9563Z" fill="#D7E8E6"/>
<path d="M182.338 -32.9563H175.1V262.727H182.338V-32.9563Z" fill="#D7E8E6"/>
<path d="M200.202 -32.9563H192.964V262.727H200.202V-32.9563Z" fill="#D7E8E6"/>
<path d="M218.067 -32.9563H210.829V262.727H218.067V-32.9563Z" fill="#D7E8E6"/>
<path d="M236.085 -32.9563H228.847V262.727H236.085V-32.9563Z" fill="#D7E8E6"/>
<path d="M253.949 -32.9563H246.711V262.727H253.949V-32.9563Z" fill="#D7E8E6"/>
<path d="M271.813 -32.9563H264.575V262.727H271.813V-32.9563Z" fill="#D7E8E6"/>
<path d="M289.831 -32.9563H282.593V262.727H289.831V-32.9563Z" fill="#D7E8E6"/>
<path d="M307.696 -32.9563H300.458V262.727H307.696V-32.9563Z" fill="#D7E8E6"/>
<path d="M325.714 -32.9563H318.476V262.727H325.714V-32.9563Z" fill="#D7E8E6"/>
</g>
</svg>
