<svg width="154" height="32" viewBox="0 0 154 32" fill="none" xmlns="http://www.w3.org/2000/svg">
<g clip-path="url(#clip0_427_2337)">
<path d="M153.971 0H121.376V32H153.971V0Z" fill="white"/>
<path d="M40.7656 28.8083V23.668C40.7656 22.5665 40.3053 21.8322 40.3053 21.8322L36.1913 14.8277C36.6804 13.9804 37.1119 13.2461 37.3708 12.7942C38.5503 10.7607 39.6723 9.12254 39.6723 7.39968V3.21963C39.6148 0.960138 37.3996 -0.0283882 36.2776 -0.000144617C36.0762 -0.000144617 31.3581 -0.000144617 29.7758 -0.000144617C29.4881 -0.000144617 29.258 0.225804 29.258 0.50824V31.4915C29.258 31.7739 29.4881 31.9999 29.7758 31.9999C31.502 31.9999 37.0256 31.9999 37.3708 31.9999C38.4928 32.0281 40.708 31.0396 40.7656 28.8083ZM32.9692 6.91954C32.9692 6.72183 33.1418 6.55237 33.3432 6.55237H35.731C36.6516 6.55237 36.7379 7.48441 36.5653 7.85158C36.4502 8.07753 34.6953 11.2691 32.9692 14.3194V6.91954ZM37.0544 25.5886C36.9968 25.8428 36.7954 26.3229 36.105 26.3229H33.3432C33.1418 26.3229 32.9692 26.1534 32.9692 25.9557V20.2788C33.4295 19.5162 33.9473 18.6406 34.4652 17.7368L36.5653 21.2955C36.5653 21.2955 37.0544 22.0016 37.0544 22.9337V25.5886ZM0.517841 31.9999H3.19335C3.48104 31.9999 3.71119 31.7739 3.71119 31.4915V20.0246L7.94022 12.8225V31.4915C7.94022 31.7739 8.17037 31.9999 8.45806 31.9999H11.1336C11.4213 31.9999 11.6514 31.7739 11.6514 31.4915V0.50824C11.6514 0.225804 11.4213 -0.000144617 11.1336 -0.000144617H8.45806C8.17037 -0.000144617 7.94022 0.225804 7.94022 0.50824V3.02192L3.71119 10.224V0.50824C3.71119 0.225804 3.48104 -0.000144617 3.19335 -0.000144617H0.517841C0.230151 -0.000144617 0 0.225804 0 0.50824V31.4915C0 31.7739 0.230151 31.9999 0.517841 31.9999ZM130.496 -0.000144617V4.49059H125.95V-0.000144617H121.376V31.9999H153.971V-0.000144617H130.496ZM130.496 27.5091H125.95V8.95308H130.496V27.5091ZM149.397 13.3873L141.831 23.0466H149.397V27.5091H135.387V23.0466L142.953 13.3873H135.387V8.95308H149.397V13.3873ZM25.6043 23.8375V18.33C25.6043 14.1217 22.6699 13.8957 22.6699 13.8957C23.1302 13.1331 23.533 12.427 23.7344 12.0881C24.9139 10.0546 25.6043 9.12254 25.6043 7.39968V3.21963C25.5468 0.988381 23.3316 -0.000144618 22.2096 0.028099H16.5421C16.2544 0.028099 15.9955 0.225804 15.9667 0.50824L15.0461 6.15696C15.0174 6.38291 15.19 6.58062 15.4201 6.58062H21.0013C21.3753 6.58062 21.8356 6.75008 21.9219 7.34319V7.79509C21.9219 7.79509 21.8644 9.51795 21.0588 10.8172C20.541 11.6645 19.1313 13.8957 19.1313 13.8957H17.808C17.549 13.8957 17.3477 14.0652 17.2901 14.3194L16.8298 17.059C16.801 17.2849 16.9737 17.4826 17.2038 17.4826H19.2176C19.9369 17.4826 20.2821 17.4826 20.3972 17.4826C20.9438 17.5109 21.9507 17.7933 21.9507 19.2055V20.7589C21.9507 22.1428 21.9507 23.7245 21.9507 25.3061C21.9507 25.871 21.4904 26.3229 20.915 26.3229H15.0461C14.816 26.3229 14.6434 26.5206 14.6721 26.7465L15.4489 31.5197C15.5064 31.8022 15.7366 31.9999 16.0243 31.9999H21.9219C22.9288 32.0563 25.6043 31.4632 25.6043 28.3847V23.8375ZM54.8048 6.55237C55.0349 6.55237 55.2076 6.35467 55.1788 6.12872L54.2582 0.479997C54.2006 0.197561 53.9705 -0.000144617 53.6828 -0.000144617H44.937C44.7357 -0.000144617 44.5631 0.169317 44.5631 0.367022V31.6609C44.5631 31.8586 44.7357 32.0281 44.937 32.0281H53.7403C54.028 32.0281 54.2869 31.8304 54.3157 31.548L55.0925 26.7748C55.1212 26.5488 54.9486 26.3511 54.7185 26.3511H48.2455V17.4544H51.2662C51.4964 17.4544 51.669 17.2567 51.6402 17.0307L51.1799 14.2911C51.1224 14.0087 50.8922 13.811 50.6045 13.811H48.2455V6.55237H54.8048ZM96.8362 31.4915V0.50824C96.8362 0.225804 96.606 -0.000144617 96.3183 -0.000144617H93.6428C93.3551 -0.000144617 93.125 0.225804 93.125 0.50824V3.02192L88.896 10.224V0.50824C88.896 0.225804 88.6658 -0.000144617 88.3781 -0.000144617H85.7026C85.4149 -0.000144617 85.1848 0.225804 85.1848 0.50824V31.4915C85.1848 31.7739 85.4149 31.9999 85.7026 31.9999H88.3781C88.6658 31.9999 88.896 31.7739 88.896 31.4915V20.0246L93.125 12.8225V31.4915C93.125 31.7739 93.3551 31.9999 93.6428 31.9999H96.3183C96.606 31.9999 96.8362 31.7739 96.8362 31.4915ZM112.055 31.6609V0.367022C112.055 0.169317 111.882 -0.000144617 111.681 -0.000144617C110.156 -0.000144617 104.489 -0.000144617 104.201 -0.000144617C103.079 -0.0283882 100.864 0.960138 100.806 3.19138V7.39968C100.806 9.12254 101.928 10.7607 103.108 12.7942C103.309 13.1331 103.626 13.6698 103.971 14.2629L101.439 18.5559C101.439 18.5559 100.979 19.2902 100.979 20.3917C100.979 21.352 100.979 29.2602 100.979 31.4632C100.979 31.7457 101.209 31.9716 101.497 31.9716H104.172C104.46 31.9716 104.69 31.7457 104.69 31.4632C104.69 29.2037 104.69 21.0413 104.69 20.9001C104.69 19.9963 105.179 19.262 105.179 19.262L106.042 17.7933C106.934 19.3185 107.797 20.7589 108.315 21.6345V31.4632C108.315 31.7457 108.545 31.9716 108.833 31.9716H111.652C111.882 31.9999 112.055 31.8586 112.055 31.6609ZM108.344 15.788C106.387 12.3706 104.057 8.13401 103.942 7.85158C103.769 7.48441 103.856 6.58062 104.776 6.55237H107.855C108.142 6.55237 108.373 6.77832 108.373 7.06076V15.788H108.344ZM74.6841 31.9999H77.3596C77.6473 31.9999 77.8775 31.7739 77.8775 31.4915C77.8775 31.4915 77.8775 13.924 77.8775 6.52413H82.1353C82.3654 6.52413 82.538 6.32642 82.5093 6.10047L81.5887 0.479997C81.5311 0.197561 81.301 -0.000144617 81.0133 -0.000144617H71.1168C70.8291 -0.000144617 70.5702 0.197561 70.5414 0.479997L69.6208 6.10047C69.592 6.32642 69.7646 6.52413 69.9948 6.52413H74.2238V31.4915C74.1663 31.7739 74.3964 31.9999 74.6841 31.9999ZM69.0742 26.3229H62.9176C62.3422 26.3229 61.8819 25.871 61.8819 25.3061V7.59738C61.8819 7.03251 62.3422 6.58062 62.9176 6.58062H67.607C67.8371 6.58062 68.0097 6.38291 67.981 6.15696L67.0603 0.50824C67.0028 0.225804 66.7727 0.028099 66.485 0.028099H61.8819C60.875 -0.0283882 58.1995 0.564727 58.1995 3.64328V28.3847C58.1708 31.4915 60.9038 32.0846 61.8819 31.9999H68.096C68.3837 31.9999 68.6426 31.8022 68.6714 31.5197L69.4482 26.7465C69.4769 26.5206 69.3043 26.3229 69.0742 26.3229Z" fill="#B0B3B8"/>
</g>
<defs>
<clipPath id="clip0_427_2337">
<rect width="154" height="32" fill="white"/>
</clipPath>
</defs>
</svg>
