<svg id="Layer_1" data-name="Layer 1" xmlns="http://www.w3.org/2000/svg" viewBox="0 0 255.12 255.96"><defs><style>.cls-1{fill:#fff;}</style></defs><polygon class="cls-1" points="70.23 146.71 70.23 111.2 82.08 111.2 89.74 122.9 96.96 111.2 108.61 111.2 108.61 146.71 96.96 146.71 96.96 126.72 91.14 136 87.52 136 82.08 127.89 82.08 146.71 70.23 146.71"/><polygon class="cls-1" points="126.92 146.71 136.95 130.37 136.95 146.71 148.82 146.71 148.82 111.2 136.95 111.2 126.92 127.94 126.92 111.2 115.05 111.2 115.05 146.71 126.92 146.71"/><path class="cls-1" d="M170.13,130.76c2.6,0,5.63-1,5.63-6.25,0-4-2.64-5-5.63-5h-3v11.28Zm-14.88,16V111.2h16.88c7.82,0,15.48,3.84,15.48,13.31,0,10.29-8.06,14.52-15.48,14.52h-5v7.68Z"/><path class="cls-1" d="M157.11,61.17a73.87,73.87,0,0,1,37.1,37.24l50.42-21.08A126.81,126.81,0,0,0,178,10.49l-20.9,50.68Z"/><path class="cls-1" d="M10.48,178.61a126.78,126.78,0,0,0,66.61,66.87l21-50.61A73.74,73.74,0,0,1,61,157.65l-50.47,21Z"/><path class="cls-1" d="M9.09,80.7a127.43,127.43,0,0,0,0,94.53l50.49-20.86a73.67,73.67,0,0,1,0-52.68L9.09,80.7Z"/><path class="cls-1" d="M80.45,246.86a126.44,126.44,0,0,0,94.2,0l-20.84-50.61a73,73,0,0,1-52.47,0L80.45,246.86Z"/><path class="cls-1" d="M10.48,77.33,61,98.41a73.66,73.66,0,0,1,37.1-37.25l-21-50.67A126.76,126.76,0,0,0,10.48,77.33Z"/><path class="cls-1" d="M157.11,194.87,178,245.48a126.8,126.8,0,0,0,66.62-66.87l-50.42-21a74,74,0,0,1-37.1,37.22Z"/><path class="cls-1" d="M195.56,154.37,246,175.23a127.33,127.33,0,0,0,0-94.53l-50.46,21a73.39,73.39,0,0,1,0,52.68Z"/><path class="cls-1" d="M80.45,9.08l20.89,50.73a72.68,72.68,0,0,1,52.47,0L174.65,9.08a126.7,126.7,0,0,0-94.2,0Z"/></svg>