<svg width="419" height="55" viewBox="0 0 419 55" fill="none" xmlns="http://www.w3.org/2000/svg">
<path d="M41.1978 8.24292C41.3398 8.24292 41.4819 8.24292 41.624 8.24292C42.6184 8.52716 43.6128 8.8114 44.7493 9.09564C44.1811 11.0853 43.7549 12.9328 43.3287 14.7804L43.4707 14.9225C45.1755 13.9276 47.0223 12.9328 48.8691 11.7959C49.4373 12.7907 50.0056 13.7855 50.7159 14.9225C49.0111 15.9173 47.4485 16.77 45.7437 17.7649C45.4596 17.907 45.3175 18.0491 45.3175 18.3334C47.1643 18.9018 49.0111 19.3282 51 19.8966C50.7159 21.1757 50.4318 22.1706 50.0056 23.3075C48.8691 23.0233 47.8747 22.739 46.7382 22.4548C44.7493 21.8863 42.9025 21.46 40.9137 20.8915C40.4875 20.7494 40.2033 20.8915 39.9192 21.0336C37.6462 22.3127 35.5153 23.5917 33.2423 24.8708C32.1058 25.5814 30.9694 26.1499 29.8329 26.7184C29.6908 26.7184 29.5487 26.8605 29.2646 27.1447C29.5487 27.2868 29.6908 27.2868 29.8329 27.429C31.6797 28.5659 33.6685 29.5607 35.5153 30.6977C36.9359 31.5504 38.3566 32.4031 39.7772 33.1137C40.2034 33.3979 40.4875 33.398 40.9137 33.2558C43.7549 32.4031 46.5961 31.6925 49.4373 30.9819C49.5794 30.9819 49.5794 30.9819 49.7215 30.9819C50.0056 32.1189 50.2897 33.2558 50.7159 34.3928C48.8691 34.9612 46.8802 35.3876 45.0334 35.9561C44.8914 36.2403 45.0334 36.3824 45.3175 36.5246C47.0223 37.3773 48.585 38.3721 50.2897 39.3669C49.7214 40.3618 49.1532 41.4987 48.4429 42.4936C46.5961 41.4987 44.8914 40.3618 43.0446 39.3669L42.9025 39.5091C43.3287 41.3566 43.8969 43.2041 44.4652 45.1938C43.3287 45.4781 42.1922 45.7623 41.0557 46.1886C40.7716 45.1938 40.4875 44.3411 40.3454 43.4884C39.7772 41.3566 39.2089 39.2248 38.6407 37.093C38.4986 36.8088 38.2145 36.5245 37.9304 36.3824C34.9471 34.677 31.9638 32.8295 28.9805 31.1241C28.6964 30.9819 28.4123 30.8398 28.1281 30.6977C27.9861 30.5556 27.702 30.5555 27.4178 30.5555C27.4178 31.124 27.4178 31.5504 27.4178 31.9767C27.4178 35.3876 27.4178 38.9406 27.4178 42.3514C27.4178 42.9199 27.5599 43.3463 27.9861 43.7726C29.9749 45.6202 31.8217 47.6098 33.8106 49.5995C33.9527 49.7416 34.2368 50.0259 34.3788 50.168C34.0947 50.7364 32.8162 52.0155 31.8217 52.7261C30.5432 51.447 29.4067 50.3101 28.1281 49.031C27.9861 48.8889 27.844 48.6047 27.4178 48.8889C27.4178 50.8786 27.4178 52.8682 27.4178 55C26.1393 55 25.0028 55 23.8663 55C23.8663 53.0103 23.8663 50.8786 23.8663 48.6047C23.4401 48.8889 23.2981 49.031 23.156 49.1731C22.0195 50.3101 20.883 51.447 19.8886 52.584C19.7465 52.7261 19.6045 52.7261 19.6045 52.8682C18.7521 52.0155 17.8997 51.1628 17.0474 50.3101C17.7577 49.5995 18.61 48.7468 19.3203 47.8941C20.7409 46.4729 22.1616 45.0517 23.5822 43.6305C23.7242 43.3463 23.8663 43.062 23.8663 42.7778C23.8663 38.9406 23.8663 35.2455 23.8663 31.4083C23.8663 31.124 23.8663 30.9819 23.7242 30.6977C23.0139 31.124 22.3036 31.5504 21.5933 31.9767C19.0362 33.3979 16.4791 34.9612 13.922 36.3824C13.2117 36.8088 12.6435 37.2352 12.5014 38.23C11.9332 40.646 11.2228 43.2041 10.5125 45.6202C10.3705 45.9044 10.2284 46.1886 10.0863 46.615C8.94985 46.3308 7.81337 46.0465 6.67688 45.7623C7.10306 43.7726 7.81337 41.9251 8.09749 40.0775L7.95542 39.9354C6.25068 40.9302 4.4039 41.9251 2.55711 43.062C1.98886 42.0672 1.42061 41.0724 0.710307 40.0775C0.852368 39.9354 0.994433 39.7933 1.13649 39.6512C2.55711 38.7985 4.11977 37.9457 5.54038 37.093C5.8245 36.9509 5.96656 36.8088 5.8245 36.5246C3.9777 35.9561 2.13092 35.5297 0.284118 34.9612C0.568241 33.8243 0.852372 32.6873 1.13649 31.5504C1.70474 31.6925 2.41503 31.8346 2.98327 31.9767C5.25626 32.5452 7.38718 33.1137 9.5181 33.6822C9.66016 33.6822 9.80223 33.6822 9.94429 33.8243C10.3705 33.9664 10.6546 33.9664 11.0808 33.6822C14.3482 31.8346 17.6156 29.9871 20.7409 27.9974C21.0251 27.8553 21.1671 27.7132 21.4512 27.429C20.3148 26.7184 19.3203 26.1499 18.3259 25.5814C15.9109 24.1602 13.4958 22.739 10.9387 21.3178C10.5125 21.0336 10.2284 21.0336 9.66017 21.1757C6.81895 22.0285 3.97772 22.739 1.13649 23.4496C0.994433 23.4496 0.994416 23.4496 0.852355 23.4496C0.568232 22.3127 0.284123 21.1757 0 20.0388C1.98886 19.4703 3.83566 19.0439 5.68245 18.4754C5.82451 18.0491 5.39833 18.0491 5.25626 17.907C3.69359 17.0543 2.13092 16.0594 0.426188 15.2067C0.994433 14.0698 1.56266 13.0749 2.27297 12.0801C4.11976 13.0749 5.82451 14.2119 7.81337 15.2067C7.81337 14.9225 7.81337 14.6383 7.81337 14.4961C7.38719 13.0749 6.96099 11.5116 6.53481 10.0904C6.53481 9.80621 6.53482 9.66409 6.39276 9.37985C7.52925 9.09561 8.66573 8.8114 9.80222 8.38505C10.0863 9.522 10.3705 10.6589 10.7966 11.7959C11.3649 13.6434 11.7911 15.491 12.2173 17.4806C12.3593 18.0491 12.7855 18.1912 13.2117 18.4754C15.3426 19.7545 17.6156 21.0336 19.7465 22.1705C20.7409 22.739 21.5933 23.3075 22.5877 23.876C22.7298 24.0181 23.0139 24.0181 23.298 24.1602C23.298 23.876 23.4401 23.7339 23.4401 23.5917C23.4401 20.8915 23.4401 18.1912 23.4401 15.491C23.4401 14.354 23.4401 13.075 23.4401 11.938C23.4401 11.6538 23.2981 11.3695 23.156 11.2274C21.5933 9.66411 20.0306 8.10079 18.61 6.6796C17.8997 5.96901 17.1894 5.25841 16.6212 4.54782C17.4735 3.69511 18.3259 2.84241 19.1783 1.9897C20.5989 3.41089 22.0195 4.83207 23.4401 6.25326C23.8663 5.96903 23.7242 5.68478 23.7242 5.40054C23.7242 3.69512 23.7242 1.84754 23.7242 0C24.8607 0 25.9972 0 27.2758 0C27.2758 1.98966 27.2758 3.97934 27.2758 5.96901C27.5599 6.25325 27.844 6.11112 27.9861 5.82688C28.9805 4.68993 30.117 3.69512 31.2535 2.55816C31.3955 2.41605 31.5376 2.2739 31.6797 2.13178C32.532 2.9845 33.3844 3.83723 34.2368 4.68995C34.0947 4.83207 33.9527 4.97417 33.8106 5.11629C31.8217 7.10595 29.6908 9.23776 27.702 11.2274C27.4178 11.5117 27.2758 11.6537 27.2758 12.0801C27.2758 15.9173 27.2758 19.8967 27.2758 23.7339C27.2758 23.876 27.2758 24.0181 27.4178 24.1602C27.702 24.0181 27.9861 24.0181 28.1281 23.876C31.3956 22.0284 34.5209 20.0388 37.7883 18.1912C38.2145 17.907 38.4986 17.6227 38.6407 17.0543C39.351 14.354 40.0613 11.6538 40.7716 8.95351C41.1978 8.52716 41.1978 8.38504 41.1978 8.24292Z" fill="white"/>
<path d="M225.198 8.24292C225.34 8.24292 225.482 8.24292 225.624 8.24292C226.618 8.52716 227.613 8.8114 228.749 9.09564C228.181 11.0853 227.755 12.9328 227.329 14.7804L227.471 14.9225C229.175 13.9276 231.022 12.9328 232.869 11.7959C233.437 12.7907 234.006 13.7855 234.716 14.9225C233.011 15.9173 231.448 16.77 229.744 17.7649C229.46 17.907 229.318 18.0491 229.318 18.3334C231.164 18.9018 233.011 19.3282 235 19.8966C234.716 21.1757 234.432 22.1706 234.006 23.3075C232.869 23.0233 231.875 22.739 230.738 22.4548C228.749 21.8863 226.903 21.46 224.914 20.8915C224.487 20.7494 224.203 20.8915 223.919 21.0336C221.646 22.3127 219.515 23.5917 217.242 24.8708C216.106 25.5814 214.969 26.1499 213.833 26.7184C213.691 26.7184 213.549 26.8605 213.265 27.1447C213.549 27.2868 213.691 27.2868 213.833 27.429C215.68 28.5659 217.669 29.5607 219.515 30.6977C220.936 31.5504 222.357 32.4031 223.777 33.1137C224.203 33.3979 224.487 33.398 224.914 33.2558C227.755 32.4031 230.596 31.6925 233.437 30.9819C233.579 30.9819 233.579 30.9819 233.721 30.9819C234.006 32.1189 234.29 33.2558 234.716 34.3928C232.869 34.9612 230.88 35.3876 229.033 35.9561C228.891 36.2403 229.033 36.3824 229.318 36.5246C231.022 37.3773 232.585 38.3721 234.29 39.3669C233.721 40.3618 233.153 41.4987 232.443 42.4936C230.596 41.4987 228.891 40.3618 227.045 39.3669L226.903 39.5091C227.329 41.3566 227.897 43.2041 228.465 45.1938C227.329 45.4781 226.192 45.7623 225.056 46.1886C224.772 45.1938 224.487 44.3411 224.345 43.4884C223.777 41.3566 223.209 39.2248 222.641 37.093C222.499 36.8088 222.214 36.5245 221.93 36.3824C218.947 34.677 215.964 32.8295 212.98 31.1241C212.696 30.9819 212.412 30.8398 212.128 30.6977C211.986 30.5556 211.702 30.5555 211.418 30.5555C211.418 31.124 211.418 31.5504 211.418 31.9767C211.418 35.3876 211.418 38.9406 211.418 42.3514C211.418 42.9199 211.56 43.3463 211.986 43.7726C213.975 45.6202 215.822 47.6098 217.811 49.5995C217.953 49.7416 218.237 50.0259 218.379 50.168C218.095 50.7364 216.816 52.0155 215.822 52.7261C214.543 51.447 213.407 50.3101 212.128 49.031C211.986 48.8889 211.844 48.6047 211.418 48.8889C211.418 50.8786 211.418 52.8682 211.418 55C210.139 55 209.003 55 207.866 55C207.866 53.0103 207.866 50.8786 207.866 48.6047C207.44 48.8889 207.298 49.031 207.156 49.1731C206.02 50.3101 204.883 51.447 203.889 52.584C203.747 52.7261 203.604 52.7261 203.604 52.8682C202.752 52.0155 201.9 51.1628 201.047 50.3101C201.758 49.5995 202.61 48.7468 203.32 47.8941C204.741 46.4729 206.162 45.0517 207.582 43.6305C207.724 43.3463 207.866 43.062 207.866 42.7778C207.866 38.9406 207.866 35.2455 207.866 31.4083C207.866 31.124 207.866 30.9819 207.724 30.6977C207.014 31.124 206.304 31.5504 205.593 31.9767C203.036 33.3979 200.479 34.9612 197.922 36.3824C197.212 36.8088 196.643 37.2352 196.501 38.23C195.933 40.646 195.223 43.2041 194.513 45.6202C194.37 45.9044 194.228 46.1886 194.086 46.615C192.95 46.3308 191.813 46.0465 190.677 45.7623C191.103 43.7726 191.813 41.9251 192.097 40.0775L191.955 39.9354C190.251 40.9302 188.404 41.9251 186.557 43.062C185.989 42.0672 185.421 41.0724 184.71 40.0775C184.852 39.9354 184.994 39.7933 185.136 39.6512C186.557 38.7985 188.12 37.9457 189.54 37.093C189.825 36.9509 189.967 36.8088 189.825 36.5246C187.978 35.9561 186.131 35.5297 184.284 34.9612C184.568 33.8243 184.852 32.6873 185.136 31.5504C185.705 31.6925 186.415 31.8346 186.983 31.9767C189.256 32.5452 191.387 33.1137 193.518 33.6822C193.66 33.6822 193.802 33.6822 193.944 33.8243C194.37 33.9664 194.655 33.9664 195.081 33.6822C198.348 31.8346 201.616 29.9871 204.741 27.9974C205.025 27.8553 205.167 27.7132 205.451 27.429C204.315 26.7184 203.32 26.1499 202.326 25.5814C199.911 24.1602 197.496 22.739 194.939 21.3178C194.513 21.0336 194.228 21.0336 193.66 21.1757C190.819 22.0285 187.978 22.739 185.136 23.4496C184.994 23.4496 184.994 23.4496 184.852 23.4496C184.568 22.3127 184.284 21.1757 184 20.0388C185.989 19.4703 187.836 19.0439 189.682 18.4754C189.825 18.0491 189.398 18.0491 189.256 17.907C187.694 17.0543 186.131 16.0594 184.426 15.2067C184.994 14.0698 185.563 13.0749 186.273 12.0801C188.12 13.0749 189.825 14.2119 191.813 15.2067C191.813 14.9225 191.813 14.6383 191.813 14.4961C191.387 13.0749 190.961 11.5116 190.535 10.0904C190.535 9.80621 190.535 9.66409 190.393 9.37985C191.529 9.09561 192.666 8.8114 193.802 8.38505C194.086 9.522 194.37 10.6589 194.797 11.7959C195.365 13.6434 195.791 15.491 196.217 17.4806C196.359 18.0491 196.786 18.1912 197.212 18.4754C199.343 19.7545 201.616 21.0336 203.747 22.1705C204.741 22.739 205.593 23.3075 206.588 23.876C206.73 24.0181 207.014 24.0181 207.298 24.1602C207.298 23.876 207.44 23.7339 207.44 23.5917C207.44 20.8915 207.44 18.1912 207.44 15.491C207.44 14.354 207.44 13.075 207.44 11.938C207.44 11.6538 207.298 11.3695 207.156 11.2274C205.593 9.66411 204.031 8.10079 202.61 6.6796C201.9 5.96901 201.189 5.25841 200.621 4.54782C201.474 3.69511 202.326 2.84241 203.178 1.9897C204.599 3.41089 206.02 4.83207 207.44 6.25326C207.866 5.96903 207.724 5.68478 207.724 5.40054C207.724 3.69512 207.724 1.84754 207.724 0C208.861 0 209.997 0 211.276 0C211.276 1.98966 211.276 3.97934 211.276 5.96901C211.56 6.25325 211.844 6.11112 211.986 5.82688C212.981 4.68993 214.117 3.69512 215.253 2.55816C215.396 2.41605 215.538 2.2739 215.68 2.13178C216.532 2.9845 217.384 3.83723 218.237 4.68995C218.095 4.83207 217.953 4.97417 217.811 5.11629C215.822 7.10595 213.691 9.23776 211.702 11.2274C211.418 11.5117 211.276 11.6537 211.276 12.0801C211.276 15.9173 211.276 19.8967 211.276 23.7339C211.276 23.876 211.276 24.0181 211.418 24.1602C211.702 24.0181 211.986 24.0181 212.128 23.876C215.396 22.0284 218.521 20.0388 221.788 18.1912C222.214 17.907 222.499 17.6227 222.641 17.0543C223.351 14.354 224.061 11.6538 224.772 8.95351C225.198 8.52716 225.198 8.38504 225.198 8.24292Z" fill="white"/>
<path d="M409.198 8.24292C409.34 8.24292 409.482 8.24292 409.624 8.24292C410.618 8.52716 411.613 8.8114 412.749 9.09564C412.181 11.0853 411.755 12.9328 411.329 14.7804L411.471 14.9225C413.175 13.9276 415.022 12.9328 416.869 11.7959C417.437 12.7907 418.006 13.7855 418.716 14.9225C417.011 15.9173 415.448 16.77 413.744 17.7649C413.46 17.907 413.318 18.0491 413.318 18.3334C415.164 18.9018 417.011 19.3282 419 19.8966C418.716 21.1757 418.432 22.1706 418.006 23.3075C416.869 23.0233 415.875 22.739 414.738 22.4548C412.749 21.8863 410.903 21.46 408.914 20.8915C408.487 20.7494 408.203 20.8915 407.919 21.0336C405.646 22.3127 403.515 23.5917 401.242 24.8708C400.106 25.5814 398.969 26.1499 397.833 26.7184C397.691 26.7184 397.549 26.8605 397.265 27.1447C397.549 27.2868 397.691 27.2868 397.833 27.429C399.68 28.5659 401.669 29.5607 403.515 30.6977C404.936 31.5504 406.357 32.4031 407.777 33.1137C408.203 33.3979 408.487 33.398 408.914 33.2558C411.755 32.4031 414.596 31.6925 417.437 30.9819C417.579 30.9819 417.579 30.9819 417.721 30.9819C418.006 32.1189 418.29 33.2558 418.716 34.3928C416.869 34.9612 414.88 35.3876 413.033 35.9561C412.891 36.2403 413.033 36.3824 413.318 36.5246C415.022 37.3773 416.585 38.3721 418.29 39.3669C417.721 40.3618 417.153 41.4987 416.443 42.4936C414.596 41.4987 412.891 40.3618 411.045 39.3669L410.903 39.5091C411.329 41.3566 411.897 43.2041 412.465 45.1938C411.329 45.4781 410.192 45.7623 409.056 46.1886C408.772 45.1938 408.487 44.3411 408.345 43.4884C407.777 41.3566 407.209 39.2248 406.641 37.093C406.499 36.8088 406.214 36.5245 405.93 36.3824C402.947 34.677 399.964 32.8295 396.98 31.1241C396.696 30.9819 396.412 30.8398 396.128 30.6977C395.986 30.5556 395.702 30.5555 395.418 30.5555C395.418 31.124 395.418 31.5504 395.418 31.9767C395.418 35.3876 395.418 38.9406 395.418 42.3514C395.418 42.9199 395.56 43.3463 395.986 43.7726C397.975 45.6202 399.822 47.6098 401.811 49.5995C401.953 49.7416 402.237 50.0259 402.379 50.168C402.095 50.7364 400.816 52.0155 399.822 52.7261C398.543 51.447 397.407 50.3101 396.128 49.031C395.986 48.8889 395.844 48.6047 395.418 48.8889C395.418 50.8786 395.418 52.8682 395.418 55C394.139 55 393.003 55 391.866 55C391.866 53.0103 391.866 50.8786 391.866 48.6047C391.44 48.8889 391.298 49.031 391.156 49.1731C390.02 50.3101 388.883 51.447 387.889 52.584C387.747 52.7261 387.604 52.7261 387.604 52.8682C386.752 52.0155 385.9 51.1628 385.047 50.3101C385.758 49.5995 386.61 48.7468 387.32 47.8941C388.741 46.4729 390.162 45.0517 391.582 43.6305C391.724 43.3463 391.866 43.062 391.866 42.7778C391.866 38.9406 391.866 35.2455 391.866 31.4083C391.866 31.124 391.866 30.9819 391.724 30.6977C391.014 31.124 390.304 31.5504 389.593 31.9767C387.036 33.3979 384.479 34.9612 381.922 36.3824C381.212 36.8088 380.643 37.2352 380.501 38.23C379.933 40.646 379.223 43.2041 378.513 45.6202C378.37 45.9044 378.228 46.1886 378.086 46.615C376.95 46.3308 375.813 46.0465 374.677 45.7623C375.103 43.7726 375.813 41.9251 376.097 40.0775L375.955 39.9354C374.251 40.9302 372.404 41.9251 370.557 43.062C369.989 42.0672 369.421 41.0724 368.71 40.0775C368.852 39.9354 368.994 39.7933 369.136 39.6512C370.557 38.7985 372.12 37.9457 373.54 37.093C373.825 36.9509 373.967 36.8088 373.825 36.5246C371.978 35.9561 370.131 35.5297 368.284 34.9612C368.568 33.8243 368.852 32.6873 369.136 31.5504C369.705 31.6925 370.415 31.8346 370.983 31.9767C373.256 32.5452 375.387 33.1137 377.518 33.6822C377.66 33.6822 377.802 33.6822 377.944 33.8243C378.37 33.9664 378.655 33.9664 379.081 33.6822C382.348 31.8346 385.616 29.9871 388.741 27.9974C389.025 27.8553 389.167 27.7132 389.451 27.429C388.315 26.7184 387.32 26.1499 386.326 25.5814C383.911 24.1602 381.496 22.739 378.939 21.3178C378.513 21.0336 378.228 21.0336 377.66 21.1757C374.819 22.0285 371.978 22.739 369.136 23.4496C368.994 23.4496 368.994 23.4496 368.852 23.4496C368.568 22.3127 368.284 21.1757 368 20.0388C369.989 19.4703 371.836 19.0439 373.682 18.4754C373.825 18.0491 373.398 18.0491 373.256 17.907C371.694 17.0543 370.131 16.0594 368.426 15.2067C368.994 14.0698 369.563 13.0749 370.273 12.0801C372.12 13.0749 373.825 14.2119 375.813 15.2067C375.813 14.9225 375.813 14.6383 375.813 14.4961C375.387 13.0749 374.961 11.5116 374.535 10.0904C374.535 9.80621 374.535 9.66409 374.393 9.37985C375.529 9.09561 376.666 8.8114 377.802 8.38505C378.086 9.522 378.37 10.6589 378.797 11.7959C379.365 13.6434 379.791 15.491 380.217 17.4806C380.359 18.0491 380.786 18.1912 381.212 18.4754C383.343 19.7545 385.616 21.0336 387.747 22.1705C388.741 22.739 389.593 23.3075 390.588 23.876C390.73 24.0181 391.014 24.0181 391.298 24.1602C391.298 23.876 391.44 23.7339 391.44 23.5917C391.44 20.8915 391.44 18.1912 391.44 15.491C391.44 14.354 391.44 13.075 391.44 11.938C391.44 11.6538 391.298 11.3695 391.156 11.2274C389.593 9.66411 388.031 8.10079 386.61 6.6796C385.9 5.96901 385.189 5.25841 384.621 4.54782C385.474 3.69511 386.326 2.84241 387.178 1.9897C388.599 3.41089 390.02 4.83207 391.44 6.25326C391.866 5.96903 391.724 5.68478 391.724 5.40054C391.724 3.69512 391.724 1.84754 391.724 0C392.861 0 393.997 0 395.276 0C395.276 1.98966 395.276 3.97934 395.276 5.96901C395.56 6.25325 395.844 6.11112 395.986 5.82688C396.981 4.68993 398.117 3.69512 399.253 2.55816C399.396 2.41605 399.538 2.2739 399.68 2.13178C400.532 2.9845 401.384 3.83723 402.237 4.68995C402.095 4.83207 401.953 4.97417 401.811 5.11629C399.822 7.10595 397.691 9.23776 395.702 11.2274C395.418 11.5117 395.276 11.6537 395.276 12.0801C395.276 15.9173 395.276 19.8967 395.276 23.7339C395.276 23.876 395.276 24.0181 395.418 24.1602C395.702 24.0181 395.986 24.0181 396.128 23.876C399.396 22.0284 402.521 20.0388 405.788 18.1912C406.214 17.907 406.499 17.6227 406.641 17.0543C407.351 14.354 408.061 11.6538 408.772 8.95351C409.198 8.52716 409.198 8.38504 409.198 8.24292Z" fill="white"/>
</svg>
