<svg xmlns="http://www.w3.org/2000/svg" xmlns:xlink="http://www.w3.org/1999/xlink"><symbol id="icon-dates" viewBox="0 0 25 25">
<path d="M0 7.8125H25V22C25 23.6569 23.6569 25 22 25H3C1.34315 25 0 23.6569 0 22V7.8125Z" fill="#2558BF"/>
<path d="M6.25 0.78125C6.25 0.57405 6.16769 0.375336 6.02118 0.228823C5.87466 0.08231 5.67595 0 5.46875 0C5.26155 0 5.06284 0.08231 4.91632 0.228823C4.76981 0.375336 4.6875 0.57405 4.6875 0.78125V1.5625H3.125C2.2962 1.5625 1.50134 1.89174 0.915291 2.47779C0.32924 3.06384 0 3.8587 0 4.6875L0 6.25H25V4.6875C25 3.8587 24.6708 3.06384 24.0847 2.47779C23.4987 1.89174 22.7038 1.5625 21.875 1.5625H20.3125V0.78125C20.3125 0.57405 20.2302 0.375336 20.0837 0.228823C19.9372 0.08231 19.7385 0 19.5312 0C19.324 0 19.1253 0.08231 18.9788 0.228823C18.8323 0.375336 18.75 0.57405 18.75 0.78125V1.5625H6.25V0.78125Z" fill="#2558BF"/>
</symbol><symbol id="icon-location" viewBox="0 0 16 20">
<path d="M8 10C8.55 10 9.021 9.804 9.413 9.412C9.80433 9.02067 10 8.55 10 8C10 7.45 9.80433 6.979 9.413 6.587C9.021 6.19567 8.55 6 8 6C7.45 6 6.97933 6.19567 6.588 6.587C6.196 6.979 6 7.45 6 8C6 8.55 6.196 9.02067 6.588 9.412C6.97933 9.804 7.45 10 8 10ZM8 20C5.31667 17.7167 3.31267 15.5957 1.988 13.637C0.662667 11.679 0 9.86667 0 8.2C0 5.7 0.804333 3.70833 2.413 2.225C4.021 0.741667 5.88333 0 8 0C10.1167 0 11.979 0.741667 13.587 2.225C15.1957 3.70833 16 5.7 16 8.2C16 9.86667 15.3377 11.679 14.013 13.637C12.6877 15.5957 10.6833 17.7167 8 20Z" fill="#2558BF"/>
</symbol><symbol id="icon-time" viewBox="0 0 20 20">
<path d="M9.99 0C4.47 0 0 4.369 0 9.75223C0 15.1355 4.47 19.5045 9.99 19.5045C15.52 19.5045 20 15.1355 20 9.75223C20 4.369 15.52 0 9.99 0ZM14 13.6531C13.9075 13.7435 13.7976 13.8153 13.6766 13.8642C13.5557 13.9131 13.426 13.9383 13.295 13.9383C13.164 13.9383 13.0343 13.9131 12.9134 13.8642C12.7924 13.8153 12.6825 13.7435 12.59 13.6531L9.3 10.4446C9.20551 10.3543 9.13034 10.2466 9.07885 10.1278C9.02735 10.0089 9.00055 9.88126 9 9.75223V5.85134C9 5.31497 9.45 4.87612 10 4.87612C10.55 4.87612 11 5.31497 11 5.85134V9.35239L14 12.2781C14.39 12.6584 14.39 13.2728 14 13.6531Z" fill="#2558BF"/>
</symbol></svg>