<svg width="96" height="96" viewBox="0 0 96 96" fill="none" xmlns="http://www.w3.org/2000/svg">
<path fill-rule="evenodd" clip-rule="evenodd" d="M0.026817 44.4295C0 45.2145 0 46.143 0 48C0 49.857 0 50.7855 0.026817 51.5705C0.852579 75.7431 20.2569 95.1474 44.4295 95.9732C45.2145 96 46.143 96 48 96C49.857 96 50.7855 96 51.5705 95.9732C75.7431 95.1474 95.1474 75.7431 95.9732 51.5705C96 50.7855 96 49.857 96 48C96 46.143 96 45.2145 95.9732 44.4295C95.1474 20.2569 75.7431 0.852579 51.5705 0.026817C50.7855 0 49.857 0 48 0C46.143 0 45.2145 0 44.4295 0.026817C20.2569 0.852579 0.852579 20.2569 0.026817 44.4295ZM52.3974 32.4645C44.4161 36.0582 21.4031 46.2643 21.4031 46.2643C15.9492 48.5643 19.1415 50.7205 19.1415 50.7205C19.1415 50.7205 23.7973 52.4456 27.7882 53.7391C31.7788 55.0329 33.9072 53.5955 33.9072 53.5955C33.9072 53.5955 43.2188 46.9831 52.6634 39.9393C59.3145 35.052 57.7183 39.0769 56.122 40.802C52.6634 44.5394 46.9435 50.433 42.1545 55.1767C40.0263 57.1893 41.0904 58.9142 42.0216 59.7766C44.7298 62.2529 51.1082 66.7564 54.0041 68.8011C54.8065 69.3677 55.3415 69.7454 55.457 69.839C56.122 70.4141 59.8468 73.0014 62.1081 72.4265C64.3695 71.8515 64.6355 68.5452 64.6355 68.5452C64.6355 68.5452 66.3648 56.758 67.9611 45.9768C68.2568 43.86 68.5525 41.7876 68.8282 39.8552C69.5447 34.8325 70.1264 30.7554 70.2225 29.302C70.6216 24.4146 65.8327 26.427 65.8327 26.427C65.8327 26.427 55.457 31.0271 52.3974 32.4645Z" fill="white"/>
</svg>
