<svg width="25" height="25" viewBox="0 0 25 25" fill="none" xmlns="http://www.w3.org/2000/svg">
<path d="M0 7.8125H25V22C25 23.6569 23.6569 25 22 25H3C1.34315 25 0 23.6569 0 22V7.8125Z" fill="#2558BF"/>
<path d="M6.25 0.78125C6.25 0.57405 6.16769 0.375336 6.02118 0.228823C5.87466 0.08231 5.67595 0 5.46875 0C5.26155 0 5.06284 0.08231 4.91632 0.228823C4.76981 0.375336 4.6875 0.57405 4.6875 0.78125V1.5625H3.125C2.2962 1.5625 1.50134 1.89174 0.915291 2.47779C0.32924 3.06384 0 3.8587 0 4.6875L0 6.25H25V4.6875C25 3.8587 24.6708 3.06384 24.0847 2.47779C23.4987 1.89174 22.7038 1.5625 21.875 1.5625H20.3125V0.78125C20.3125 0.57405 20.2302 0.375336 20.0837 0.228823C19.9372 0.08231 19.7385 0 19.5312 0C19.324 0 19.1253 0.08231 18.9788 0.228823C18.8323 0.375336 18.75 0.57405 18.75 0.78125V1.5625H6.25V0.78125Z" fill="#2558BF"/>
</svg>
