<svg width="25" height="24" viewBox="0 0 25 24" fill="none" xmlns="http://www.w3.org/2000/svg">
<path d="M5.06946 6.87014L7.03619 6.27624C7.19117 6.22949 7.35397 6.21331 7.51529 6.22862C7.67661 6.24393 7.83329 6.29043 7.97639 6.36547C8.11949 6.44051 8.2462 6.54262 8.3493 6.66596C8.45239 6.78931 8.52985 6.93147 8.57724 7.08434C8.62463 7.23721 8.64104 7.39779 8.62551 7.55691C8.60999 7.71604 8.56285 7.87058 8.48677 8.01173C8.4107 8.15288 8.30718 8.27787 8.18213 8.37956C8.05709 8.48125 7.91296 8.55765 7.75798 8.6044L3.03858 10.0283C2.88352 10.0751 2.72064 10.0912 2.55925 10.0759C2.39785 10.0605 2.24111 10.0139 2.09799 9.93872C1.95487 9.86356 1.82817 9.7613 1.72514 9.63781C1.62211 9.51431 1.54476 9.372 1.49753 9.219L0.0539483 4.56389C0.0065549 4.41102 -0.00984877 4.25044 0.0056739 4.09132C0.0211966 3.93219 0.0683416 3.77765 0.144417 3.63649C0.220493 3.49534 0.324009 3.37036 0.449056 3.26867C0.574102 3.16698 0.71823 3.09058 0.873211 3.04383C1.18621 2.94942 1.52441 2.98152 1.81341 3.13306C2.10242 3.28461 2.31855 3.5432 2.41426 3.85193L2.95715 5.60566C5.92821 1.09172 11.8222 -0.849426 17.0549 1.26576C18.6197 1.89844 20.025 2.86169 21.1719 4.08774C22.3187 5.31378 23.1792 6.77283 23.6929 8.36221C23.7455 8.51532 23.7667 8.67724 23.7552 8.83852C23.7438 8.9998 23.6998 9.1572 23.6259 9.30153C23.5521 9.44587 23.4498 9.57424 23.3251 9.67916C23.2004 9.78407 23.0557 9.86342 22.8996 9.91258C22.7434 9.96174 22.5789 9.97972 22.4157 9.96546C22.2524 9.95121 22.0936 9.90501 21.9487 9.82956C21.8037 9.75411 21.6754 9.65093 21.5713 9.52604C21.4673 9.40115 21.3894 9.25705 21.3424 9.10216C20.8212 7.48763 19.8476 6.05144 18.5341 4.95942C17.2206 3.8674 15.6208 3.16409 13.9193 2.9307C12.2179 2.69731 10.4842 2.94336 8.91845 3.64043C7.35272 4.3375 6.0188 5.45716 5.0707 6.87014H5.06946ZM20.2789 16.8436L18.0888 17.3828C17.9303 17.4257 17.7646 17.4369 17.6016 17.4157C17.4385 17.3946 17.2814 17.3415 17.1395 17.2596C16.9976 17.1777 16.8737 17.0686 16.7751 16.9388C16.6765 16.809 16.6052 16.6611 16.5654 16.5037C16.5256 16.3463 16.5181 16.1827 16.5433 16.0224C16.5685 15.8621 16.626 15.7085 16.7123 15.5704C16.7986 15.4323 16.912 15.3127 17.0458 15.2185C17.1796 15.1242 17.3312 15.0574 17.4917 15.0218L21.9865 13.9155C22.2207 13.8056 22.4841 13.7715 22.7391 13.8181C22.9848 13.85 23.2151 13.9541 23.4 14.1169C23.5848 14.2797 23.7157 14.4937 23.7755 14.7309L24.9699 19.4529C25.0406 19.7631 24.9856 20.0882 24.8164 20.3588C24.6473 20.6294 24.3775 20.824 24.0648 20.9009C23.7521 20.9779 23.4213 20.9311 23.1431 20.7706C22.865 20.6101 22.6615 20.3486 22.5763 20.042L22.1691 18.4331C20.9811 20.1193 19.3541 21.4584 17.4593 22.3091C15.5646 23.1598 13.4723 23.4907 11.4029 23.2669C9.33352 23.0432 7.36361 22.273 5.7007 21.0377C4.0378 19.8023 2.74346 18.1474 1.95405 16.2473L1.63325 15.4757C1.57184 15.3278 1.54057 15.1694 1.54122 15.0096C1.54187 14.8497 1.57444 14.6916 1.63705 14.5442C1.69966 14.3967 1.7911 14.2629 1.90614 14.1504C2.02119 14.0378 2.15758 13.9487 2.30754 13.8881C2.61039 13.7658 2.95011 13.7671 3.25195 13.8919C3.40141 13.9536 3.53707 14.0438 3.65119 14.1573C3.76531 14.2708 3.85566 14.4053 3.91707 14.5532L4.23786 15.3236C4.86681 16.8373 5.90291 18.1529 7.23436 19.1284C8.56581 20.1039 10.142 20.7022 11.793 20.8588C13.4439 21.0153 15.1068 20.7242 16.6023 20.0168C18.0978 19.3095 19.3691 18.2127 20.2789 16.8449V16.8436Z" fill="white"/>
</svg>
