<svg width="51" height="55" viewBox="0 0 51 55" fill="none" xmlns="http://www.w3.org/2000/svg">
<path d="M41.1978 8.24292C41.3398 8.24292 41.4819 8.24292 41.624 8.24292C42.6184 8.52716 43.6128 8.8114 44.7493 9.09564C44.1811 11.0853 43.7549 12.9328 43.3287 14.7804L43.4707 14.9225C45.1755 13.9276 47.0223 12.9328 48.8691 11.7959C49.4373 12.7907 50.0056 13.7855 50.7159 14.9225C49.0111 15.9173 47.4485 16.77 45.7437 17.7649C45.4596 17.907 45.3175 18.0491 45.3175 18.3334C47.1643 18.9018 49.0111 19.3282 51 19.8966C50.7159 21.1757 50.4318 22.1706 50.0056 23.3075C48.8691 23.0233 47.8747 22.739 46.7382 22.4548C44.7493 21.8863 42.9025 21.46 40.9137 20.8915C40.4875 20.7494 40.2033 20.8915 39.9192 21.0336C37.6462 22.3127 35.5153 23.5917 33.2423 24.8708C32.1058 25.5814 30.9694 26.1499 29.8329 26.7184C29.6908 26.7184 29.5487 26.8605 29.2646 27.1447C29.5487 27.2868 29.6908 27.2868 29.8329 27.429C31.6797 28.5659 33.6685 29.5607 35.5153 30.6977C36.9359 31.5504 38.3566 32.4031 39.7772 33.1137C40.2033 33.3979 40.4875 33.398 40.9137 33.2558C43.7549 32.4031 46.5961 31.6925 49.4373 30.9819C49.5794 30.9819 49.5794 30.9819 49.7215 30.9819C50.0056 32.1189 50.2897 33.2558 50.7159 34.3928C48.8691 34.9612 46.8802 35.3876 45.0334 35.9561C44.8914 36.2403 45.0334 36.3824 45.3175 36.5246C47.0223 37.3773 48.585 38.3721 50.2897 39.3669C49.7214 40.3618 49.1532 41.4987 48.4429 42.4936C46.5961 41.4987 44.8914 40.3618 43.0446 39.3669L42.9025 39.5091C43.3287 41.3566 43.8969 43.2041 44.4652 45.1938C43.3287 45.478 42.1922 45.7623 41.0557 46.1886C40.7716 45.1938 40.4875 44.3411 40.3454 43.4884C39.7772 41.3566 39.2089 39.2248 38.6407 37.093C38.4986 36.8088 38.2145 36.5245 37.9304 36.3824C34.9471 34.677 31.9638 32.8295 28.9805 31.1241C28.6964 30.9819 28.4123 30.8398 28.1281 30.6977C27.9861 30.5556 27.702 30.5555 27.4178 30.5555C27.4178 31.124 27.4178 31.5504 27.4178 31.9767C27.4178 35.3876 27.4178 38.9406 27.4178 42.3514C27.4178 42.9199 27.5599 43.3463 27.9861 43.7726C29.9749 45.6202 31.8217 47.6098 33.8106 49.5995C33.9527 49.7416 34.2368 50.0259 34.3788 50.168C34.0947 50.7364 32.8162 52.0155 31.8217 52.7261C30.5432 51.447 29.4067 50.3101 28.1281 49.031C27.9861 48.8889 27.844 48.6047 27.4178 48.8889C27.4178 50.8786 27.4178 52.8682 27.4178 55C26.1393 55 25.0028 55 23.8663 55C23.8663 53.0103 23.8663 50.8786 23.8663 48.6047C23.4401 48.8889 23.2981 49.031 23.156 49.1731C22.0195 50.3101 20.883 51.447 19.8886 52.584C19.7465 52.7261 19.6045 52.7261 19.6045 52.8682C18.7521 52.0155 17.8997 51.1628 17.0474 50.3101C17.7577 49.5995 18.61 48.7468 19.3203 47.8941C20.7409 46.4729 22.1616 45.0517 23.5822 43.6305C23.7242 43.3463 23.8663 43.062 23.8663 42.7778C23.8663 38.9406 23.8663 35.2455 23.8663 31.4083C23.8663 31.124 23.8663 30.9819 23.7242 30.6977C23.0139 31.124 22.3036 31.5504 21.5933 31.9767C19.0362 33.3979 16.4791 34.9612 13.922 36.3824C13.2117 36.8088 12.6435 37.2352 12.5014 38.23C11.9332 40.646 11.2228 43.2041 10.5125 45.6202C10.3705 45.9044 10.2284 46.1886 10.0863 46.615C8.94985 46.3308 7.81337 46.0465 6.67688 45.7623C7.10306 43.7726 7.81337 41.9251 8.09749 40.0775L7.95542 39.9354C6.25068 40.9302 4.4039 41.9251 2.55711 43.062C1.98886 42.0672 1.42061 41.0724 0.710307 40.0775C0.852368 39.9354 0.994433 39.7933 1.13649 39.6512C2.55711 38.7985 4.11977 37.9457 5.54038 37.093C5.8245 36.9509 5.96656 36.8088 5.8245 36.5246C3.9777 35.9561 2.13092 35.5297 0.284118 34.9612C0.568241 33.8243 0.852372 32.6873 1.13649 31.5504C1.70474 31.6925 2.41503 31.8346 2.98327 31.9767C5.25626 32.5452 7.38718 33.1137 9.5181 33.6822C9.66016 33.6822 9.80223 33.6822 9.94429 33.8243C10.3705 33.9664 10.6546 33.9664 11.0808 33.6822C14.3482 31.8346 17.6156 29.9871 20.7409 27.9974C21.0251 27.8553 21.1671 27.7132 21.4512 27.429C20.3148 26.7184 19.3203 26.1499 18.3259 25.5814C15.9109 24.1602 13.4958 22.739 10.9387 21.3178C10.5125 21.0336 10.2284 21.0336 9.66017 21.1757C6.81895 22.0285 3.97772 22.739 1.13649 23.4496C0.994433 23.4496 0.994416 23.4496 0.852355 23.4496C0.568232 22.3127 0.284123 21.1757 0 20.0388C1.98886 19.4703 3.83566 19.0439 5.68245 18.4754C5.82451 18.0491 5.39833 18.0491 5.25626 17.907C3.69359 17.0543 2.13092 16.0594 0.426188 15.2067C0.994433 14.0698 1.56266 13.0749 2.27297 12.0801C4.11976 13.0749 5.82451 14.2119 7.81337 15.2067C7.81337 14.9225 7.81337 14.6383 7.81337 14.4961C7.38719 13.0749 6.96099 11.5116 6.53481 10.0904C6.53481 9.80621 6.53482 9.66409 6.39276 9.37985C7.52925 9.09561 8.66573 8.8114 9.80222 8.38505C10.0863 9.522 10.3705 10.6589 10.7966 11.7959C11.3649 13.6434 11.7911 15.491 12.2173 17.4806C12.3593 18.0491 12.7855 18.1912 13.2117 18.4754C15.3426 19.7545 17.6156 21.0336 19.7465 22.1705C20.7409 22.739 21.5933 23.3075 22.5877 23.876C22.7298 24.0181 23.0139 24.0181 23.298 24.1602C23.298 23.876 23.4401 23.7339 23.4401 23.5917C23.4401 20.8915 23.4401 18.1912 23.4401 15.491C23.4401 14.354 23.4401 13.075 23.4401 11.938C23.4401 11.6538 23.2981 11.3695 23.156 11.2274C21.5933 9.66411 20.0306 8.10079 18.61 6.6796C17.8997 5.96901 17.1894 5.25841 16.6212 4.54782C17.4735 3.69511 18.3259 2.84241 19.1783 1.9897C20.5989 3.41089 22.0195 4.83207 23.4401 6.25326C23.8663 5.96903 23.7242 5.68478 23.7242 5.40054C23.7242 3.69512 23.7242 1.84754 23.7242 0C24.8607 0 25.9972 0 27.2758 0C27.2758 1.98966 27.2758 3.97934 27.2758 5.96901C27.5599 6.25325 27.844 6.11112 27.9861 5.82688C28.9805 4.68993 30.117 3.69512 31.2535 2.55816C31.3955 2.41605 31.5376 2.2739 31.6797 2.13178C32.532 2.9845 33.3844 3.83723 34.2368 4.68995C34.0947 4.83207 33.9527 4.97417 33.8106 5.11629C31.8217 7.10595 29.6908 9.23776 27.702 11.2274C27.4178 11.5117 27.2758 11.6537 27.2758 12.0801C27.2758 15.9173 27.2758 19.8967 27.2758 23.7339C27.2758 23.876 27.2758 24.0181 27.4178 24.1602C27.702 24.0181 27.9861 24.0181 28.1281 23.876C31.3956 22.0284 34.5209 20.0388 37.7883 18.1912C38.2145 17.907 38.4986 17.6227 38.6407 17.0543C39.351 14.354 40.0613 11.6538 40.7716 8.95351C41.1978 8.52716 41.1978 8.38504 41.1978 8.24292Z" fill="white"/>
</svg>
