<svg width="365" height="307" viewBox="0 0 365 307" fill="none" xmlns="http://www.w3.org/2000/svg">
<mask id="mask0_201_2434" style="mask-type:alpha" maskUnits="userSpaceOnUse" x="0" y="45" width="365" height="244">
<path d="M0 69.1335L131.364 288.593L364.044 237.419L251.596 45.179L0 69.1335Z" fill="#4172E5"/>
</mask>
<g mask="url(#mask0_201_2434)">
<path d="M12.8337 32.4477L6.30756 33.8765L70.3621 322.785L76.8883 321.356L12.8337 32.4477Z" fill="#D7E8E6"/>
<path d="M-4.16231 36.1857L-10.6885 37.6145L53.3661 326.523L59.8922 325.094L-4.16231 36.1857Z" fill="#D7E8E6"/>
<path d="M30.4313 28.5775L23.9052 30.0063L87.9597 318.914L94.4859 317.486L30.4313 28.5775Z" fill="#D7E8E6"/>
<path d="M47.8787 24.7403L41.3525 26.1691L105.407 315.077L111.933 313.648L47.8787 24.7403Z" fill="#D7E8E6"/>
<path d="M65.3256 20.9032L58.7996 22.332L122.854 311.24L129.38 309.811L65.3256 20.9032Z" fill="#D7E8E6"/>
<path d="M82.9233 17.033L76.3972 18.4618L140.452 307.37L146.978 305.941L82.9233 17.033Z" fill="#D7E8E6"/>
<path d="M100.371 13.1958L93.8445 14.6246L157.899 303.533L164.425 302.104L100.371 13.1958Z" fill="#D7E8E6"/>
<path d="M117.968 9.3256L111.442 10.7544L175.497 299.662L182.023 298.234L117.968 9.3256Z" fill="#D7E8E6"/>
<path d="M135.416 5.48842L128.89 6.91724L192.944 295.825L199.47 294.397L135.416 5.48842Z" fill="#D7E8E6"/>
<path d="M152.863 1.65126L146.337 3.08008L210.391 291.988L216.917 290.559L152.863 1.65126Z" fill="#D7E8E6"/>
<path d="M170.461 -2.21898L163.935 -0.790161L227.989 288.118L234.515 286.689L170.461 -2.21898Z" fill="#D7E8E6"/>
<path d="M187.908 -6.05612L181.382 -4.62732L245.436 284.281L251.962 282.852L187.908 -6.05612Z" fill="#D7E8E6"/>
<path d="M205.355 -9.89329L198.829 -8.46448L262.884 280.444L269.41 279.015L205.355 -9.89329Z" fill="#D7E8E6"/>
<path d="M222.953 -13.7635L216.427 -12.3347L280.481 276.573L287.007 275.145L222.953 -13.7635Z" fill="#D7E8E6"/>
<path d="M240.4 -17.6007L233.874 -16.1719L297.929 272.736L304.455 271.307L240.4 -17.6007Z" fill="#D7E8E6"/>
<path d="M257.847 -21.4378L251.321 -20.009L315.376 268.899L321.902 267.47L257.847 -21.4378Z" fill="#D7E8E6"/>
<path d="M275.445 -25.3081L268.919 -23.8793L332.973 265.029L339.499 263.6L275.445 -25.3081Z" fill="#D7E8E6"/>
<path d="M292.892 -29.1452L286.366 -27.7164L350.421 261.192L356.947 259.763L292.892 -29.1452Z" fill="#D7E8E6"/>
<path d="M310.49 -33.0155L303.964 -31.5867L368.018 257.321L374.544 255.893L310.49 -33.0155Z" fill="#D7E8E6"/>
</g>
</svg>
