<svg width="1414" height="306" viewBox="0 0 1414 306" fill="none" xmlns="http://www.w3.org/2000/svg">
<g filter="url(#filter0_d_337_2370)">
<path d="M495.446 99.3384C484.65 99.3384 484.65 116.225 495.446 116.225C506.243 116.225 506.52 99.3384 495.446 99.3384Z" fill="#F2DCDB"/>
<path d="M1379.38 78.3003C1368.59 78.3003 1368.59 95.1873 1379.38 95.1873C1390.46 95.1873 1390.46 78.3003 1379.38 78.3003Z" fill="#D7E8E6"/>
<path d="M875.543 90.4805C864.746 90.4805 864.746 107.367 875.543 107.367C886.339 107.367 886.339 90.4805 875.543 90.4805Z" fill="#D7E8E6"/>
<path d="M1028.63 11.8594C1017.84 11.8594 1017.84 28.7464 1028.63 28.7464C1039.43 28.7464 1039.43 11.8594 1028.63 11.8594Z" fill="#F2DCDB"/>
<path d="M1254.25 24.0396C1243.46 24.0396 1243.46 40.9266 1254.25 40.9266C1265.05 40.9266 1265.05 24.0396 1254.25 24.0396Z" fill="#F9F0B9"/>
<path d="M577.39 11.5825C566.593 11.5825 566.593 28.4695 577.39 28.4695C588.463 28.4695 588.463 11.5825 577.39 11.5825Z" fill="#F9F0B9"/>
<path d="M112.859 32.3447C102.062 32.3447 102.062 49.2317 112.859 49.2317C123.932 49.2317 123.932 32.3447 112.859 32.3447Z" fill="#D7E8E6"/>
<path d="M266.78 12.4124C267.057 12.4124 267.057 12.4124 267.057 12.4124C268.164 12.6893 269.271 12.9661 270.379 13.2429C269.825 15.1808 269.271 17.3955 268.718 19.3333C268.718 19.3333 268.718 19.3333 268.994 19.3333C270.932 18.226 272.593 17.1186 274.808 16.0113C275.362 17.1186 276.192 18.226 276.746 19.3333C275.085 20.4407 273.424 21.2712 271.486 22.3785C271.209 22.6554 271.209 22.6554 271.209 22.9322C273.147 23.4859 275.085 24.0395 277.299 24.5932C277.023 25.9774 276.746 27.0847 276.192 28.1921C275.085 27.9153 273.977 27.6384 272.87 27.3616C270.932 26.8079 268.718 26.2542 266.78 25.7006C266.503 25.7006 265.949 25.7006 265.672 25.9774C263.458 27.3616 260.966 28.7458 258.751 30.1299C257.644 30.6836 256.537 31.5141 255.153 32.0678C255.153 32.0678 254.876 32.3446 254.599 32.6215C254.876 32.6215 254.876 32.8983 255.153 32.8983C257.09 34.0056 259.305 35.113 261.243 36.2203C262.627 37.0508 264.288 37.8814 265.672 38.7119C265.949 38.9887 266.503 38.9887 267.057 38.9887C270.102 38.1582 273.147 37.3277 276.192 36.4972H276.469C276.746 37.6045 277.023 38.7119 277.576 40.096C275.638 40.6497 273.701 41.2034 271.763 41.7571C271.763 42.0339 271.763 42.3107 272.04 42.3107C273.701 43.1412 275.362 44.2486 277.299 45.3559C276.746 46.4633 275.915 47.5706 275.362 48.678C273.424 47.5706 271.486 46.4633 269.548 45.3559C269.548 45.3559 269.548 45.3559 269.271 45.6328C269.825 47.5706 270.379 49.5085 270.932 51.7232C269.825 52 268.441 52.2768 267.333 52.8305C267.057 51.7232 266.78 50.8926 266.503 49.7853C265.949 47.5706 265.396 45.3559 264.565 43.1412C264.565 42.8644 264.288 42.5876 263.734 42.3107C260.689 40.3729 257.367 38.7119 254.322 36.774C254.045 36.4972 253.768 36.4972 253.492 36.2203C253.215 36.2203 252.938 36.2203 252.661 35.9435C252.661 36.4972 252.661 37.0508 252.661 37.3277C252.661 40.9265 252.661 44.5254 252.661 48.4011C252.661 48.9548 252.938 49.5085 253.215 49.7853C255.153 51.7232 257.367 53.9378 259.305 55.8757C259.582 56.1525 259.582 56.4294 259.859 56.4294C259.582 56.983 258.198 58.3672 257.09 59.1977C255.706 57.8136 254.599 56.7062 253.215 55.322C252.938 55.0452 252.938 54.7684 252.384 55.0452C252.384 56.983 252.384 59.1977 252.384 61.4124C251 61.4124 249.893 61.4124 248.509 61.4124C248.509 59.1977 248.509 56.983 248.509 54.7684C248.232 55.0452 247.955 55.0452 247.678 55.322C246.571 56.4294 245.463 57.5367 244.079 58.9209L243.802 59.1977C242.972 58.3672 242.141 57.5367 241.034 56.4294C241.864 55.5989 242.695 54.7684 243.525 53.9378C244.91 52.5537 246.571 50.8927 247.955 49.5085C248.232 49.2316 248.232 48.9548 248.232 48.678C248.232 44.8023 248.232 40.6497 248.232 36.774C248.232 36.4972 248.232 36.2203 248.232 35.9435C247.401 36.4972 246.571 36.774 246.017 37.3277C243.249 38.9887 240.48 40.3729 237.989 42.0339C237.158 42.5876 236.605 43.1412 236.328 43.9717C235.774 46.4633 234.944 49.2316 234.39 51.7232C234.39 52 234.113 52.2768 234.113 52.8305C233.006 52.5537 231.622 52.2768 230.514 52C231.068 49.7853 231.622 47.8475 232.175 45.9096C232.175 45.9096 232.175 45.9096 231.898 45.6328C229.96 46.7401 228.299 47.8475 226.085 48.9548C225.531 47.8475 224.977 46.7401 224.147 45.6328C224.424 45.3559 224.424 45.3559 224.701 45.3559C226.362 44.5254 227.746 43.6949 229.407 42.5876C229.684 42.3107 229.961 42.3107 229.684 42.0339C227.746 41.4802 225.808 40.9265 223.87 40.3729C224.147 39.2655 224.424 37.8814 224.701 36.774C225.254 37.0508 226.085 37.0508 226.638 37.3277C228.853 37.8814 231.345 38.435 233.559 39.2655C233.836 39.2655 233.836 39.2655 234.113 39.5424C234.667 39.8192 234.944 39.5424 235.22 39.5424C238.542 37.6045 242.141 35.6667 245.463 33.7288C245.74 33.452 246.017 33.452 246.294 33.1751C245.186 32.6215 244.079 31.791 242.972 31.2373C240.48 29.8531 237.712 28.1921 235.22 26.8079C234.667 26.5311 234.39 26.5311 233.836 26.5311C230.791 27.3616 227.746 28.1921 224.701 29.0226H224.424C224.147 27.9153 223.87 26.5311 223.593 25.4237C225.531 24.8701 227.469 24.3164 229.407 23.7627C229.407 23.209 229.13 23.209 228.853 23.209C227.192 22.3785 225.531 21.2712 223.87 20.1638C224.424 19.0565 224.977 17.9492 225.808 16.8418C228.299 17.1186 230.237 18.226 232.175 19.6102C232.175 19.3333 232.175 19.0565 232.175 18.7797C231.622 17.1186 231.345 15.7345 230.791 14.0734C230.791 13.7966 230.791 13.5198 230.791 13.2429C231.898 12.9661 233.006 12.6893 234.39 12.1356C234.667 13.5198 234.944 14.6271 235.497 15.7345C235.774 17.6723 236.328 19.887 236.881 21.8249C237.158 22.3785 237.435 22.6554 237.989 22.9322C240.203 24.3164 242.695 25.4237 244.91 26.8079C246.017 27.3616 246.848 27.9153 247.955 28.4689C248.232 28.4689 248.509 28.7458 248.785 28.7458C248.785 28.4689 249.062 28.1921 249.062 28.1921C249.062 25.4237 249.062 22.6554 249.062 19.6102C249.062 18.226 249.062 17.1186 249.062 15.7345C249.062 15.4576 248.785 15.1808 248.785 14.904C247.124 13.2429 245.463 11.5819 244.079 10.1977C243.249 9.36723 242.695 8.81356 241.864 7.98305C242.695 7.15254 243.525 6.32203 244.633 5.21469C246.294 6.59887 247.678 8.25989 249.062 9.64407C249.339 9.36723 249.339 9.09039 249.339 8.81356C249.339 6.87571 249.339 4.93785 249.339 3C250.446 3 251.831 3 252.938 3C252.938 5.21469 252.938 7.15254 252.938 9.36723C253.215 9.64407 253.492 9.36723 253.768 9.09039C254.876 7.98305 255.983 6.87571 257.09 5.76836C257.367 5.49152 257.367 5.49152 257.644 5.21469C258.475 6.0452 259.305 6.87571 260.412 7.98305C260.412 7.98305 260.136 8.25989 260.136 8.53672C257.921 10.7514 255.706 12.9661 253.768 14.904C252.661 15.4576 252.384 15.7345 252.384 16.0113C252.384 20.1638 252.384 24.3164 252.384 28.1921C252.384 28.1921 252.384 28.4689 252.384 28.7458C252.661 28.7458 252.938 28.7458 253.215 28.4689C256.814 26.5311 260.136 24.5932 263.458 22.6554C264.011 22.3785 264.288 22.1017 264.288 21.548C265.119 18.7797 265.672 15.7345 266.503 12.9661C266.78 12.6893 266.78 12.6893 266.78 12.4124Z" fill="#F9F0B9"/>
<path d="M1144.07 20.7181C1144.35 20.7181 1144.35 20.7181 1144.35 20.7181C1145.46 20.9949 1146.56 21.2718 1147.67 21.5486C1147.12 23.4865 1146.56 25.7012 1146.01 27.639C1146.01 27.639 1146.01 27.639 1146.29 27.639C1148.23 26.5317 1149.89 25.4243 1152.1 24.317C1152.66 25.4243 1153.49 26.5317 1154.04 27.639C1152.38 28.7464 1150.72 29.5769 1148.78 30.6842C1148.5 30.961 1148.23 30.961 1148.23 31.2379C1150.16 31.7916 1152.1 32.3452 1154.32 32.8989C1154.04 34.2831 1153.76 35.3904 1153.21 36.4978C1152.1 36.2209 1150.99 35.9441 1149.89 35.6673C1147.95 35.1136 1145.73 34.5599 1143.8 34.0062C1143.52 34.0062 1142.97 34.0062 1142.69 34.2831C1140.47 35.6673 1137.98 37.0514 1135.77 38.4356C1134.66 38.9893 1133.55 39.8198 1132.17 40.3735C1132.17 40.3735 1131.89 40.6503 1131.62 40.9271C1131.89 40.9271 1131.89 41.204 1132.17 41.204C1134.11 42.3113 1136.32 43.4187 1138.26 44.526C1139.64 45.3565 1141.31 46.187 1142.69 47.0175C1142.97 47.2944 1143.52 47.2944 1144.07 47.2944C1147.12 46.4639 1150.16 45.6334 1153.21 44.8029H1153.49C1153.76 45.9102 1154.04 47.0175 1154.59 48.4017C1152.66 48.9554 1150.72 49.5091 1148.78 50.0627C1148.78 50.3396 1148.78 50.6164 1149.06 50.6164C1150.72 51.4469 1152.38 52.5543 1154.32 53.6616C1153.76 54.769 1152.93 55.8763 1152.38 56.9836C1150.44 55.8763 1148.5 54.769 1146.56 53.6616C1146.56 53.6616 1146.56 53.6616 1146.29 53.9384C1146.84 55.8763 1147.4 57.8141 1147.95 60.0288C1146.84 60.3057 1145.46 60.5825 1144.35 61.1362C1144.07 60.0288 1143.8 59.1983 1143.52 58.091C1142.97 55.8763 1142.41 53.6616 1141.58 51.4469C1141.58 51.1701 1141.31 50.8932 1140.75 50.6164C1137.71 48.6786 1134.38 47.0175 1131.34 45.0797C1131.06 44.8029 1130.79 44.8029 1130.51 44.526C1130.23 44.526 1129.95 44.526 1129.68 44.2492C1129.68 44.8029 1129.68 45.3565 1129.68 45.6334C1129.68 49.2322 1129.68 52.8311 1129.68 56.7068C1129.68 57.2605 1129.95 57.8141 1130.23 58.091C1132.17 60.0288 1134.38 62.2435 1136.32 64.1814C1136.6 64.4582 1136.6 64.7351 1136.88 64.7351C1136.6 65.2887 1135.21 66.6729 1134.11 67.5034C1132.72 66.1192 1131.62 65.0119 1130.23 63.6277C1129.95 63.3509 1129.95 63.074 1129.4 63.3509C1129.4 65.2887 1129.4 67.5034 1129.4 69.7181C1128.02 69.7181 1126.91 69.7181 1125.53 69.7181C1125.53 67.5034 1125.53 65.2887 1125.53 63.074C1125.25 63.3509 1124.97 63.3509 1124.69 63.6277C1123.59 64.7351 1122.48 65.8424 1121.1 67.2266L1120.82 67.5034C1119.99 66.6729 1119.16 65.8424 1118.05 64.7351C1118.88 63.9045 1119.71 63.074 1120.54 62.2435C1121.93 60.8593 1123.59 59.1983 1124.97 57.8142C1125.25 57.5373 1125.25 57.2605 1125.25 56.9836C1125.25 53.1079 1125.25 48.9554 1125.25 45.0797C1125.25 44.8029 1125.25 44.526 1125.25 44.2492C1124.42 44.8029 1123.59 45.0797 1123.03 45.6334C1120.27 47.2944 1117.5 48.6786 1115.01 50.3396C1114.18 50.8932 1113.62 51.4469 1113.34 52.2774C1112.79 54.769 1111.96 57.5373 1111.41 60.0288C1111.41 60.3057 1111.13 60.5825 1111.13 61.1362C1110.02 60.8593 1108.64 60.5825 1107.53 60.3057C1108.08 58.091 1108.64 56.1531 1109.19 54.2153C1109.19 54.2153 1109.19 54.2153 1108.92 53.9384C1106.98 55.0458 1105.32 56.1531 1103.1 57.2605C1102.55 56.1531 1101.99 55.0458 1101.16 53.9384C1101.44 53.6616 1101.44 53.6616 1101.72 53.6616C1103.38 52.8311 1104.76 52.0006 1106.42 50.8932C1106.7 50.6164 1106.98 50.6164 1106.7 50.3396C1104.76 49.7859 1102.82 49.2322 1100.89 48.6786C1101.16 47.5712 1101.44 46.187 1101.72 45.0797C1102.27 45.3565 1103.1 45.3565 1103.66 45.6334C1105.87 46.187 1108.36 46.7407 1110.58 47.5712C1110.85 47.5712 1110.85 47.5712 1111.13 47.848C1111.68 48.1249 1111.96 47.848 1112.24 47.848C1115.56 45.9102 1119.16 43.9723 1122.48 42.0345C1122.76 41.7577 1123.03 41.7577 1123.31 41.4808C1122.2 40.9271 1121.1 40.0966 1119.99 39.543C1117.5 38.1588 1114.73 36.4978 1112.24 35.1136C1111.68 34.8368 1111.41 34.8368 1110.85 34.8368C1107.81 35.6673 1104.76 36.4978 1101.72 37.3283H1101.44C1101.16 36.2209 1100.89 34.8368 1100.61 33.7294C1102.55 33.1757 1104.49 32.6221 1106.42 32.0684C1106.42 31.5147 1106.15 31.5147 1105.87 31.5147C1104.21 30.6842 1102.55 29.5769 1100.89 28.4695C1101.44 27.3622 1101.99 26.2548 1102.82 25.1475C1104.76 26.2548 1106.7 27.3622 1108.64 28.4695C1108.64 28.1927 1108.64 27.9158 1108.64 27.639C1108.08 25.978 1107.81 24.5938 1107.25 22.9328C1107.25 22.656 1107.25 22.3791 1107.25 22.1023C1108.36 21.8255 1109.47 21.5486 1110.85 20.9949C1111.13 22.3791 1111.41 23.4865 1111.96 24.5938C1112.51 26.5317 1113.07 28.4695 1113.62 30.4074C1113.9 30.961 1114.18 31.2379 1114.73 31.5147C1116.94 32.8989 1119.43 34.0062 1121.65 35.3904C1122.76 35.9441 1123.59 36.4978 1124.69 37.0514C1124.97 37.0514 1125.25 37.3283 1125.53 37.3283C1125.53 37.0514 1125.8 36.7746 1125.8 36.7746C1125.8 34.0062 1125.8 31.2379 1125.8 28.1927C1125.8 26.8085 1125.8 25.7012 1125.8 24.317C1125.8 24.0401 1125.53 23.7633 1125.53 23.4865C1123.86 21.8255 1122.2 20.1644 1120.82 18.7803C1119.99 17.9497 1119.43 17.3961 1118.6 16.5656C1119.43 15.7351 1120.27 14.9046 1121.37 13.7972C1123.03 15.1814 1124.42 16.8424 1125.8 18.2266C1126.08 17.9498 1126.08 17.6729 1126.08 17.3961C1126.08 15.4582 1126.08 13.5204 1126.08 11.5825C1127.19 11.5825 1128.57 11.5825 1129.68 11.5825C1129.68 13.7972 1129.68 15.7351 1129.68 17.9498C1129.95 18.2266 1130.23 17.9497 1130.51 17.6729C1131.62 16.5656 1132.72 15.4582 1133.83 14.3509C1134.11 14.074 1134.11 14.074 1134.38 13.7972C1135.21 14.6277 1136.05 15.4582 1137.15 16.5656C1137.15 16.5656 1136.88 16.8424 1136.88 17.1192C1134.66 19.3339 1132.45 21.5486 1130.51 23.4865C1130.23 23.7633 1130.23 24.0401 1130.23 24.317C1130.23 28.4695 1130.23 32.6221 1130.23 36.4978C1130.23 36.4978 1130.23 36.7746 1130.23 37.0514C1130.51 37.0514 1130.79 37.0514 1131.06 36.7746C1134.38 34.8368 1137.98 32.8989 1141.31 30.961C1141.86 30.6842 1142.14 30.4074 1142.14 29.8537C1142.97 27.0853 1143.52 24.0401 1144.35 21.2718C1144.07 21.2718 1144.07 20.9949 1144.07 20.7181Z" fill="#F9F0B9"/>
<path d="M715.254 41.4803C715.531 41.4803 715.531 41.4803 715.531 41.4803C716.638 41.7572 717.746 42.034 718.853 42.3108C718.299 44.2487 717.746 46.4634 717.192 48.4012C717.192 48.4012 717.192 48.4012 717.469 48.4012C719.407 47.2939 721.068 46.1865 723.282 45.0792C723.836 46.1865 724.666 47.2939 725.22 48.4012C723.559 49.5086 721.898 50.3391 719.96 51.4464C719.683 51.7233 719.407 51.7233 719.407 52.0001C721.344 52.5538 723.282 53.1074 725.497 53.6611C725.22 55.0453 724.943 56.1526 724.39 57.26C723.282 56.9831 722.175 56.7063 721.068 56.4295C719.13 55.8758 716.915 55.3221 714.977 54.7685C714.7 54.7685 714.147 54.7685 713.87 55.0453C711.655 56.4295 709.164 57.8137 706.949 59.1978C705.842 59.7515 704.734 60.582 703.35 61.1357C703.35 61.1357 703.073 61.4125 702.796 61.6894C703.073 61.6894 703.073 61.9662 703.35 61.9662C705.288 63.0735 707.503 64.1809 709.44 65.2882C710.825 66.1187 712.486 66.9492 713.87 67.7797C714.147 68.0566 714.7 68.0566 715.254 68.0566C718.299 67.2261 721.344 66.3956 724.39 65.5651H724.666C724.943 66.6724 725.22 67.7797 725.774 69.1639C723.836 69.7176 721.898 70.2713 719.96 70.8249C719.96 71.1018 719.96 71.3786 720.237 71.3786C721.898 72.2091 723.559 73.3165 725.497 74.4238C724.943 75.5312 724.113 76.6385 723.559 77.7458C721.621 76.6385 719.683 75.5312 717.746 74.4238C717.746 74.4238 717.746 74.4238 717.469 74.7006C718.022 76.6385 718.576 78.5764 719.13 80.791C718.022 81.0679 716.638 81.3447 715.531 81.8984C715.254 80.791 714.977 79.9605 714.7 78.8532C714.147 76.6385 713.593 74.4238 712.763 72.2091C712.763 71.9323 712.486 71.6555 711.932 71.3786C708.887 69.4408 705.565 67.7798 702.52 65.8419C702.243 65.5651 701.966 65.5651 701.689 65.2882C701.412 65.2882 701.135 65.2882 700.859 65.0114C700.859 65.5651 700.859 66.1187 700.859 66.3956C700.859 69.9944 700.859 73.5933 700.859 77.469C700.859 78.0227 701.135 78.5764 701.412 78.8532C703.35 80.791 705.565 83.0057 707.503 84.9436C707.779 85.2204 707.779 85.4973 708.056 85.4973C707.779 86.0509 706.395 87.4351 705.288 88.2656C703.904 86.8814 702.796 85.7741 701.412 84.3899C701.135 84.1131 701.135 83.8362 700.582 84.1131C700.582 86.0509 700.582 88.2656 700.582 90.4803C699.198 90.4803 698.09 90.4803 696.706 90.4803C696.706 88.2656 696.706 86.0509 696.706 83.8362C696.429 84.1131 696.152 84.1131 695.876 84.3899C694.768 85.4973 693.661 86.6046 692.277 87.9888L692 88.2656C691.169 87.4351 690.339 86.6046 689.231 85.4973C690.062 84.6668 690.892 83.8362 691.723 83.0057C693.107 81.6216 694.768 79.9605 696.152 78.5764C696.429 78.2995 696.429 78.0227 696.429 77.7458C696.429 73.8701 696.429 69.7176 696.429 65.8419C696.429 65.5651 696.429 65.2882 696.429 65.0114C695.599 65.5651 694.768 65.8419 694.215 66.3956C691.446 68.0566 688.678 69.4408 686.186 71.1018C685.356 71.6555 684.802 72.2091 684.525 73.0396C683.972 75.5312 683.141 78.2995 682.587 80.791C682.587 81.0679 682.311 81.3447 682.311 81.8984C681.203 81.6216 679.819 81.3447 678.712 81.0679C679.265 78.8532 679.819 76.9153 680.373 74.9775C680.373 74.9775 680.373 74.9775 680.096 74.7006C678.158 75.808 676.497 76.9153 674.282 78.0227C673.729 76.9153 673.175 75.808 672.344 74.7006C672.621 74.4238 672.621 74.4238 672.898 74.4238C674.559 73.5933 675.943 72.7628 677.604 71.6555C677.881 71.3786 678.158 71.3786 677.881 71.1018C675.943 70.5481 674.005 69.9944 672.068 69.4408C672.344 68.3334 672.621 66.9492 672.898 65.8419C673.452 66.1187 674.282 66.1187 674.836 66.3956C677.051 66.9492 679.542 67.5029 681.757 68.3334C682.034 68.3334 682.034 68.3334 682.311 68.6103C682.864 68.8871 683.141 68.6103 683.418 68.6103C686.74 66.6724 690.339 64.7346 693.661 62.7967C693.938 62.5199 694.214 62.5199 694.491 62.243C693.384 61.6894 692.277 60.8588 691.169 60.3052C688.678 58.921 685.909 57.26 683.418 55.8758C682.864 55.599 682.587 55.599 682.034 55.599C678.989 56.4295 675.943 57.26 672.898 58.0905H672.621C672.344 56.9831 672.068 55.599 671.791 54.4916C673.729 53.9379 675.666 53.3843 677.604 52.8306C677.604 52.2769 677.327 52.2769 677.051 52.2769C675.39 51.4464 673.729 50.3391 672.068 49.2317C672.621 48.1244 673.175 47.017 674.005 45.9097C675.943 47.017 677.881 48.1244 679.819 49.2317C679.819 48.9549 679.819 48.6781 679.819 48.4012C679.265 46.7402 678.988 45.356 678.435 43.695C678.435 43.4182 678.435 43.1413 678.435 42.8645C679.542 42.5877 680.65 42.3108 682.034 41.7572C682.311 43.1413 682.587 44.2487 683.141 45.356C683.695 47.2939 684.248 49.2317 684.802 51.1696C685.079 51.7233 685.356 52.0001 685.909 52.2769C688.124 53.6611 690.616 54.7685 692.83 56.1526C693.938 56.7063 694.768 57.26 695.876 57.8137C696.152 57.8137 696.429 58.0905 696.706 58.0905C696.706 57.8136 696.983 57.5368 696.983 57.5368C696.983 54.7685 696.983 52.0001 696.983 48.9549C696.983 47.5707 696.983 46.4634 696.983 45.0792C696.983 44.8024 696.706 44.5255 696.706 44.2487C695.045 42.5877 693.384 40.9266 692 39.5425C691.169 38.712 690.616 38.1583 689.785 37.3278C690.616 36.4973 691.446 35.6668 692.553 34.5594C694.214 35.9436 695.599 37.6046 696.983 38.9888C697.26 38.712 697.26 38.4351 697.26 38.1583C697.26 36.2204 697.26 34.2826 697.26 32.3447C698.367 32.3447 699.751 32.3447 700.859 32.3447C700.859 34.5594 700.859 36.4973 700.859 38.712C701.135 38.9888 701.412 38.712 701.689 38.4351C702.796 37.3278 703.904 36.2204 705.011 35.1131C705.288 34.8363 705.288 34.8363 705.565 34.5594C706.395 35.3899 707.226 36.2204 708.333 37.3278C708.333 37.3278 708.056 37.6046 708.056 37.8814C705.842 40.0961 703.627 42.3108 701.689 44.2487C701.412 44.5255 701.412 44.8024 701.412 45.0792C701.412 49.2317 701.412 53.3843 701.412 57.26C701.412 57.26 701.412 57.5368 701.412 57.8137C701.689 57.8137 701.966 57.8137 702.243 57.5368C705.565 55.599 709.164 53.6611 712.486 51.7233C713.039 51.4464 713.316 51.1696 713.316 50.6159C714.147 47.8475 714.7 44.8024 715.531 42.034C714.977 41.7572 715.254 41.7572 715.254 41.4803Z" fill="#F2DCDB"/>
<path d="M424.022 37.6048C424.299 37.6048 424.299 37.6048 424.299 37.6048C425.407 37.8817 426.514 38.1585 427.621 38.4353C427.068 40.3732 426.514 42.5879 425.96 44.5257C425.96 44.5257 425.96 44.5257 426.237 44.5257C428.175 43.4184 429.836 42.311 432.051 41.2037C432.604 42.311 433.435 43.4184 433.988 44.5257C432.327 45.6331 430.666 46.4636 428.729 47.5709C428.452 47.8478 428.175 47.8478 428.175 48.1246C430.113 48.6783 432.051 49.2319 434.265 49.7856C433.988 51.1698 433.712 52.2771 433.158 53.3845C432.051 53.1077 430.943 52.8308 429.836 52.554C427.898 52.0003 425.683 51.4466 423.745 50.893C423.469 50.893 422.915 50.893 422.638 51.1698C420.423 52.554 417.932 53.9382 415.717 55.3223C414.61 55.876 413.503 56.7065 412.118 57.2602C412.118 57.2602 411.842 57.537 411.565 57.8139C411.842 57.8139 411.842 58.0907 412.118 58.0907C414.056 59.198 416.271 60.3054 418.209 61.4127C419.593 62.2432 421.254 63.0737 422.638 63.9043C422.915 64.1811 423.469 64.1811 424.022 64.1811C427.068 63.3506 430.113 62.5201 433.158 61.6896H433.435C433.712 62.7969 433.988 63.9043 434.542 65.2884C432.604 65.8421 430.666 66.3958 428.729 66.9495C428.729 67.2263 428.729 67.5031 429.005 67.5031C430.666 68.3336 432.327 69.441 434.265 70.5483C433.712 71.6557 432.881 72.763 432.327 73.8704C430.39 72.763 428.452 71.6557 426.514 70.5483C426.514 70.5483 426.514 70.5483 426.237 70.8252C426.791 72.763 427.344 74.7009 427.898 76.9156C426.791 77.1924 425.407 77.4692 424.299 78.0229C424.022 76.9156 423.746 76.085 423.469 74.9777C422.915 72.763 422.361 70.5483 421.531 68.3336C421.531 68.0568 421.254 67.78 420.7 67.5031C417.655 65.5653 414.333 63.9043 411.288 61.9664C411.011 61.6896 410.734 61.6896 410.457 61.4127C410.181 61.4127 409.904 61.4127 409.627 61.1359C409.627 61.6896 409.627 62.2432 409.627 62.5201C409.627 66.1189 409.627 69.7178 409.627 73.5935C409.627 74.1472 409.904 74.7009 410.181 74.9777C412.118 76.9156 414.333 79.1302 416.271 81.0681C416.548 81.3449 416.548 81.6218 416.825 81.6218C416.548 82.1754 415.164 83.5596 414.056 84.3901C412.672 83.0059 411.565 81.8986 410.181 80.5144C409.904 80.2376 409.904 79.9608 409.35 80.2376C409.35 82.1754 409.35 84.3901 409.35 86.6048C407.966 86.6048 406.859 86.6048 405.474 86.6048C405.474 84.3901 405.474 82.1754 405.474 79.9608C405.197 80.2376 404.921 80.2376 404.644 80.5144C403.536 81.6218 402.429 82.7291 401.045 84.1133L400.768 84.3901C399.938 83.5596 399.107 82.7291 398 81.6218C398.83 80.7913 399.661 79.9608 400.491 79.1302C401.875 77.7461 403.536 76.085 404.921 74.7009C405.198 74.424 405.197 74.1472 405.197 73.8704C405.197 69.9947 405.197 65.8421 405.197 61.9664C405.197 61.6896 405.197 61.4127 405.197 61.1359C404.367 61.6896 403.536 61.9664 402.983 62.5201C400.214 64.1811 397.446 65.5653 394.955 67.2263C394.124 67.78 393.57 68.3336 393.294 69.1641C392.74 71.6557 391.909 74.424 391.356 76.9156C391.356 77.1924 391.079 77.4692 391.079 78.0229C389.972 77.7461 388.587 77.4692 387.48 77.1924C388.034 74.9777 388.587 73.0399 389.141 71.102C389.141 71.102 389.141 71.102 388.864 70.8252C386.926 71.9325 385.265 73.0399 383.051 74.1472C382.497 73.0399 381.943 71.9325 381.113 70.8252C381.39 70.5483 381.39 70.5483 381.666 70.5483C383.327 69.7178 384.712 68.8873 386.373 67.78C386.649 67.5031 386.926 67.5031 386.649 67.2263C384.712 66.6726 382.774 66.1189 380.836 65.5653C381.113 64.4579 381.39 63.0738 381.666 61.9664C382.22 62.2432 383.051 62.2432 383.604 62.5201C385.819 63.0737 388.31 63.6274 390.525 64.4579C390.802 64.4579 390.802 64.4579 391.079 64.7348C391.633 65.0116 391.909 64.7348 392.186 64.7348C395.508 62.7969 399.107 60.8591 402.429 58.9212C402.706 58.6444 402.983 58.6444 403.26 58.3675C402.152 57.8139 401.045 56.9834 399.938 56.4297C397.446 55.0455 394.678 53.3845 392.186 52.0003C391.633 51.7235 391.356 51.7235 390.802 51.7235C387.757 52.554 384.712 53.3845 381.666 54.215H381.39C381.113 53.1077 380.836 51.7235 380.559 50.6161C382.497 50.0625 384.435 49.5088 386.373 48.9551C386.373 48.4014 386.096 48.4014 385.819 48.4014C384.158 47.5709 382.497 46.4636 380.836 45.3562C381.39 44.2489 381.943 43.1416 382.774 42.0342C384.712 43.1416 386.649 44.2489 388.587 45.3562C388.587 45.0794 388.587 44.8026 388.587 44.5257C388.034 42.8647 387.757 41.4805 387.203 39.8195C387.203 39.5427 387.203 39.2658 387.203 38.989C388.31 38.7122 389.418 38.4353 390.802 37.8817C391.079 39.2658 391.356 40.3732 391.909 41.4805C392.463 43.4184 393.017 45.3562 393.57 47.2941C393.847 47.8478 394.124 48.1246 394.678 48.4014C396.892 49.7856 399.384 50.893 401.599 52.2771C402.706 52.8308 403.536 53.3845 404.644 53.9382C404.921 53.9382 405.197 54.215 405.474 54.215C405.474 53.9382 405.751 53.6613 405.751 53.6613C405.751 50.893 405.751 48.1246 405.751 45.0794C405.751 43.6952 405.751 42.5879 405.751 41.2037C405.751 40.9269 405.474 40.65 405.474 40.3732C403.813 38.7122 402.152 37.0512 400.768 35.667C399.938 34.8365 399.384 34.2828 398.553 33.4523C399.384 32.6218 400.214 31.7913 401.322 30.6839C402.983 32.0681 404.367 33.7291 405.751 35.1133C406.028 34.8365 406.028 34.5596 406.028 34.2828C406.028 32.3449 406.028 30.4071 406.028 28.4692C407.135 28.4692 408.52 28.4692 409.627 28.4692C409.627 30.6839 409.627 32.6218 409.627 34.8365C409.904 35.1133 410.181 34.8365 410.457 34.5596C411.565 33.4523 412.672 32.3449 413.779 31.2376C414.056 30.9608 414.056 30.9608 414.333 30.6839C415.164 31.5144 415.994 32.3449 417.101 33.4523C417.101 33.4523 416.825 33.7291 416.825 34.006C414.61 36.2206 412.395 38.4353 410.457 40.3732C410.181 40.65 410.181 40.9269 410.181 41.2037C410.181 45.3562 410.181 49.5088 410.181 53.3845C410.181 53.3845 410.181 53.6613 410.181 53.9382C410.457 53.9382 410.734 53.9382 411.011 53.6613C414.333 51.7235 417.932 49.7856 421.254 47.8478C421.808 47.5709 422.084 47.2941 422.084 46.7404C422.915 43.9721 423.469 40.9269 424.299 38.1585C424.022 37.8817 424.022 37.6048 424.022 37.6048Z" fill="#D7E8E6"/>
<path d="M113.966 195.954C106.492 199 99.5706 201.491 93.2034 202.875C86.0056 204.536 79.0847 205.644 72.1638 205.644C58.0452 205.644 47.5254 202.045 40.3277 195.124C33.1299 188.203 29.5311 178.237 29.5311 165.226C29.5311 153.045 31.4689 142.248 35.3446 133.389C39.2203 124.531 44.4802 117.61 50.8475 113.18C57.2147 108.474 64.1356 106.259 71.0565 106.259C81.2994 106.259 86.5593 111.243 86.5593 120.932C86.5593 122.87 86.2825 125.361 85.7288 128.683C85.7288 129.237 85.7288 129.514 85.452 129.791C92.096 131.452 99.0169 132.836 105.938 133.113C107.322 129.791 107.876 125.638 107.876 120.655C107.876 110.966 104.83 103.214 99.0169 97.1239C92.9265 91.3103 84.3446 88.2651 72.7175 88.2651C60.2599 88.2651 48.9096 91.5872 38.9435 98.2312C28.9774 104.875 20.9492 114.011 14.8588 126.192C9.0452 138.372 6 152.491 6 168.271C6 179.621 8.49153 189.587 13.4746 198.169C18.4576 206.751 25.6554 213.395 35.0678 218.101C44.7571 222.531 55.8305 224.745 68.565 224.745C76.0395 224.745 83.7909 223.915 91.8192 222.531C97.3559 221.423 102.616 220.039 107.876 218.101C110.367 210.904 112.305 203.429 113.966 195.954Z" fill="#F2DCDB"/>
<path d="M185.667 218.378C188.712 211.458 189.266 203.706 190.65 196.508C190.65 195.678 190.927 194.847 190.927 194.294C187.328 198.446 184.56 201.492 182.345 203.429C179.3 205.921 176.808 207.305 174.593 207.305C173.209 207.305 172.102 206.751 171.271 205.644C170.441 204.537 169.887 202.876 169.887 200.938C169.887 197.616 171.271 189.311 174.317 175.469C177.085 163.565 177.916 156.09 178.192 153.599C178.469 151.938 178.469 151.384 178.469 150.277L170.995 150H162.136C161.582 151.661 160.475 155.26 159.644 158.305C157.706 166.056 156.045 172.424 154.938 177.684H134.452C135.283 172.701 136.113 168.271 136.944 164.949C138.051 158.859 138.882 155.26 139.435 153.322C139.712 151.661 139.989 150 139.989 150C139.989 150 133.345 149.723 131.407 149.723C127.254 149.723 123.102 150 123.102 150C122.548 151.107 121.164 155.26 119.78 158.305C115.351 170.763 112.859 184.328 112.859 198.169C112.859 207.582 113.136 213.672 113.966 218.655C114.52 221.701 114.52 221.701 114.797 223.915H131.961C131.961 223.915 131.961 220.316 131.961 217.548C131.961 214.78 132.238 210.073 132.514 203.706V199.83C132.514 198.723 132.514 196.508 132.791 193.463C136.39 193.74 143.034 193.74 152.447 193.74C151.893 197.893 151.616 201.215 151.616 204.26C151.616 211.181 152.723 216.164 154.938 219.763C157.153 223.085 161.028 225.023 166.565 225.023C173.209 225.023 179.023 223.085 184.283 219.486C184.836 219.209 185.113 218.932 185.667 218.378C185.39 218.378 185.39 218.378 185.667 218.378Z" fill="#F2DCDB"/>
<path d="M265.119 188.48C265.949 189.865 266.226 191.526 266.226 193.74C266.226 198.17 265.119 201.492 263.181 203.706C259.028 208.689 253.492 213.119 246.294 217.271C239.096 221.424 231.068 223.362 222.763 223.362C211.412 223.362 202.554 220.317 196.186 213.949C189.819 207.859 186.774 199.277 186.774 188.48C186.774 181.006 188.435 174.085 191.48 167.441C194.525 161.074 198.955 155.814 204.492 151.938C210.028 148.062 216.395 146.125 223.593 146.125C229.96 146.125 234.944 148.062 238.819 151.661C242.695 155.537 244.633 160.52 244.633 166.887C244.633 174.362 241.864 180.729 236.605 186.266C231.345 191.802 222.209 195.955 209.198 199C211.966 203.983 216.949 206.475 224.701 206.475C229.684 206.475 235.22 204.814 241.311 201.215C247.678 197.893 249.616 195.401 255.706 189.034C258.198 186.266 260.412 185.435 262.073 185.435C263.181 186.543 264.288 187.096 265.119 188.48ZM210.305 169.932C207.537 174.639 206.153 180.175 206.153 186.819V187.096C212.52 185.712 217.503 183.221 221.379 180.175C224.977 177.13 226.915 173.531 226.915 169.656C226.915 167.718 226.362 166.057 225.254 164.673C224.147 163.288 222.486 162.735 220.548 162.735C216.672 162.735 213.073 165.226 210.305 169.932Z" fill="#F2DCDB"/>
<path d="M321.87 193.463L316.334 189.864C314.673 189.864 316.334 189.864 316.334 189.864C311.627 195.678 308.029 199 302.215 202.876C295.571 207.028 287.543 208.966 281.175 208.966C277.023 208.966 273.978 208.412 272.317 207.582C270.656 206.751 269.825 205.09 269.825 202.599C269.825 199.83 270.932 197.339 273.147 195.678C275.362 194.017 278.684 191.802 283.39 189.587C287.543 187.373 291.142 185.435 293.91 183.774C296.678 181.836 298.893 179.621 300.831 176.299C302.769 173.254 303.599 169.378 303.599 164.672C303.599 159.412 301.661 155.26 297.509 152.491C293.356 149.723 287.266 148.339 279.238 148.339C275.085 148.339 270.656 148.893 266.503 150.277C262.351 151.661 259.582 153.045 257.091 154.429C253.769 156.644 251.277 158.859 251.277 158.859L258.198 169.932C259.305 169.378 261.52 168.271 262.904 167.717C264.012 167.164 264.842 166.61 266.226 166.056C268.164 164.949 270.102 164.395 271.486 163.565C273.147 163.011 274.808 162.734 277.023 162.734C279.238 162.734 280.899 163.011 282.283 163.842C283.39 164.672 283.944 165.78 283.944 167.164C283.944 169.655 282.836 171.87 280.899 173.531C278.961 175.192 275.639 177.407 271.209 179.621C267.057 181.836 263.458 184.051 260.413 185.989C257.644 188.203 255.153 190.695 253.215 194.017C252.938 194.294 252.938 194.57 252.938 194.847C258.752 190.972 268.995 195.124 265.949 203.429C263.735 209.52 261.243 215.887 258.475 221.977C263.458 225.022 270.656 226.683 279.791 226.683C288.65 226.683 296.955 225.022 304.43 221.424C311.904 217.825 315.503 215.056 321.317 208.689C324.085 205.644 326.853 202.045 329.068 198.169L321.87 193.463Z" fill="#F2DCDB"/>
<path d="M578.774 194.293L577.944 195.124C574.068 199.83 571.023 203.152 569.085 205.09C567.147 207.028 565.209 207.858 563.271 207.858C558.565 207.858 556.35 202.321 556.35 190.971C556.35 187.095 556.35 180.728 556.627 171.593L557.181 159.689C557.458 156.367 557.458 151.937 557.458 149.999L545.277 149.446L534.757 149.169C533.927 151.107 531.712 156.367 529.774 160.796C527.836 165.225 525.898 170.762 523.407 176.576C520.915 182.389 518.147 187.649 515.655 192.355C512.333 198.446 510.119 202.598 508.735 203.982C507.35 205.644 506.243 206.474 505.136 206.474C503.198 206.474 502.367 204.536 502.367 200.66C502.367 199.553 502.644 197.892 502.921 195.677C496.831 195.677 490.74 196.231 484.65 196.785C484.096 198.723 483.819 200.937 483.819 203.152C483.819 209.242 485.48 214.225 488.526 218.101C491.571 221.977 496 223.915 501.26 223.915C509.288 223.915 516.486 220.039 522.576 212.288C528.944 204.536 534.204 193.74 538.356 179.344H538.633C538.079 184.05 538.079 189.033 538.079 194.016C538.079 203.982 539.463 211.457 541.955 216.44C544.723 221.423 549.153 223.915 555.52 223.915C560.226 223.915 564.655 223.084 568.531 221.146C571.853 219.485 574.898 217.547 577.39 215.333C578.497 208.689 579.328 201.491 578.774 194.293Z" fill="#D7E8E6"/>
<path d="M654.904 190.141C655.734 191.525 656.011 193.186 656.011 195.401C656.011 199.553 654.904 202.875 652.966 205.367C649.09 210.073 643.554 214.502 636.079 218.655C628.881 222.807 621.13 224.745 612.825 224.745C601.475 224.745 592.893 221.7 586.525 215.61C580.435 209.519 577.113 201.214 577.113 190.694C577.113 183.22 578.774 176.576 581.819 170.208C584.864 163.841 589.294 158.858 594.831 154.982C600.367 151.107 606.458 149.446 613.655 149.446C619.746 149.446 624.729 151.384 628.605 154.982C632.203 158.581 634.141 163.564 634.141 169.932C634.141 177.406 631.373 183.773 626.113 189.033C620.853 194.293 611.994 198.446 599.26 201.768C602.028 206.751 607.011 209.242 614.486 209.242C619.192 209.242 624.729 207.581 630.819 204.259C636.91 200.937 642.17 196.508 646.876 190.971C648.26 189.587 649.644 188.756 651.305 188.756C652.966 188.203 654.073 188.756 654.904 190.141ZM591.232 135.604C589.294 133.666 588.463 130.898 588.463 126.745C588.463 122.593 589.571 118.994 591.785 116.779C594 114.288 597.045 113.18 600.921 113.18C604.243 113.18 607.011 114.011 608.949 115.949C610.887 117.886 611.718 120.655 611.718 124.807C611.718 128.96 610.61 132.559 608.396 134.773C606.181 137.265 603.136 138.372 599.26 138.372C595.661 138.649 593.17 137.542 591.232 135.604ZM600.921 171.869C598.153 176.576 596.768 182.112 596.768 188.48V188.756C603.136 187.372 608.119 184.881 611.718 182.112C615.316 179.067 617.254 175.745 617.254 171.593C617.254 169.655 616.701 167.994 615.593 166.61C614.486 165.502 612.825 164.672 610.887 164.672C607.011 164.949 603.689 167.163 600.921 171.869ZM624.452 135.604C622.514 133.666 621.684 130.898 621.684 126.745C621.684 122.593 622.791 118.994 625.006 116.779C627.22 114.288 630.266 113.18 634.141 113.18C637.463 113.18 640.232 114.011 642.17 115.949C644.107 117.886 644.938 120.655 644.938 124.807C644.938 128.96 643.831 132.559 641.616 134.773C639.401 137.265 636.356 138.372 632.48 138.372C629.158 138.649 626.39 137.542 624.452 135.604Z" fill="#D7E8E6"/>
<path d="M716.085 192.91C709.994 197.063 703.627 201.769 696.983 206.752C697.537 203.43 698.09 200.108 698.644 197.063C699.198 194.017 699.474 191.249 700.028 188.757C702.243 175.193 703.627 166.887 703.904 163.565C703.904 162.735 704.181 161.628 704.181 160.52C704.457 157.752 705.011 155.26 705.011 155.26H696.706H689.508C688.401 153.046 687.294 149.447 687.294 149.447C687.294 149.447 685.079 148.893 682.864 148.893C675.39 148.893 668.469 151.108 661.825 155.814C655.181 160.52 649.921 166.611 646.045 174.362C642.169 182.113 640.232 190.142 640.232 198.724C640.232 206.475 642.169 212.842 646.045 217.548C649.921 222.255 655.181 224.746 661.825 224.746C664.593 224.746 667.638 223.916 670.684 222.531C673.729 220.87 675.943 218.656 677.881 215.887L677.051 222.255C660.441 234.989 649.367 245.786 643.277 254.368C637.186 262.95 634.418 271.255 634.418 278.729C634.418 284.266 636.079 288.695 639.678 292.017C643 295.339 647.429 297 652.966 297C663.209 297 671.514 290.633 678.158 277.899C684.802 265.164 690.062 247.724 694.215 225.577L704.458 218.656C708.61 215.887 714.977 211.458 723.282 205.644C720.791 201.492 718.299 197.063 716.085 192.91ZM663.486 271.808C660.164 278.176 657.119 281.498 654.35 281.498C652.689 281.498 651.582 280.944 651.028 279.837C650.198 278.729 649.921 277.068 649.921 275.407C649.921 271.255 651.859 266.272 655.458 260.458C659.056 254.921 665.147 248.554 673.175 241.356C670.13 255.198 666.808 265.441 663.486 271.808ZM679.542 191.249C678.712 196.786 677.051 201.215 674.836 203.983C672.621 207.029 670.13 208.413 667.638 208.413C665.424 208.413 663.486 207.582 662.102 205.921C660.717 204.26 660.164 201.769 660.164 198.447C660.164 192.356 661.271 186.82 663.486 181.56C665.7 176.3 668.746 171.87 672.345 168.548C676.22 165.226 680.096 163.565 684.525 163.565L679.542 191.249Z" fill="#D7E8E6"/>
<path d="M835.401 173.531C830.418 174.638 825.712 175.469 821.836 175.746C821.006 167.717 818.237 161.073 813.808 155.813C809.379 150.277 806.334 149.723 799.413 149.169C806.887 136.712 809.656 128.407 812.978 119.825C816.3 111.243 817.961 102.384 817.961 93.8021C817.961 87.1581 816.576 81.6213 813.531 77.4688C810.486 73.3162 806.61 71.1016 801.627 71.1016C792.492 71.1016 784.74 76.9151 778.096 88.2654C771.452 99.6157 766.469 113.457 763.147 129.791C759.825 146.124 757.887 161.073 757.887 174.915C757.887 190.418 760.379 202.599 765.362 210.627C770.345 218.932 778.096 223.085 788.893 223.085C796.091 223.085 802.735 220.316 808.548 214.78C814.362 209.243 818.514 202.045 820.729 193.186C827.927 192.909 834.848 191.525 840.938 189.587C839.277 184.051 837.339 178.791 835.401 173.531ZM783.91 122.039C786.124 111.243 788.339 102.384 790.831 96.0168C793.322 89.6496 795.537 86.6044 797.752 86.6044C799.136 86.6044 800.243 87.4349 801.074 89.3727C801.904 91.3106 802.181 93.8021 802.181 97.1242C802.181 104.876 799.966 113.734 795.814 123.424C791.661 133.39 785.848 144.74 778.927 157.751C780.034 145.017 781.695 133.113 783.91 122.039ZM798.305 201.215C795.814 203.983 792.769 205.367 789.447 205.367C786.401 205.367 783.633 203.706 781.418 200.661C779.204 197.339 778.096 192.909 778.096 186.819C778.096 179.621 779.48 173.808 782.526 169.378C785.571 164.949 789.17 163.011 793.599 163.011H794.153C793.599 165.503 793.599 167.717 793.599 169.102C793.599 173.254 794.43 177.13 796.367 180.729C798.028 184.328 800.797 187.373 804.119 189.587C804.119 189.864 817.684 192.356 817.407 192.909C817.407 193.186 802.735 195.401 802.458 195.678C800.52 198.169 800.52 198.723 798.305 201.215Z" fill="#F2DCDB"/>
<path d="M1051.33 192.634C1048.56 195.679 1046.07 197.894 1043.86 199.278C1040.54 201.492 1037.21 202.6 1033.62 202.6C1028.91 202.6 1025.59 199.001 1023.37 191.526C1021.43 184.052 1020.33 173.809 1020.33 160.521C1020.33 145.571 1021.71 124.532 1024.2 97.402C1024.76 93.2494 1025.31 87.159 1025.31 87.159L1011.75 86.3285L1000.95 85.7749C1000.95 85.7749 1000.12 86.8822 999.011 89.3737C998.181 91.3116 997.073 93.5263 995.412 97.402C988.768 111.521 982.401 126.47 976.587 142.526C970.774 158.583 966.344 172.425 963.576 184.329H963.299C960.808 161.074 959.424 140.588 959.424 123.425C959.424 115.95 959.7 107.922 960.254 98.7862L961.085 86.3285C955.825 86.3285 933.678 85.2212 933.678 85.2212C933.678 85.2212 931.74 92.9726 930.909 97.6788C926.203 123.148 921.497 143.634 917.621 158.86C913.469 174.362 909.593 185.436 905.717 192.357C901.842 199.278 897.966 202.877 893.813 202.877C890.491 202.877 888 201.769 885.785 199.831C884.124 198.17 882.74 195.679 881.909 192.91C876.096 195.402 870.282 197.617 864.192 199.001C864.746 202.323 865.576 205.645 867.237 208.69C869.452 212.843 873.051 215.888 877.203 218.379C881.633 220.871 886.616 221.978 892.152 221.978C902.395 221.978 910.7 217.826 917.068 209.797C923.435 201.769 928.141 191.803 931.463 179.622C934.785 167.718 938.661 150.831 942.813 129.515H943.09C942.537 134.775 942.536 140.865 942.536 148.063C942.536 160.244 943.367 172.425 944.751 184.329C946.135 196.232 948.35 206.475 951.118 215.057C952.503 220.317 953.056 219.487 953.056 219.487L969.666 219.764C969.666 219.764 971.051 217.272 972.158 213.95C982.124 182.944 992.367 152.492 1002.89 123.148H1003.16C1000.67 140.035 999.565 154.707 999.565 166.888C999.565 184.605 1002.06 198.17 1006.76 207.583C1011.75 216.995 1018.67 221.701 1028.08 221.701C1034.17 221.701 1039.98 220.04 1045.52 216.995C1047.46 215.888 1049.4 214.504 1051.33 212.843C1051.61 206.199 1051.61 199.278 1051.33 192.634Z" fill="#F9F0B9"/>
<path d="M1136.88 173.254C1137.71 174.638 1137.98 176.299 1137.98 178.514C1137.98 183.774 1136.32 186.819 1133.28 187.649C1126.91 189.864 1119.71 191.248 1111.96 191.525C1110.02 200.384 1105.87 207.582 1100.06 213.118C1093.97 218.655 1087.32 221.147 1079.57 221.147C1073.2 221.147 1067.67 219.486 1063.24 216.44C1058.81 213.395 1055.21 209.243 1052.99 203.983C1050.78 198.723 1049.4 193.186 1049.4 187.373C1049.4 179.344 1051.06 171.87 1054.1 165.502C1057.15 159.135 1061.58 154.152 1066.84 150.553C1072.37 146.954 1078.46 145.293 1084.83 145.293C1092.86 145.293 1099.5 148.062 1104.49 153.599C1109.47 159.135 1112.24 166.056 1113.34 174.361C1118.33 174.084 1124.42 172.977 1131.34 171.039C1132.17 170.762 1133 170.762 1133.55 170.762C1134.94 171.316 1136.04 171.87 1136.88 173.254ZM1090.09 200.384C1092.3 197.892 1092.58 197.062 1093.69 194.57C1093.97 194.017 1106.15 190.971 1105.59 190.971C1101.99 190.971 1096.73 189.31 1095.07 188.203C1091.75 185.988 1089.26 182.943 1087.32 179.344C1085.66 175.745 1084.55 171.87 1084.55 167.717C1084.55 166.056 1084.83 164.395 1085.11 162.457H1084.28C1080.12 162.457 1076.52 164.395 1073.48 168.548C1070.71 172.7 1069.33 178.514 1069.33 185.988C1069.33 191.802 1070.43 196.508 1072.65 199.553C1074.86 202.599 1077.63 204.26 1080.68 204.26C1084.55 204.536 1087.6 203.152 1090.09 200.384Z" fill="#F9F0B9"/>
<path d="M1176.74 215.887C1179.23 207.305 1182.55 199 1184.77 190.418C1180.62 194.848 1176.74 198.17 1172.59 200.661C1167.6 203.706 1162.9 205.091 1158.47 205.091C1147.67 205.091 1142.14 199 1142.14 186.543C1142.14 182.113 1142.69 177.961 1144.07 174.085C1145.46 170.209 1147.12 167.441 1149.33 165.226C1151.55 163.012 1153.76 161.904 1156.25 161.904C1157.64 161.904 1158.47 162.181 1159.3 163.012C1160.13 163.842 1160.41 164.949 1160.41 166.334C1160.41 167.718 1160.41 168.271 1160.13 169.932C1159.85 171.317 1159.58 172.147 1159.3 172.978C1159.02 174.085 1158.19 176.3 1157.64 177.684L1170.1 182.39C1170.1 182.39 1171.76 179.622 1173.42 176.023C1174.8 172.701 1176.46 169.102 1176.46 164.673C1176.46 159.136 1174.8 154.706 1171.48 151.384C1168.16 147.786 1163.73 146.125 1157.64 146.125C1151.55 146.125 1146.01 147.786 1140.47 151.384C1134.94 154.983 1130.51 159.966 1127.19 166.334C1125.8 169.102 1124.69 171.87 1123.86 174.915C1131.34 171.317 1140.47 181.56 1133.28 188.48C1129.95 191.802 1126.36 194.848 1123.03 198.17C1124.42 203.706 1126.91 208.689 1130.79 212.565C1136.6 218.379 1144.9 221.424 1155.15 221.424C1161.79 221.424 1168.43 219.763 1175.36 216.441C1175.63 216.164 1176.19 215.887 1176.74 215.887Z" fill="#F9F0B9"/>
<path d="M1260.34 192.633C1260.34 192.633 1260.07 192.633 1260.34 192.633L1260.9 189.034C1256.47 194.294 1252.04 198.723 1249.27 200.938C1246.23 203.43 1242.63 204.814 1238.75 204.814C1233.77 204.814 1229.89 203.153 1227.12 199.554C1224.36 195.955 1223.25 191.526 1223.25 185.712C1223.25 181.56 1223.8 177.407 1225.19 173.808C1226.29 170.209 1227.96 167.164 1230.17 164.949C1232.38 162.735 1234.32 161.627 1236.54 161.627C1239.31 161.627 1240.69 163.012 1240.69 166.057C1240.69 167.441 1240.41 169.379 1239.86 171.04C1239.86 171.593 1239.03 173.254 1238.75 174.362C1238.47 175.192 1237.64 178.238 1237.64 178.238C1239.31 178.791 1248.72 180.729 1250.93 180.729C1251.21 180.729 1252.04 179.345 1253.7 176.023C1255.36 172.701 1256.75 169.102 1256.75 164.673C1256.75 159.136 1255.08 154.706 1252.04 151.384C1248.99 147.786 1244.57 146.125 1239.03 146.125C1230.72 146.125 1223.53 149.447 1217.71 155.814C1211.9 162.181 1206.92 172.978 1203.04 187.927C1203.32 183.774 1203.59 179.622 1204.15 176.023C1204.7 172.424 1205.25 169.379 1206.08 166.61C1206.92 163.842 1207.19 162.181 1207.47 161.35C1209.13 155.26 1209.96 151.661 1210.51 150L1211.34 146.678C1211.34 146.678 1204.15 146.401 1202.21 146.401C1198.33 146.401 1193.35 146.678 1193.35 146.678C1193.35 146.678 1191.41 151.938 1190.58 154.983C1186.71 167.441 1184.77 180.729 1184.77 194.571C1184.77 203.983 1185.6 210.627 1186.98 215.057C1188.09 218.932 1188.37 220.317 1188.37 220.317L1204.7 220.04C1204.7 220.04 1206.08 214.503 1207.19 210.351C1208.58 205.091 1209.41 202.322 1209.68 201.492C1210.51 204.26 1212.18 207.305 1214.67 210.351C1217.16 213.396 1220.48 216.164 1224.63 218.379C1228.79 220.593 1233.21 221.701 1238.47 221.701C1244.57 221.701 1250.1 220.04 1254.81 216.441C1255.64 215.887 1256.47 214.78 1257.58 214.226C1257.85 206.752 1259.24 199.831 1260.34 192.633Z" fill="#F9F0B9"/>
<path d="M1266.71 141.696C1268.37 142.249 1270.03 143.357 1271.14 145.018C1275.29 144.464 1278.89 142.526 1282.21 139.204C1283.04 132.837 1283.88 127.023 1284.98 121.21C1287.2 110.413 1289.41 101.554 1291.9 95.1872C1294.4 88.82 1296.61 85.7748 1298.82 85.7748C1300.21 85.7748 1301.32 86.6053 1302.15 88.5431C1302.98 90.481 1303.25 92.9725 1303.25 96.2945C1303.25 104.046 1301.04 112.905 1296.89 122.594C1295.23 126.47 1293.29 130.345 1291.35 134.775C1293.01 135.052 1294.67 135.882 1295.78 136.989C1298.27 139.481 1298.55 142.526 1297.44 145.571C1304.91 136.159 1310.17 127.3 1313.5 118.718C1316.82 110.136 1318.48 101.278 1318.48 92.6957C1318.48 86.0516 1317.1 80.5149 1314.05 76.3623C1311.01 72.2098 1307.13 69.9951 1302.15 69.9951C1293.01 69.9951 1285.26 75.8087 1278.62 87.159C1271.97 98.5092 1266.99 112.351 1263.67 128.684C1262.56 133.391 1262.01 137.82 1261.17 142.249C1263.39 141.419 1264.77 141.142 1266.71 141.696Z" fill="#F9F0B9"/>
<path d="M1346.72 173.531C1345.89 172.147 1344.78 171.317 1343.4 171.317C1342.56 171.317 1341.73 171.317 1341.18 171.593C1334.26 173.531 1328.17 174.362 1323.19 174.915C1322.36 166.887 1319.59 160.243 1315.16 154.983C1310.73 149.723 1304.92 146.678 1297.99 146.125C1297.72 147.232 1297.16 148.062 1296.33 148.893C1287.2 160.243 1274.46 163.288 1260.62 161.074C1260.34 161.074 1260.07 160.797 1259.51 160.797C1259.24 164.949 1258.96 169.379 1258.96 173.254C1258.96 188.757 1261.45 200.938 1266.43 208.966C1271.42 217.271 1279.17 221.424 1289.97 221.424C1297.16 221.424 1303.81 218.656 1309.62 213.119C1315.43 207.582 1319.59 200.384 1321.8 191.526C1329.55 191.249 1336.47 189.865 1343.12 187.65C1344.78 187.096 1345.89 185.989 1346.72 184.605C1347.55 183.221 1347.82 181.006 1347.82 178.514C1347.82 176.853 1347.27 174.915 1346.72 173.531ZM1299.66 200.384C1297.16 203.153 1294.12 204.537 1290.8 204.537C1287.75 204.537 1284.98 202.876 1282.77 199.831C1280.55 196.509 1279.45 192.079 1279.45 185.989C1279.45 178.791 1280.83 172.978 1283.88 168.548C1286.92 164.119 1290.52 162.181 1294.95 162.181H1295.5C1294.95 164.673 1294.95 166.887 1294.95 168.271C1294.95 172.424 1295.78 176.3 1297.72 179.899C1299.38 183.497 1301.59 186.543 1304.92 188.48C1307.96 190.695 1319.59 192.079 1319.59 192.356C1319.59 192.91 1303.53 195.955 1303.25 196.232C1301.59 198.17 1301.59 198.17 1299.66 200.384Z" fill="#F9F0B9"/>
<path d="M1400.42 195.401C1399.04 194.293 1397.66 193.186 1396.27 192.079C1392.95 195.401 1389.35 198.169 1385.2 200.384C1379.11 203.706 1373.57 205.367 1368.86 205.367C1361.39 205.367 1356.41 202.875 1353.64 197.892C1366.37 194.847 1375.23 190.695 1380.49 185.158C1385.75 179.898 1388.52 173.531 1388.52 166.056C1388.52 159.689 1386.58 154.706 1382.98 151.107C1379.11 147.508 1374.12 145.57 1368.03 145.57C1361.11 145.57 1354.75 147.508 1349.21 151.107C1343.67 154.983 1339.52 159.966 1336.2 166.333C1335.09 168.825 1333.98 171.593 1333.43 174.084C1338.97 172.423 1344.78 177.406 1344.5 182.943C1344.5 183.22 1344.5 183.22 1344.5 183.497C1344.5 184.051 1344.23 184.881 1343.95 185.435C1343.67 185.988 1343.12 186.819 1342.56 187.373C1342.29 187.649 1342.29 187.926 1342.01 187.926C1342.01 187.926 1342.01 187.926 1341.73 188.203C1340.35 189.31 1338.97 190.418 1337.86 191.802C1336.2 193.463 1334.54 195.124 1332.88 197.062C1334.26 202.875 1337.03 207.858 1340.9 211.734C1346.99 217.825 1355.85 220.87 1367.2 220.87C1375.51 220.87 1383.26 218.932 1390.46 214.779C1397.66 210.627 1403.19 206.197 1407.34 201.491V201.214C1404.58 200.107 1402.36 197.892 1400.42 195.401ZM1350.87 185.435C1350.87 178.791 1352.25 173.254 1355.02 168.825C1357.79 164.118 1361.11 161.904 1364.99 161.904C1366.93 161.904 1368.31 162.457 1369.69 163.841C1370.8 164.949 1371.36 166.61 1371.36 168.825C1371.36 172.7 1369.42 176.299 1365.82 179.344C1362.22 182.39 1357.24 184.604 1350.87 185.988V185.435Z" fill="#F9F0B9"/>
<path d="M1319.03 96.0171C1315.16 91.5877 1304.64 93.5256 1303.25 101.277C1300.49 115.672 1288.58 147.232 1270.03 136.435C1268.93 135.881 1275.29 141.418 1274.19 141.141C1271.14 117.887 1255.08 100.723 1230.17 94.9097C1212.45 90.7572 1196.4 94.3561 1180.34 101.277C1142.14 117.887 1108.08 122.04 1076.25 88.8193C1072.37 92.9719 1068.5 96.8476 1064.62 101C1083.45 120.379 1107.53 132.283 1135.21 132.559C1146.84 132.559 1158.47 129.237 1169.54 124.808C1176.46 122.04 1182.28 119.548 1188.92 116.503C1219.93 103.768 1260.9 114.565 1260.07 150.831C1271.14 155.814 1287.75 154.429 1297.72 146.955C1306.02 140.588 1310.73 131.729 1314.33 122.04C1317.37 114.011 1319.03 102.938 1319.03 96.0171Z" fill="#F9F0B9"/>
<path d="M460.841 206.197C456.412 211.734 451.429 216.44 446.169 220.039C440.909 223.638 434.819 225.576 428.175 225.576C422.915 225.576 419.316 223.638 416.824 219.762C414.333 215.887 413.226 210.35 413.226 203.152C411.288 210.35 406.582 215.887 402.983 220.039C399.384 223.915 395.508 225.853 391.356 225.853C386.649 225.853 382.497 223.638 379.452 219.209C378.067 217.271 377.237 215.333 376.406 213.118C374.745 208.135 375.299 196.508 376.683 190.141C384.158 180.728 386.373 178.237 389.695 171.039L378.898 177.129C379.452 174.084 380.282 171.039 381.389 167.717C382.22 164.949 382.774 162.18 383.881 159.135C384.988 155.813 386.373 151.937 387.203 150.553L395.785 150.83L404.644 151.107C404.644 151.107 404.367 152.768 404.09 154.706C403.813 155.536 403.26 158.581 402.152 163.565C401.045 167.44 400.214 171.039 399.661 174.361C397.446 185.711 396.339 193.186 396.339 196.785C396.339 199 396.615 200.661 397.169 201.491C397.723 202.322 398.553 202.875 399.661 202.875C401.322 202.875 403.26 201.214 405.751 198.169C408.243 194.847 410.734 190.141 413.502 183.497C416.271 176.853 418.762 168.824 421.531 159.412C422.361 156.09 423.745 151.384 423.745 151.384L432.05 151.661L440.632 152.214C440.632 153.045 440.356 153.322 440.356 154.706C440.079 157.474 438.695 164.949 435.926 176.853C432.881 190.418 431.497 199 431.497 202.322C431.497 204.259 432.05 205.92 432.881 207.028C433.711 208.135 434.819 208.689 436.203 208.689C438.418 208.689 440.909 207.305 443.954 204.813C446.446 202.598 449.491 199.276 453.367 194.847C453.921 195.677 454.474 196.508 455.028 197.339C455.305 197.892 455.858 198.723 456.135 199.276C457.796 201.768 459.18 203.706 460.841 206.474C460.565 205.92 460.565 205.92 460.841 206.197Z" fill="#D7E8E6"/>
<path d="M372.254 164.118C371.978 138.926 355.091 109.305 330.729 101.276C313.565 95.4629 296.955 96.5702 280.622 103.214C240.757 118.994 206.706 117.056 178.192 81.3442C174.04 84.9431 169.61 88.8188 165.458 92.4177C182.345 113.457 205.322 127.576 232.729 130.344C244.356 131.452 256.26 129.237 267.61 125.915C274.808 123.977 280.898 122.039 287.819 119.548C323.254 105.983 350.661 127.299 354.814 159.966C355.644 166.333 355.091 172.977 352.876 179.067C352.322 180.452 351.768 181.836 350.938 183.22L363.672 190.971C377.791 183.497 389.695 170.762 389.695 170.762L387.203 150.276C380.283 159.135 372.254 164.118 372.254 164.118Z" fill="#D7E8E6"/>
</g>
<defs>
<filter id="filter0_d_337_2370" x="0" y="0" width="1413.34" height="306" filterUnits="userSpaceOnUse" color-interpolation-filters="sRGB">
<feFlood flood-opacity="0" result="BackgroundImageFix"/>
<feColorMatrix in="SourceAlpha" type="matrix" values="0 0 0 0 0 0 0 0 0 0 0 0 0 0 0 0 0 0 127 0" result="hardAlpha"/>
<feOffset dy="3"/>
<feGaussianBlur stdDeviation="3"/>
<feComposite in2="hardAlpha" operator="out"/>
<feColorMatrix type="matrix" values="0 0 0 0 0.0732292 0 0 0 0 0.206283 0 0 0 0 0.475 0 0 0 0.58 0"/>
<feBlend mode="normal" in2="BackgroundImageFix" result="effect1_dropShadow_337_2370"/>
<feBlend mode="normal" in="SourceGraphic" in2="effect1_dropShadow_337_2370" result="shape"/>
</filter>
</defs>
</svg>
