<svg width="161" height="30" viewBox="0 0 161 30" fill="none" xmlns="http://www.w3.org/2000/svg">
<g clip-path="url(#clip0_427_2313)">
<path d="M24.4642 0.527588L15.8606 16.5075L7.18216 0.527588H0V29.3216H5.3118V7.68839L13.6162 23.2914H18.105L26.4094 7.68839V29.3216H31.6464V0.527588H24.4642Z" fill="white"/>
<path d="M47.9558 29.397H42.1203L45.4869 22.0854L34.4893 0.603027H40.9233L48.4795 15.9799L55.0631 0.603027H60.8986L47.9558 29.397Z" fill="white"/>
<path d="M84.7644 0.527588H102.346V5.50246H90.0762V12.3618H99.7272V17.3366H90.0762V24.3467H102.346V29.3216H84.7644V0.527588Z" fill="white"/>
<path d="M134.067 15.0754C134.067 23.4422 127.483 30 118.954 30C110.426 30 103.842 23.3668 103.842 15.0754C103.842 6.70854 110.351 0 118.954 0C127.483 0 134.067 6.70854 134.067 15.0754ZM128.755 15C128.755 9.57286 124.715 5.05025 118.954 5.05025C113.269 5.05025 109.154 9.57286 109.154 15C109.154 20.5025 113.269 25.1005 118.88 25.1005C124.715 25.0251 128.755 20.4271 128.755 15Z" fill="white"/>
<path d="M155.763 0.527588V12.0603H143.194V0.527588H137.882V29.3216H143.194V17.0351H155.763V29.3216H161V0.527588H155.763Z" fill="white"/>
<path d="M75.1882 14.1709C77.5822 13.0402 79.303 10.8543 79.303 7.91457C79.303 3.09045 75.7119 0 70.6993 0C64.789 0 61.8713 3.61809 61.8713 7.98995H67.1831C67.2579 6.1809 68.6793 4.97487 70.6993 4.97487C72.8689 4.97487 74.066 6.25628 74.066 8.51759C74.066 10.5528 72.7941 11.8342 70.6245 11.8342H68.3053V16.809H70.9986C73.8415 16.809 74.9637 18.7688 74.9637 20.8794C74.9637 22.99 73.6171 24.799 70.6245 24.799C67.5571 24.799 66.5097 22.7638 66.2853 21.2563H60.8987C60.8987 26.6834 65.1631 29.7739 70.4001 29.7739C76.2356 29.7739 80.2755 26.608 80.2755 21.2563C80.2755 17.1859 77.8067 14.8492 75.1882 14.1709Z" fill="white"/>
</g>
<defs>
<clipPath id="clip0_427_2313">
<rect width="161" height="30" fill="white"/>
</clipPath>
</defs>
</svg>
