<?xml version="1.0" encoding="utf-8"?>
<!-- Generator: Adobe Illustrator 24.3.0, SVG Export Plug-In . SVG Version: 6.00 Build 0)  -->
<svg version="1.1" id="Слой_1" xmlns="http://www.w3.org/2000/svg" xmlns:xlink="http://www.w3.org/1999/xlink" x="0px" y="0px"
	 viewBox="0 0 283.46 224.65" style="enable-background:new 0 0 283.46 224.65;" xml:space="preserve">
<style type="text/css">
	.st0{fill-rule:evenodd;clip-rule:evenodd;fill:#FFFFFF;}
	.st1{fill-rule:evenodd;clip-rule:evenodd;fill:#050008;}
	.st2{fill-rule:evenodd;clip-rule:evenodd;fill:#E30613;}
	.st3{fill-rule:evenodd;clip-rule:evenodd;fill:#FFCC00;}
	.st4{fill:#FFFFFF;}
</style>
<g>
	<path class="st0" d="M141.73,223.27c-61.11,0-110.95-49.84-110.95-110.95c0-61.11,49.84-110.95,110.95-110.95
		c61.11,0,110.95,49.84,110.95,110.95C252.68,173.43,202.84,223.27,141.73,223.27L141.73,223.27z"/>
	<path class="st1" d="M141.74,224.65c-61.91,0-112.4-50.45-112.4-112.33C29.33,50.45,79.83,0,141.74,0
		c61.9,0,112.39,50.45,112.39,112.32C254.13,174.19,203.64,224.65,141.74,224.65L141.74,224.65z"/>
	<path class="st0" d="M141.73,219.04c-58.81,0-106.78-47.94-106.78-106.71c0-58.78,47.97-106.71,106.78-106.71
		c58.81,0,106.78,47.93,106.78,106.71C248.51,171.1,200.54,219.04,141.73,219.04L141.73,219.04z"/>
	<path class="st2" d="M141.74,210.61c-54.17,0-98.35-44.15-98.35-98.29c0-54.13,44.18-98.28,98.35-98.28
		c54.17,0,98.34,44.15,98.34,98.28C240.08,166.46,195.9,210.61,141.74,210.61L141.74,210.61z"/>
	<path class="st0" d="M141.73,33.7c43.45,0,78.68,35.21,78.68,78.63c0,43.42-35.23,78.63-78.68,78.63
		c-43.44,0-78.68-35.21-78.68-78.63C63.05,68.91,98.29,33.7,141.73,33.7L141.73,33.7z"/>
	<polygon class="st3" points="1.24,93.6 282.23,93.6 282.23,149.77 1.24,149.77 1.24,93.6 	"/>
	<path class="st1" d="M46.24,131.38L35,131.39v-16.85l11.24,0V131.38L46.24,131.38z M46.24,108.92H29.38V137l16.86,0l5.61-5.61
		v-16.84L46.24,108.92L46.24,108.92z"/>
	<path class="st1" d="M74.32,131.38H63.09v-16.85h11.23V131.38L74.32,131.38z M79.94,108.92l-22.47,0v28.07l22.47,0V108.92
		L79.94,108.92z"/>
	<path class="st1" d="M102.41,120.15H91.17v-5.62h11.24V120.15L102.41,120.15z M85.56,108.92V137l5.61,0v-11.23h16.86v-16.85
		L85.56,108.92L85.56,108.92z"/>
	<path class="st1" d="M130.5,131.38h-11.24v-16.85h11.24V131.38L130.5,131.38z M136.12,108.92h-22.48v28.07h22.48V108.92
		L136.12,108.92z"/>
	<polygon class="st1" points="192.29,108.92 192.29,120.15 181.05,120.15 181.05,108.92 175.44,108.92 175.44,137 181.05,136.99 
		181.05,125.77 192.29,125.77 192.29,137 197.91,136.99 197.91,108.92 192.29,108.92 	"/>
	<path class="st1" d="M220.38,131.38h-11.24v-16.85h11.24V131.38L220.38,131.38z M226,108.92l-22.47,0V137l22.47,0V108.92
		L226,108.92z"/>
	<polygon class="st1" points="254.08,114.54 254.08,108.92 231.61,108.92 231.61,137 254.08,137 254.08,131.38 237.24,131.38 
		237.24,125.77 248.46,125.77 248.46,120.15 237.24,120.16 237.24,114.54 254.08,114.54 	"/>
	<polygon class="st1" points="144.72,121.55 141.85,110.36 147.36,108.92 150.21,120.11 150.16,120.12 150.16,120.14 144.72,121.55 
			"/>
	<polygon class="st1" points="152.97,137 152.97,125.77 150.16,125.77 150.16,125.78 150.12,125.78 150.12,125.77 150.16,125.77 
		150.16,120.15 150.12,120.15 150.12,120.13 150.16,120.13 150.16,120.15 152.97,120.15 152.97,108.92 158.59,108.92 158.59,120.15 
		161.39,120.15 161.39,120.13 161.42,120.13 161.42,120.15 161.39,120.15 161.39,125.77 161.42,125.77 161.42,125.78 161.39,125.78 
		161.39,125.77 158.59,125.77 158.59,137 152.97,137 	"/>
	<polygon class="st1" points="166.86,121.56 169.71,110.37 164.21,108.94 161.36,120.12 161.42,120.13 161.42,120.16 166.86,121.56 
			"/>
	<polygon class="st1" points="166.89,124.32 169.75,135.52 164.26,136.95 161.39,125.77 161.45,125.75 161.45,125.73 166.89,124.32 
			"/>
	<polygon class="st1" points="144.66,124.34 141.8,135.53 147.3,136.97 150.16,125.78 150.11,125.77 150.11,125.75 144.66,124.34 	
		"/>
	<path class="st1" d="M132.58,50.15h21.44c2.55,0,3.19,1.76,3.52,2.53l1.3,5.75c0.32,0.84,0.26,3.51-2.03,3.51h-27.49
		c-2.34,0-2.93-1.89-2.41-3.19l2.01-6.08C129.46,51.32,130.7,50.15,132.58,50.15L132.58,50.15z M129.1,47.2
		c-2.87,0-4.14,1.59-5.19,4.19l-3.51,10.57h-0.06c-2.16,0-3.85,1.69-3.85,3.84v10.06c0,2.14,1.69,3.84,3.85,3.84h45.47
		c2.16,0,3.85-1.69,3.85-3.84V65.79c0-2.02-1.56-3.64-3.58-3.77l-3.12-10.64c-0.92-2.34-2.24-4.19-5.11-4.19H129.1L129.1,47.2z
		 M154.83,80.87h8.92v5.11c0,1.43-1.1,2.54-2.54,2.54h-3.85c-1.42,0-2.53-1.11-2.53-2.54V80.87L154.83,80.87z M160.79,67.85
		c1.63,0,2.95,1.32,2.95,2.96c0,1.63-1.32,2.95-2.95,2.95c-1.63,0-2.96-1.32-2.96-2.95C157.84,69.18,159.16,67.85,160.79,67.85
		L160.79,67.85z M125.35,67.85c1.63,0,2.95,1.32,2.95,2.96c0,1.63-1.32,2.95-2.95,2.95c-1.63,0-2.96-1.32-2.96-2.95
		C122.4,69.18,123.73,67.85,125.35,67.85L125.35,67.85z M122.4,80.87h8.93v5.11c0,1.43-1.11,2.54-2.54,2.54h-3.84
		c-1.44,0-2.55-1.11-2.55-2.54V80.87L122.4,80.87z"/>
	<path class="st1" d="M183.01,69.33h10.71c1.27,0,1.6,0.88,1.76,1.27l0.65,2.87c0.16,0.42,0.14,1.76-1.01,1.76h-13.75
		c-1.17,0-1.46-0.94-1.2-1.6l1.01-3.03C181.44,69.91,182.06,69.33,183.01,69.33L183.01,69.33z M181.26,67.85
		c-1.43,0-2.07,0.79-2.59,2.1l-1.76,5.28h-0.03c-1.07,0-1.92,0.85-1.92,1.92v5.03c0,1.08,0.85,1.92,1.92,1.92h22.73
		c1.07,0,1.92-0.85,1.92-1.92v-5.03c0-1-0.78-1.82-1.79-1.89l-1.56-5.31c-0.46-1.17-1.12-2.1-2.55-2.1H181.26L181.26,67.85z
		 M194.12,84.69h4.46v2.55c0,0.72-0.55,1.27-1.27,1.27h-1.92c-0.71,0-1.27-0.55-1.27-1.27V84.69L194.12,84.69z M197.11,78.18
		c0.82,0,1.48,0.66,1.48,1.48c0,0.81-0.66,1.47-1.48,1.47c-0.81,0-1.47-0.66-1.47-1.47C195.63,78.84,196.29,78.18,197.11,78.18
		L197.11,78.18z M179.39,78.18c0.81,0,1.47,0.66,1.47,1.48c0,0.81-0.66,1.47-1.47,1.47c-0.82,0-1.48-0.66-1.48-1.47
		C177.92,78.84,178.58,78.18,179.39,78.18L179.39,78.18z M177.92,84.69h4.46v2.55c0,0.72-0.56,1.27-1.28,1.27h-1.91
		c-0.72,0-1.27-0.55-1.27-1.27V84.69L177.92,84.69z"/>
	<path class="st1" d="M92.86,69.33h10.72c1.27,0,1.6,0.88,1.76,1.27l0.65,2.87c0.16,0.42,0.13,1.76-1.02,1.76H91.23
		c-1.17,0-1.47-0.94-1.21-1.6l1.01-3.03C91.29,69.91,91.91,69.33,92.86,69.33L92.86,69.33z M91.11,67.85c-1.43,0-2.07,0.79-2.59,2.1
		l-1.76,5.28h-0.04c-1.08,0-1.92,0.85-1.92,1.92v5.03c0,1.08,0.84,1.92,1.92,1.92h22.73c1.08,0,1.93-0.85,1.93-1.92v-5.03
		c0-1-0.78-1.82-1.79-1.89l-1.57-5.31c-0.46-1.17-1.12-2.1-2.55-2.1H91.11L91.11,67.85z M103.97,84.69h4.46v2.55
		c0,0.72-0.55,1.27-1.27,1.27h-1.93c-0.71,0-1.27-0.55-1.27-1.27V84.69L103.97,84.69z M106.96,78.18c0.82,0,1.47,0.66,1.47,1.48
		c0,0.81-0.66,1.47-1.47,1.47c-0.81,0-1.48-0.66-1.48-1.47C105.48,78.84,106.15,78.18,106.96,78.18L106.96,78.18z M89.24,78.18
		c0.81,0,1.48,0.66,1.48,1.48c0,0.81-0.67,1.47-1.48,1.47c-0.82,0-1.48-0.66-1.48-1.47C87.76,78.84,88.42,78.18,89.24,78.18
		L89.24,78.18z M87.76,84.69h4.46v2.55c0,0.72-0.55,1.27-1.27,1.27h-1.91c-0.72,0-1.28-0.55-1.28-1.27V84.69L87.76,84.69z"/>
	<path class="st1" d="M280.99,148.65L2.47,148.63V94.72h278.52V148.65L280.99,148.65z M0,150.89h283.46v-58.4H0V150.89L0,150.89z"/>
	<path d="M118.55,176.89c0.46,0.03,1.16,0.05,1.86,0c2.73-0.11,5.02-0.95,6.7-2.46c1.92-1.75,3.08-4.43,3.08-8.07
		c0-4.1-2.13-7.56-6.64-7.56c-3.86,0-6.61,2.89-6.61,6.32c0,3.4,2.51,5.48,5.48,5.48c1.59,0,2.73-0.46,3.51-1.27l0.08,0.03
		c-0.32,1.32-1.08,2.46-2.21,3.24c-0.95,0.65-2.21,1-3.46,1.08c-0.81,0.05-1.27,0.05-1.78,0V176.89L118.55,176.89z M123.44,161.8
		c1.86,0,2.57,1.84,2.57,3.7c0,0.51-0.08,0.78-0.22,1.03c-0.38,0.62-1.16,1.16-2.27,1.16c-1.67,0-2.48-1.3-2.48-2.81
		C121.01,163.04,122.04,161.8,123.44,161.8L123.44,161.8z M143.45,158.85c-0.4-0.03-0.89-0.03-1.65,0.03
		c-2.75,0.14-5.02,1-6.78,2.59c-1.89,1.76-3.1,4.51-3.1,7.8c0,4.18,2.29,7.67,6.97,7.67c3.81,0,6.48-2.86,6.48-6.35
		c0-3.65-2.48-5.72-5.43-5.72c-1.65,0-2.86,0.51-3.73,1.4h-0.08c0.46-2.05,2.08-3.91,5.72-4.21c0.65-0.05,1.13-0.08,1.59-0.05
		V158.85L143.45,158.85z M138.83,173.92c-1.86,0-2.75-1.67-2.84-3.54c0-0.49,0.05-0.81,0.16-1.03c0.41-0.89,1.32-1.57,2.43-1.57
		c1.76,0,2.62,1.4,2.62,3.02C141.21,172.6,140.29,173.92,138.83,173.92L138.83,173.92z M149.85,176.94c1.46,0,2.43-1.05,2.43-2.48
		c0-1.49-0.97-2.51-2.4-2.51s-2.43,1.05-2.43,2.51C147.44,175.89,148.44,176.94,149.85,176.94L149.85,176.94z M160.67,158.8
		c-4.54,0-6.7,4.02-6.7,9.1c0.03,4.97,2.03,9.05,6.56,9.05c4.48,0,6.67-3.73,6.67-9.15C167.21,162.98,165.37,158.8,160.67,158.8
		L160.67,158.8z M160.62,161.9c1.65,0,2.48,2.05,2.48,5.94c0,4-0.86,5.99-2.46,5.99s-2.57-1.92-2.54-5.94
		C158.08,163.82,159.11,161.9,160.62,161.9L160.62,161.9z"/>
	<path class="st4" d="M78.81,182.92l2.66,2.06l2.48-3.2c0.16,0.15,0.39,0.37,0.69,0.6c1.48,1.15,2.9,1.72,4.29,1.63
		c1.05-0.06,2.03-0.68,2.75-1.61c0.8-1.04,0.97-2.28,0.66-3.27c-0.29-1-1.09-2.07-2.52-3.18c-1.69-1.31-2.85-2.05-3.68-2.51
		L78.81,182.92L78.81,182.92z M87.37,177.35c0.16,0.08,0.47,0.27,0.93,0.63c1.07,0.83,1.24,1.69,0.7,2.39
		c-0.67,0.87-1.78,0.77-2.82-0.04c-0.34-0.26-0.53-0.43-0.66-0.58L87.37,177.35L87.37,177.35z M112.01,198.82l-0.08,3.09l3.58,1.2
		l-0.03-12.8l-4.4-1.47l-7.48,10.29l3.4,1.14l1.67-2.55L112.01,198.82L112.01,198.82z M109.92,195.5l1.22-1.83
		c0.41-0.6,0.86-1.38,1.27-1.99l0.03,0.01c-0.02,0.73-0.06,1.65-0.07,2.37l-0.06,2.24L109.92,195.5L109.92,195.5z M138.1,194.55
		l-0.11,3.35c-0.04,1.21-0.22,2.35-0.58,3.42c-0.32,0.94-0.76,1.85-1.35,2.69l-1.12,0.07l-0.06,4.05l2.7,0.08l0.13-1.53l7.41,0.24
		l0.03,1.51l2.71,0.08l0.23-3.99l-1.36-0.15l0.31-9.52L138.1,194.55L138.1,194.55z M141.16,197.37l2.41,0.08l-0.22,6.71l-3.85-0.13
		c0.36-0.53,0.67-1.15,0.92-1.82c0.41-1.1,0.65-2.36,0.69-3.49L141.16,197.37L141.16,197.37z M163.99,191.78l4.06,11.43l3.9-1.38
		l0.71-3.98c0.28-1.53,0.49-3.46,0.54-5.27l0.05-0.02c0.4,1.77,0.94,3.35,1.5,4.91l1.06,2.99l2.97-1.05l-4.06-11.43l-3.41,1.21
		l-0.71,4.57c-0.24,1.58-0.51,3.56-0.68,5.4l-0.07,0.02c-0.53-1.76-1.17-3.63-1.79-5.36l-1.1-3.09L163.99,191.78L163.99,191.78z
		 M202.02,185.4c3.18-2.68,3.43-6.38,1.07-9.2c-2.29-2.73-5.86-3.19-9-0.55c-3.05,2.56-3.36,6.33-0.97,9.17
		c2.25,2.67,5.83,3.16,8.89,0.59L202.02,185.4L202.02,185.4z M200.44,183.3c-1.39,1.17-3.27,0.73-4.61-0.87
		c-1.34-1.6-1.48-3.55-0.09-4.72c1.39-1.17,3.29-0.7,4.64,0.9c1.34,1.6,1.5,3.49,0.08,4.68L200.44,183.3L200.44,183.3z"/>
	<path class="st4" d="M84.56,54.38l2.47-2.84l-10.59-8.36l-3.45,3.98l1.84,3c0.74,1.2,1.92,2.88,2.92,4.33l-0.05,0.06
		c-1.48-0.89-3.16-1.79-4.5-2.45l-3.16-1.55l-3.54,4.08l9.69,9.41l2.33-2.69l-3.66-3.44c-1.23-1.15-2.81-2.59-4.31-4l0.03-0.03
		c1.75,1.04,3.62,2.08,5.14,2.87l4.46,2.28l1.98-2.28l-2.73-4.3c-0.94-1.51-2.13-3.38-3.26-5l0.04-0.05
		c1.77,1.53,3.19,2.74,4.48,3.81L84.56,54.38L84.56,54.38z M105.36,40.02c4.11-2.11,5.3-6.07,3.43-9.7
		c-1.81-3.52-5.55-4.91-9.61-2.83c-3.93,2.02-5.21,6.02-3.33,9.69c1.77,3.45,5.53,4.87,9.48,2.85L105.36,40.02L105.36,40.02z
		 M104.17,37.35c-1.8,0.92-3.72-0.02-4.78-2.09c-1.06-2.06-0.72-4.21,1.07-5.14c1.8-0.92,3.74,0.06,4.8,2.12
		c1.06,2.06,0.76,4.15-1.07,5.09L104.17,37.35L104.17,37.35z M136.21,27.85c-0.6,0.34-1.71,0.68-2.74,0.81
		c-2.76,0.35-4.53-1.06-4.82-3.36c-0.34-2.66,1.49-4.12,3.73-4.41c1.25-0.16,2.28-0.01,2.99,0.18l0.4-3
		c-0.7-0.27-2.19-0.41-3.92-0.19c-4.38,0.56-7.72,3.52-7.12,8.17c0.46,3.59,3.28,6.4,8.69,5.71c1.82-0.23,3.21-0.77,3.73-1.12
		L136.21,27.85L136.21,27.85z M154.32,18.4l-2.38,13.27l3.68,0.66l0.95-5.3l0.71,0.13c1.52,0.27,1.89,1.58,2.07,2.97
		c0.13,1,0.19,1.99,0.51,2.96l4.09,0.73c-0.47-1.57-0.72-3.26-0.98-4.87c-0.25-1.57-0.9-2.82-2.41-3.54l5.98-4.82l-4.65-0.83
		l-4.68,4.59l-0.16-0.03l0.94-5.26L154.32,18.4L154.32,18.4z M177.13,38.95c0.58,0.47,1.63,1.22,3.23,2.13
		c2.6,1.5,4.33,2.01,5.63,1.93c1.19-0.1,2.31-0.65,2.97-1.8c0.84-1.46,0.52-3.02-0.72-4.24l0.02-0.03c1.71,0.32,2.8-0.3,3.37-1.29
		c0.72-1.25,0.41-2.56-0.36-3.51c-0.71-0.89-1.59-1.56-3.43-2.62c-1.56-0.9-3.36-1.75-4.12-2.03L177.13,38.95L177.13,38.95z
		 M185.73,31.51c0.25,0.09,0.59,0.25,1.22,0.61c1.16,0.67,1.51,1.38,1.13,2.04c-0.42,0.73-1.35,0.74-2.88-0.13l-0.69-0.4
		L185.73,31.51L185.73,31.51z M183.19,35.91l0.85,0.49c1.32,0.76,2.12,1.66,1.55,2.64c-0.59,1.02-1.77,0.87-2.92,0.21
		c-0.49-0.28-0.8-0.46-1.04-0.64L183.19,35.91L183.19,35.91z M206.04,57.6l-1.82,2.9l2.75,3.17l7.21-12.26l-3.38-3.9l-12.98,5.61
		l2.61,3.01l3.04-1.5L206.04,57.6L206.04,57.6z M205.92,53.24l2.2-1.06c0.73-0.34,1.6-0.84,2.34-1.18l0.03,0.03
		c-0.43,0.69-0.99,1.55-1.41,2.23l-1.33,2.1L205.92,53.24L205.92,53.24z"/>
</g>
</svg>
