<?xml version="1.0" standalone="no"?>
<!DOCTYPE svg PUBLIC "-//W3C//DTD SVG 20010904//EN"
 "http://www.w3.org/TR/2001/REC-SVG-20010904/DTD/svg10.dtd">
<svg version="1.0" xmlns="http://www.w3.org/2000/svg"
 width="114.000000pt" height="114.000000pt" viewBox="0 0 114.000000 114.000000"
 preserveAspectRatio="xMidYMid meet">
<metadata>
Created by potrace 1.14, written by Peter Selinger 2001-2017
</metadata>
<g transform="translate(0.000000,114.000000) scale(0.100000,-0.100000)"
fill="#000000" stroke="none">
<path d="M530 1080 c-25 -6 -52 -13 -60 -17 -8 -3 -18 -7 -21 -7 -31 -5 -117
-63 -170 -116 -64 -63 -66 -65 -85 -47 -14 13 -19 32 -19 68 0 64 -27 94 -86
94 -56 0 -94 -42 -85 -94 8 -52 37 -76 94 -76 35 0 54 -6 71 -22 l24 -22 -20
-48 c-17 -42 -24 -48 -51 -51 -24 -2 -32 -8 -32 -23 0 -14 7 -19 25 -19 20 0
24 -4 23 -25 -1 -14 -8 -25 -16 -25 -40 0 -83 -41 -87 -85 -5 -45 45 -95 95
-95 11 0 20 -6 20 -14 0 -8 2 -20 5 -28 4 -10 -4 -13 -29 -12 -21 1 -37 -3
-40 -12 -7 -17 20 -30 59 -30 21 1 35 -6 47 -24 25 -35 23 -43 -16 -85 -30
-31 -40 -36 -67 -31 -38 6 -83 -15 -100 -45 -16 -31 -2 -85 28 -109 34 -27 76
-25 109 3 22 20 27 32 28 73 1 41 6 55 34 83 l33 35 39 -39 c23 -22 40 -49 40
-61 0 -25 28 -41 36 -20 5 12 11 11 36 -2 17 -10 39 -25 50 -35 21 -20 11 -18
150 -23 81 -2 123 2 173 15 36 10 65 14 65 9 0 -5 11 -20 25 -33 72 -72 188
29 129 113 -15 21 -13 25 26 69 77 87 123 217 119 332 -4 112 -38 209 -101
292 -27 34 -34 52 -31 75 9 59 -60 108 -120 85 -19 -8 -39 -5 -84 11 -66 23
-194 32 -263 18z m-410 -80 c31 -31 1 -84 -41 -73 -39 11 -47 77 -10 86 28 8
31 7 51 -13z m821 1 c13 -11 22 -22 19 -25 -3 -3 -19 6 -35 19 -17 13 -25 24
-19 25 7 0 22 -9 35 -19z m-809 -431 c5 -52 -3 -66 -29 -51 -29 15 -34 46 -11
70 27 30 35 26 40 -19z m1 -409 c6 -25 -19 -61 -42 -61 -27 0 -54 35 -46 60
14 43 76 44 88 1z m817 9 c16 -29 4 -57 -28 -65 -20 -5 -31 -2 -45 16 -17 21
-17 22 15 45 41 29 45 29 58 4z"/>
</g>
</svg>
