<svg width="1263" height="869" viewBox="0 0 1263 869" fill="none" xmlns="http://www.w3.org/2000/svg">
<path d="M1253.2 461.243C1253.34 461.243 1253.48 461.243 1253.62 461.243C1254.62 461.527 1255.61 461.811 1256.75 462.096C1256.18 464.085 1255.75 465.933 1255.33 467.78L1255.47 467.922C1257.18 466.928 1259.02 465.933 1260.87 464.796C1261.44 465.791 1262.01 466.786 1262.72 467.922C1261.01 468.917 1259.45 469.77 1257.74 470.765C1257.46 470.907 1257.32 471.049 1257.32 471.333C1259.16 471.902 1261.01 472.328 1263 472.897C1262.72 474.176 1262.43 475.171 1262.01 476.308C1260.87 476.023 1259.87 475.739 1258.74 475.455C1256.75 474.886 1254.9 474.46 1252.91 473.891C1252.49 473.749 1252.2 473.891 1251.92 474.034C1249.65 475.313 1247.52 476.592 1245.24 477.871C1244.11 478.581 1242.97 479.15 1241.83 479.718C1241.69 479.718 1241.55 479.86 1241.26 480.145C1241.55 480.287 1241.69 480.287 1241.83 480.429C1243.68 481.566 1245.67 482.561 1247.52 483.698C1248.94 484.55 1250.36 485.403 1251.78 486.114C1252.2 486.398 1252.49 486.398 1252.91 486.256C1255.75 485.403 1258.6 484.693 1261.44 483.982C1261.58 483.982 1261.58 483.982 1261.72 483.982C1262.01 485.119 1262.29 486.256 1262.72 487.393C1260.87 487.961 1258.88 488.388 1257.03 488.956C1256.89 489.24 1257.03 489.382 1257.32 489.525C1259.02 490.377 1260.58 491.372 1262.29 492.367C1261.72 493.362 1261.15 494.499 1260.44 495.494C1258.6 494.499 1256.89 493.362 1255.04 492.367L1254.9 492.509C1255.33 494.357 1255.9 496.204 1256.47 498.194C1255.33 498.478 1254.19 498.762 1253.06 499.189C1252.77 498.194 1252.49 497.341 1252.35 496.488C1251.78 494.357 1251.21 492.225 1250.64 490.093C1250.5 489.809 1250.21 489.525 1249.93 489.382C1246.95 487.677 1243.96 485.829 1240.98 484.124C1240.7 483.982 1240.41 483.84 1240.13 483.698C1239.99 483.556 1239.7 483.556 1239.42 483.556C1239.42 484.124 1239.42 484.55 1239.42 484.977C1239.42 488.388 1239.42 491.941 1239.42 495.351C1239.42 495.92 1239.56 496.346 1239.99 496.773C1241.97 498.62 1243.82 500.61 1245.81 502.6C1245.95 502.742 1246.24 503.026 1246.38 503.168C1246.09 503.736 1244.82 505.015 1243.82 505.726C1242.54 504.447 1241.41 503.31 1240.13 502.031C1239.99 501.889 1239.84 501.605 1239.42 501.889C1239.42 503.879 1239.42 505.868 1239.42 508C1238.14 508 1237 508 1235.87 508C1235.87 506.01 1235.87 503.879 1235.87 501.605C1235.44 501.889 1235.3 502.031 1235.16 502.173C1234.02 503.31 1232.88 504.447 1231.89 505.584C1231.75 505.726 1231.6 505.726 1231.6 505.868C1230.75 505.016 1229.9 504.163 1229.05 503.31C1229.76 502.6 1230.61 501.747 1231.32 500.894C1232.74 499.473 1234.16 498.052 1235.58 496.63C1235.72 496.346 1235.87 496.062 1235.87 495.778C1235.87 491.941 1235.87 488.245 1235.87 484.408C1235.87 484.124 1235.87 483.982 1235.72 483.698C1235.01 484.124 1234.3 484.55 1233.59 484.977C1231.04 486.398 1228.48 487.961 1225.92 489.382C1225.21 489.809 1224.64 490.235 1224.5 491.23C1223.93 493.646 1223.22 496.204 1222.51 498.62C1222.37 498.904 1222.23 499.189 1222.09 499.615C1220.95 499.331 1219.81 499.047 1218.68 498.762C1219.1 496.773 1219.81 494.925 1220.1 493.078L1219.96 492.935C1218.25 493.93 1216.4 494.925 1214.56 496.062C1213.99 495.067 1213.42 494.072 1212.71 493.078C1212.85 492.935 1212.99 492.793 1213.14 492.651C1214.56 491.798 1216.12 490.946 1217.54 490.093C1217.82 489.951 1217.97 489.809 1217.82 489.525C1215.98 488.956 1214.13 488.53 1212.28 487.961C1212.57 486.824 1212.85 485.687 1213.14 484.55C1213.7 484.693 1214.42 484.835 1214.98 484.977C1217.26 485.545 1219.39 486.114 1221.52 486.682C1221.66 486.682 1221.8 486.682 1221.94 486.824C1222.37 486.966 1222.65 486.966 1223.08 486.682C1226.35 484.835 1229.62 482.987 1232.74 480.997C1233.03 480.855 1233.17 480.713 1233.45 480.429C1232.31 479.718 1231.32 479.15 1230.33 478.581C1227.91 477.16 1225.5 475.739 1222.94 474.318C1222.51 474.034 1222.23 474.034 1221.66 474.176C1218.82 475.028 1215.98 475.739 1213.14 476.45C1212.99 476.45 1212.99 476.45 1212.85 476.45C1212.57 475.313 1212.28 474.176 1212 473.039C1213.99 472.47 1215.84 472.044 1217.68 471.475C1217.82 471.049 1217.4 471.049 1217.26 470.907C1215.69 470.054 1214.13 469.059 1212.43 468.207C1212.99 467.07 1213.56 466.075 1214.27 465.08C1216.12 466.075 1217.82 467.212 1219.81 468.207C1219.81 467.922 1219.81 467.638 1219.81 467.496C1219.39 466.075 1218.96 464.512 1218.53 463.09C1218.53 462.806 1218.53 462.664 1218.39 462.38C1219.53 462.096 1220.67 461.811 1221.8 461.385C1222.09 462.522 1222.37 463.659 1222.8 464.796C1223.36 466.643 1223.79 468.491 1224.22 470.481C1224.36 471.049 1224.79 471.191 1225.21 471.475C1227.34 472.755 1229.62 474.034 1231.75 475.171C1232.74 475.739 1233.59 476.308 1234.59 476.876C1234.73 477.018 1235.01 477.018 1235.3 477.16C1235.3 476.876 1235.44 476.734 1235.44 476.592C1235.44 473.891 1235.44 471.191 1235.44 468.491C1235.44 467.354 1235.44 466.075 1235.44 464.938C1235.44 464.654 1235.3 464.37 1235.16 464.227C1233.59 462.664 1232.03 461.101 1230.61 459.68C1229.9 458.969 1229.19 458.258 1228.62 457.548C1229.47 456.695 1230.33 455.842 1231.18 454.99C1232.6 456.411 1234.02 457.832 1235.44 459.253C1235.87 458.969 1235.72 458.685 1235.72 458.401C1235.72 456.695 1235.72 454.848 1235.72 453C1236.86 453 1238 453 1239.28 453C1239.28 454.99 1239.28 456.979 1239.28 458.969C1239.56 459.253 1239.84 459.111 1239.99 458.827C1240.98 457.69 1242.12 456.695 1243.25 455.558C1243.4 455.416 1243.54 455.274 1243.68 455.132C1244.53 455.984 1245.38 456.837 1246.24 457.69C1246.09 457.832 1245.95 457.974 1245.81 458.116C1243.82 460.106 1241.69 462.238 1239.7 464.227C1239.42 464.512 1239.28 464.654 1239.28 465.08C1239.28 468.917 1239.28 472.897 1239.28 476.734C1239.28 476.876 1239.28 477.018 1239.42 477.16C1239.7 477.018 1239.99 477.018 1240.13 476.876C1243.4 475.028 1246.52 473.039 1249.79 471.191C1250.21 470.907 1250.5 470.623 1250.64 470.054C1251.35 467.354 1252.06 464.654 1252.77 461.954C1253.2 461.527 1253.2 461.385 1253.2 461.243Z" fill="white"/>
<path d="M41.1978 763.243C41.3398 763.243 41.4819 763.243 41.624 763.243C42.6184 763.527 43.6128 763.811 44.7493 764.096C44.1811 766.085 43.7549 767.933 43.3287 769.78L43.4707 769.922C45.1755 768.928 47.0223 767.933 48.8691 766.796C49.4373 767.791 50.0056 768.786 50.7159 769.922C49.0111 770.917 47.4485 771.77 45.7437 772.765C45.4596 772.907 45.3175 773.049 45.3175 773.333C47.1643 773.902 49.0111 774.328 51 774.897C50.7159 776.176 50.4318 777.171 50.0056 778.308C48.8691 778.023 47.8747 777.739 46.7382 777.455C44.7493 776.886 42.9025 776.46 40.9137 775.891C40.4875 775.749 40.2033 775.891 39.9192 776.034C37.6462 777.313 35.5153 778.592 33.2423 779.871C32.1058 780.581 30.9694 781.15 29.8329 781.718C29.6908 781.718 29.5487 781.86 29.2646 782.145C29.5487 782.287 29.6908 782.287 29.8329 782.429C31.6797 783.566 33.6685 784.561 35.5153 785.698C36.9359 786.55 38.3566 787.403 39.7772 788.114C40.2034 788.398 40.4875 788.398 40.9137 788.256C43.7549 787.403 46.5961 786.693 49.4373 785.982C49.5794 785.982 49.5794 785.982 49.7215 785.982C50.0056 787.119 50.2897 788.256 50.7159 789.393C48.8691 789.961 46.8802 790.388 45.0334 790.956C44.8914 791.24 45.0334 791.382 45.3175 791.525C47.0223 792.377 48.585 793.372 50.2897 794.367C49.7214 795.362 49.1532 796.499 48.4429 797.494C46.5961 796.499 44.8914 795.362 43.0446 794.367L42.9025 794.509C43.3287 796.357 43.8969 798.204 44.4652 800.194C43.3287 800.478 42.1922 800.762 41.0557 801.189C40.7716 800.194 40.4875 799.341 40.3454 798.488C39.7772 796.357 39.2089 794.225 38.6407 792.093C38.4986 791.809 38.2145 791.525 37.9304 791.382C34.9471 789.677 31.9638 787.829 28.9805 786.124C28.6964 785.982 28.4123 785.84 28.1281 785.698C27.9861 785.556 27.702 785.556 27.4178 785.556C27.4178 786.124 27.4178 786.55 27.4178 786.977C27.4178 790.388 27.4178 793.941 27.4178 797.351C27.4178 797.92 27.5599 798.346 27.9861 798.773C29.9749 800.62 31.8217 802.61 33.8106 804.6C33.9527 804.742 34.2368 805.026 34.3788 805.168C34.0947 805.736 32.8162 807.015 31.8217 807.726C30.5432 806.447 29.4067 805.31 28.1281 804.031C27.9861 803.889 27.844 803.605 27.4178 803.889C27.4178 805.879 27.4178 807.868 27.4178 810C26.1393 810 25.0028 810 23.8663 810C23.8663 808.01 23.8663 805.879 23.8663 803.605C23.4401 803.889 23.2981 804.031 23.156 804.173C22.0195 805.31 20.883 806.447 19.8886 807.584C19.7465 807.726 19.6045 807.726 19.6045 807.868C18.7521 807.016 17.8997 806.163 17.0474 805.31C17.7577 804.6 18.61 803.747 19.3203 802.894C20.7409 801.473 22.1616 800.052 23.5822 798.63C23.7242 798.346 23.8663 798.062 23.8663 797.778C23.8663 793.941 23.8663 790.245 23.8663 786.408C23.8663 786.124 23.8663 785.982 23.7242 785.698C23.0139 786.124 22.3036 786.55 21.5933 786.977C19.0362 788.398 16.4791 789.961 13.922 791.382C13.2117 791.809 12.6435 792.235 12.5014 793.23C11.9332 795.646 11.2228 798.204 10.5125 800.62C10.3705 800.904 10.2284 801.189 10.0863 801.615C8.94985 801.331 7.81337 801.047 6.67688 800.762C7.10306 798.773 7.81337 796.925 8.09749 795.078L7.95542 794.935C6.25068 795.93 4.4039 796.925 2.55711 798.062C1.98886 797.067 1.42061 796.072 0.710307 795.078C0.852368 794.935 0.994433 794.793 1.13649 794.651C2.55711 793.798 4.11977 792.946 5.54038 792.093C5.8245 791.951 5.96656 791.809 5.8245 791.525C3.9777 790.956 2.13092 790.53 0.284118 789.961C0.568241 788.824 0.852372 787.687 1.13649 786.55C1.70474 786.693 2.41503 786.835 2.98327 786.977C5.25626 787.545 7.38718 788.114 9.5181 788.682C9.66016 788.682 9.80223 788.682 9.94429 788.824C10.3705 788.966 10.6546 788.966 11.0808 788.682C14.3482 786.835 17.6156 784.987 20.7409 782.997C21.0251 782.855 21.1671 782.713 21.4512 782.429C20.3148 781.718 19.3203 781.15 18.3259 780.581C15.9109 779.16 13.4958 777.739 10.9387 776.318C10.5125 776.034 10.2284 776.034 9.66017 776.176C6.81895 777.028 3.97772 777.739 1.13649 778.45C0.994433 778.45 0.994416 778.45 0.852355 778.45C0.568232 777.313 0.284123 776.176 0 775.039C1.98886 774.47 3.83566 774.044 5.68245 773.475C5.82451 773.049 5.39833 773.049 5.25626 772.907C3.69359 772.054 2.13092 771.059 0.426188 770.207C0.994433 769.07 1.56266 768.075 2.27297 767.08C4.11976 768.075 5.82451 769.212 7.81337 770.207C7.81337 769.922 7.81337 769.638 7.81337 769.496C7.38719 768.075 6.96099 766.512 6.53481 765.09C6.53481 764.806 6.53482 764.664 6.39276 764.38C7.52925 764.096 8.66573 763.811 9.80222 763.385C10.0863 764.522 10.3705 765.659 10.7966 766.796C11.3649 768.643 11.7911 770.491 12.2173 772.481C12.3593 773.049 12.7855 773.191 13.2117 773.475C15.3426 774.755 17.6156 776.034 19.7465 777.171C20.7409 777.739 21.5933 778.308 22.5877 778.876C22.7298 779.018 23.0139 779.018 23.298 779.16C23.298 778.876 23.4401 778.734 23.4401 778.592C23.4401 775.891 23.4401 773.191 23.4401 770.491C23.4401 769.354 23.4401 768.075 23.4401 766.938C23.4401 766.654 23.2981 766.37 23.156 766.227C21.5933 764.664 20.0306 763.101 18.61 761.68C17.8997 760.969 17.1894 760.258 16.6212 759.548C17.4735 758.695 18.3259 757.842 19.1783 756.99C20.5989 758.411 22.0195 759.832 23.4401 761.253C23.8663 760.969 23.7242 760.685 23.7242 760.401C23.7242 758.695 23.7242 756.848 23.7242 755C24.8607 755 25.9972 755 27.2758 755C27.2758 756.99 27.2758 758.979 27.2758 760.969C27.5599 761.253 27.844 761.111 27.9861 760.827C28.9805 759.69 30.117 758.695 31.2535 757.558C31.3955 757.416 31.5376 757.274 31.6797 757.132C32.532 757.984 33.3844 758.837 34.2368 759.69C34.0947 759.832 33.9527 759.974 33.8106 760.116C31.8217 762.106 29.6908 764.238 27.702 766.227C27.4178 766.512 27.2758 766.654 27.2758 767.08C27.2758 770.917 27.2758 774.897 27.2758 778.734C27.2758 778.876 27.2758 779.018 27.4178 779.16C27.702 779.018 27.9861 779.018 28.1281 778.876C31.3956 777.028 34.5209 775.039 37.7883 773.191C38.2145 772.907 38.4986 772.623 38.6407 772.054C39.351 769.354 40.0613 766.654 40.7716 763.954C41.1978 763.527 41.1978 763.385 41.1978 763.243Z" fill="white"/>
<path d="M715.198 822.243C715.34 822.243 715.482 822.243 715.624 822.243C716.618 822.527 717.613 822.811 718.749 823.096C718.181 825.085 717.755 826.933 717.329 828.78L717.471 828.922C719.175 827.928 721.022 826.933 722.869 825.796C723.437 826.791 724.006 827.786 724.716 828.922C723.011 829.917 721.448 830.77 719.744 831.765C719.46 831.907 719.318 832.049 719.318 832.333C721.164 832.902 723.011 833.328 725 833.897C724.716 835.176 724.432 836.171 724.006 837.308C722.869 837.023 721.875 836.739 720.738 836.455C718.749 835.886 716.903 835.46 714.914 834.891C714.487 834.749 714.203 834.891 713.919 835.034C711.646 836.313 709.515 837.592 707.242 838.871C706.106 839.581 704.969 840.15 703.833 840.718C703.691 840.718 703.549 840.86 703.265 841.145C703.549 841.287 703.691 841.287 703.833 841.429C705.68 842.566 707.669 843.561 709.515 844.698C710.936 845.55 712.357 846.403 713.777 847.114C714.203 847.398 714.487 847.398 714.914 847.256C717.755 846.403 720.596 845.693 723.437 844.982C723.579 844.982 723.579 844.982 723.721 844.982C724.006 846.119 724.29 847.256 724.716 848.393C722.869 848.961 720.88 849.388 719.033 849.956C718.891 850.24 719.033 850.382 719.318 850.525C721.022 851.377 722.585 852.372 724.29 853.367C723.721 854.362 723.153 855.499 722.443 856.494C720.596 855.499 718.891 854.362 717.045 853.367L716.903 853.509C717.329 855.357 717.897 857.204 718.465 859.194C717.329 859.478 716.192 859.762 715.056 860.189C714.772 859.194 714.487 858.341 714.345 857.488C713.777 855.357 713.209 853.225 712.641 851.093C712.499 850.809 712.214 850.525 711.93 850.382C708.947 848.677 705.964 846.829 702.98 845.124C702.696 844.982 702.412 844.84 702.128 844.698C701.986 844.556 701.702 844.556 701.418 844.556C701.418 845.124 701.418 845.55 701.418 845.977C701.418 849.388 701.418 852.941 701.418 856.351C701.418 856.92 701.56 857.346 701.986 857.773C703.975 859.62 705.822 861.61 707.811 863.6C707.953 863.742 708.237 864.026 708.379 864.168C708.095 864.736 706.816 866.015 705.822 866.726C704.543 865.447 703.407 864.31 702.128 863.031C701.986 862.889 701.844 862.605 701.418 862.889C701.418 864.879 701.418 866.868 701.418 869C700.139 869 699.003 869 697.866 869C697.866 867.01 697.866 864.879 697.866 862.605C697.44 862.889 697.298 863.031 697.156 863.173C696.02 864.31 694.883 865.447 693.889 866.584C693.747 866.726 693.604 866.726 693.604 866.868C692.752 866.016 691.9 865.163 691.047 864.31C691.758 863.6 692.61 862.747 693.32 861.894C694.741 860.473 696.162 859.052 697.582 857.63C697.724 857.346 697.866 857.062 697.866 856.778C697.866 852.941 697.866 849.245 697.866 845.408C697.866 845.124 697.866 844.982 697.724 844.698C697.014 845.124 696.304 845.55 695.593 845.977C693.036 847.398 690.479 848.961 687.922 850.382C687.212 850.809 686.643 851.235 686.501 852.23C685.933 854.646 685.223 857.204 684.513 859.62C684.37 859.904 684.228 860.189 684.086 860.615C682.95 860.331 681.813 860.047 680.677 859.762C681.103 857.773 681.813 855.925 682.097 854.078L681.955 853.935C680.251 854.93 678.404 855.925 676.557 857.062C675.989 856.067 675.421 855.072 674.71 854.078C674.852 853.935 674.994 853.793 675.136 853.651C676.557 852.798 678.12 851.946 679.54 851.093C679.825 850.951 679.967 850.809 679.825 850.525C677.978 849.956 676.131 849.53 674.284 848.961C674.568 847.824 674.852 846.687 675.136 845.55C675.705 845.693 676.415 845.835 676.983 845.977C679.256 846.545 681.387 847.114 683.518 847.682C683.66 847.682 683.802 847.682 683.944 847.824C684.37 847.966 684.655 847.966 685.081 847.682C688.348 845.835 691.616 843.987 694.741 841.997C695.025 841.855 695.167 841.713 695.451 841.429C694.315 840.718 693.32 840.15 692.326 839.581C689.911 838.16 687.496 836.739 684.939 835.318C684.513 835.034 684.228 835.034 683.66 835.176C680.819 836.028 677.978 836.739 675.136 837.45C674.994 837.45 674.994 837.45 674.852 837.45C674.568 836.313 674.284 835.176 674 834.039C675.989 833.47 677.836 833.044 679.682 832.475C679.825 832.049 679.398 832.049 679.256 831.907C677.694 831.054 676.131 830.059 674.426 829.207C674.994 828.07 675.563 827.075 676.273 826.08C678.12 827.075 679.825 828.212 681.813 829.207C681.813 828.922 681.813 828.638 681.813 828.496C681.387 827.075 680.961 825.512 680.535 824.09C680.535 823.806 680.535 823.664 680.393 823.38C681.529 823.096 682.666 822.811 683.802 822.385C684.086 823.522 684.37 824.659 684.797 825.796C685.365 827.643 685.791 829.491 686.217 831.481C686.359 832.049 686.786 832.191 687.212 832.475C689.343 833.755 691.616 835.034 693.747 836.171C694.741 836.739 695.593 837.308 696.588 837.876C696.73 838.018 697.014 838.018 697.298 838.16C697.298 837.876 697.44 837.734 697.44 837.592C697.44 834.891 697.44 832.191 697.44 829.491C697.44 828.354 697.44 827.075 697.44 825.938C697.44 825.654 697.298 825.37 697.156 825.227C695.593 823.664 694.031 822.101 692.61 820.68C691.9 819.969 691.189 819.258 690.621 818.548C691.474 817.695 692.326 816.842 693.178 815.99C694.599 817.411 696.02 818.832 697.44 820.253C697.866 819.969 697.724 819.685 697.724 819.401C697.724 817.695 697.724 815.848 697.724 814C698.861 814 699.997 814 701.276 814C701.276 815.99 701.276 817.979 701.276 819.969C701.56 820.253 701.844 820.111 701.986 819.827C702.981 818.69 704.117 817.695 705.253 816.558C705.396 816.416 705.538 816.274 705.68 816.132C706.532 816.984 707.384 817.837 708.237 818.69C708.095 818.832 707.953 818.974 707.811 819.116C705.822 821.106 703.691 823.238 701.702 825.227C701.418 825.512 701.276 825.654 701.276 826.08C701.276 829.917 701.276 833.897 701.276 837.734C701.276 837.876 701.276 838.018 701.418 838.16C701.702 838.018 701.986 838.018 702.128 837.876C705.396 836.028 708.521 834.039 711.788 832.191C712.214 831.907 712.499 831.623 712.641 831.054C713.351 828.354 714.061 825.654 714.772 822.954C715.198 822.527 715.198 822.385 715.198 822.243Z" fill="white"/>
<path d="M547.198 317.243C547.34 317.243 547.482 317.243 547.624 317.243C548.618 317.527 549.613 317.811 550.749 318.096C550.181 320.085 549.755 321.933 549.329 323.78L549.471 323.922C551.175 322.928 553.022 321.933 554.869 320.796C555.437 321.791 556.006 322.786 556.716 323.922C555.011 324.917 553.448 325.77 551.744 326.765C551.46 326.907 551.318 327.049 551.318 327.333C553.164 327.902 555.011 328.328 557 328.897C556.716 330.176 556.432 331.171 556.006 332.308C554.869 332.023 553.875 331.739 552.738 331.455C550.749 330.886 548.903 330.46 546.914 329.891C546.487 329.749 546.203 329.891 545.919 330.034C543.646 331.313 541.515 332.592 539.242 333.871C538.106 334.581 536.969 335.15 535.833 335.718C535.691 335.718 535.549 335.86 535.265 336.145C535.549 336.287 535.691 336.287 535.833 336.429C537.68 337.566 539.669 338.561 541.515 339.698C542.936 340.55 544.357 341.403 545.777 342.114C546.203 342.398 546.487 342.398 546.914 342.256C549.755 341.403 552.596 340.693 555.437 339.982C555.579 339.982 555.579 339.982 555.721 339.982C556.006 341.119 556.29 342.256 556.716 343.393C554.869 343.961 552.88 344.388 551.033 344.956C550.891 345.24 551.033 345.382 551.318 345.525C553.022 346.377 554.585 347.372 556.29 348.367C555.721 349.362 555.153 350.499 554.443 351.494C552.596 350.499 550.891 349.362 549.045 348.367L548.903 348.509C549.329 350.357 549.897 352.204 550.465 354.194C549.329 354.478 548.192 354.762 547.056 355.189C546.772 354.194 546.487 353.341 546.345 352.488C545.777 350.357 545.209 348.225 544.641 346.093C544.499 345.809 544.214 345.525 543.93 345.382C540.947 343.677 537.964 341.829 534.98 340.124C534.696 339.982 534.412 339.84 534.128 339.698C533.986 339.556 533.702 339.556 533.418 339.556C533.418 340.124 533.418 340.55 533.418 340.977C533.418 344.388 533.418 347.941 533.418 351.351C533.418 351.92 533.56 352.346 533.986 352.773C535.975 354.62 537.822 356.61 539.811 358.6C539.953 358.742 540.237 359.026 540.379 359.168C540.095 359.736 538.816 361.015 537.822 361.726C536.543 360.447 535.407 359.31 534.128 358.031C533.986 357.889 533.844 357.605 533.418 357.889C533.418 359.879 533.418 361.868 533.418 364C532.139 364 531.003 364 529.866 364C529.866 362.01 529.866 359.879 529.866 357.605C529.44 357.889 529.298 358.031 529.156 358.173C528.02 359.31 526.883 360.447 525.889 361.584C525.747 361.726 525.604 361.726 525.604 361.868C524.752 361.016 523.9 360.163 523.047 359.31C523.758 358.6 524.61 357.747 525.32 356.894C526.741 355.473 528.162 354.052 529.582 352.63C529.724 352.346 529.866 352.062 529.866 351.778C529.866 347.941 529.866 344.245 529.866 340.408C529.866 340.124 529.866 339.982 529.724 339.698C529.014 340.124 528.304 340.55 527.593 340.977C525.036 342.398 522.479 343.961 519.922 345.382C519.212 345.809 518.643 346.235 518.501 347.23C517.933 349.646 517.223 352.204 516.513 354.62C516.37 354.904 516.228 355.189 516.086 355.615C514.95 355.331 513.813 355.047 512.677 354.762C513.103 352.773 513.813 350.925 514.097 349.078L513.955 348.935C512.251 349.93 510.404 350.925 508.557 352.062C507.989 351.067 507.421 350.072 506.71 349.078C506.852 348.935 506.994 348.793 507.136 348.651C508.557 347.798 510.12 346.946 511.54 346.093C511.825 345.951 511.967 345.809 511.825 345.525C509.978 344.956 508.131 344.53 506.284 343.961C506.568 342.824 506.852 341.687 507.136 340.55C507.705 340.693 508.415 340.835 508.983 340.977C511.256 341.545 513.387 342.114 515.518 342.682C515.66 342.682 515.802 342.682 515.944 342.824C516.37 342.966 516.655 342.966 517.081 342.682C520.348 340.835 523.616 338.987 526.741 336.997C527.025 336.855 527.167 336.713 527.451 336.429C526.315 335.718 525.32 335.15 524.326 334.581C521.911 333.16 519.496 331.739 516.939 330.318C516.513 330.034 516.228 330.034 515.66 330.176C512.819 331.028 509.978 331.739 507.136 332.45C506.994 332.45 506.994 332.45 506.852 332.45C506.568 331.313 506.284 330.176 506 329.039C507.989 328.47 509.836 328.044 511.682 327.475C511.825 327.049 511.398 327.049 511.256 326.907C509.694 326.054 508.131 325.059 506.426 324.207C506.994 323.07 507.563 322.075 508.273 321.08C510.12 322.075 511.825 323.212 513.813 324.207C513.813 323.922 513.813 323.638 513.813 323.496C513.387 322.075 512.961 320.512 512.535 319.09C512.535 318.806 512.535 318.664 512.393 318.38C513.529 318.096 514.666 317.811 515.802 317.385C516.086 318.522 516.37 319.659 516.797 320.796C517.365 322.643 517.791 324.491 518.217 326.481C518.359 327.049 518.786 327.191 519.212 327.475C521.343 328.755 523.616 330.034 525.747 331.171C526.741 331.739 527.593 332.308 528.588 332.876C528.73 333.018 529.014 333.018 529.298 333.16C529.298 332.876 529.44 332.734 529.44 332.592C529.44 329.891 529.44 327.191 529.44 324.491C529.44 323.354 529.44 322.075 529.44 320.938C529.44 320.654 529.298 320.37 529.156 320.227C527.593 318.664 526.031 317.101 524.61 315.68C523.9 314.969 523.189 314.258 522.621 313.548C523.474 312.695 524.326 311.842 525.178 310.99C526.599 312.411 528.02 313.832 529.44 315.253C529.866 314.969 529.724 314.685 529.724 314.401C529.724 312.695 529.724 310.848 529.724 309C530.861 309 531.997 309 533.276 309C533.276 310.99 533.276 312.979 533.276 314.969C533.56 315.253 533.844 315.111 533.986 314.827C534.981 313.69 536.117 312.695 537.253 311.558C537.396 311.416 537.538 311.274 537.68 311.132C538.532 311.984 539.384 312.837 540.237 313.69C540.095 313.832 539.953 313.974 539.811 314.116C537.822 316.106 535.691 318.238 533.702 320.227C533.418 320.512 533.276 320.654 533.276 321.08C533.276 324.917 533.276 328.897 533.276 332.734C533.276 332.876 533.276 333.018 533.418 333.16C533.702 333.018 533.986 333.018 534.128 332.876C537.396 331.028 540.521 329.039 543.788 327.191C544.214 326.907 544.499 326.623 544.641 326.054C545.351 323.354 546.061 320.654 546.772 317.954C547.198 317.527 547.198 317.385 547.198 317.243Z" fill="white"/>
<path d="M198.198 8.24292C198.34 8.24292 198.482 8.24292 198.624 8.24292C199.618 8.52716 200.613 8.8114 201.749 9.09564C201.181 11.0853 200.755 12.9328 200.329 14.7804L200.471 14.9225C202.175 13.9276 204.022 12.9328 205.869 11.7959C206.437 12.7907 207.006 13.7855 207.716 14.9225C206.011 15.9173 204.448 16.77 202.744 17.7649C202.46 17.907 202.318 18.0491 202.318 18.3334C204.164 18.9018 206.011 19.3282 208 19.8966C207.716 21.1757 207.432 22.1706 207.006 23.3075C205.869 23.0233 204.875 22.739 203.738 22.4548C201.749 21.8863 199.903 21.46 197.914 20.8915C197.487 20.7494 197.203 20.8915 196.919 21.0336C194.646 22.3127 192.515 23.5917 190.242 24.8708C189.106 25.5814 187.969 26.1499 186.833 26.7184C186.691 26.7184 186.549 26.8605 186.265 27.1447C186.549 27.2868 186.691 27.2868 186.833 27.429C188.68 28.5659 190.669 29.5607 192.515 30.6977C193.936 31.5504 195.357 32.4031 196.777 33.1137C197.203 33.3979 197.487 33.398 197.914 33.2558C200.755 32.4031 203.596 31.6925 206.437 30.9819C206.579 30.9819 206.579 30.9819 206.721 30.9819C207.006 32.1189 207.29 33.2558 207.716 34.3928C205.869 34.9612 203.88 35.3876 202.033 35.9561C201.891 36.2403 202.033 36.3824 202.318 36.5246C204.022 37.3773 205.585 38.3721 207.29 39.3669C206.721 40.3618 206.153 41.4987 205.443 42.4936C203.596 41.4987 201.891 40.3618 200.045 39.3669L199.903 39.5091C200.329 41.3566 200.897 43.2041 201.465 45.1938C200.329 45.4781 199.192 45.7623 198.056 46.1886C197.772 45.1938 197.487 44.3411 197.345 43.4884C196.777 41.3566 196.209 39.2248 195.641 37.093C195.499 36.8088 195.214 36.5245 194.93 36.3824C191.947 34.677 188.964 32.8295 185.98 31.1241C185.696 30.9819 185.412 30.8398 185.128 30.6977C184.986 30.5556 184.702 30.5555 184.418 30.5555C184.418 31.124 184.418 31.5504 184.418 31.9767C184.418 35.3876 184.418 38.9406 184.418 42.3514C184.418 42.9199 184.56 43.3463 184.986 43.7726C186.975 45.6202 188.822 47.6098 190.811 49.5995C190.953 49.7416 191.237 50.0259 191.379 50.168C191.095 50.7364 189.816 52.0155 188.822 52.7261C187.543 51.447 186.407 50.3101 185.128 49.031C184.986 48.8889 184.844 48.6047 184.418 48.8889C184.418 50.8786 184.418 52.8682 184.418 55C183.139 55 182.003 55 180.866 55C180.866 53.0103 180.866 50.8786 180.866 48.6047C180.44 48.8889 180.298 49.031 180.156 49.1731C179.02 50.3101 177.883 51.447 176.889 52.584C176.747 52.7261 176.604 52.7261 176.604 52.8682C175.752 52.0155 174.9 51.1628 174.047 50.3101C174.758 49.5995 175.61 48.7468 176.32 47.8941C177.741 46.4729 179.162 45.0517 180.582 43.6305C180.724 43.3463 180.866 43.062 180.866 42.7778C180.866 38.9406 180.866 35.2455 180.866 31.4083C180.866 31.124 180.866 30.9819 180.724 30.6977C180.014 31.124 179.304 31.5504 178.593 31.9767C176.036 33.3979 173.479 34.9612 170.922 36.3824C170.212 36.8088 169.643 37.2352 169.501 38.23C168.933 40.646 168.223 43.2041 167.513 45.6202C167.37 45.9044 167.228 46.1886 167.086 46.615C165.95 46.3308 164.813 46.0465 163.677 45.7623C164.103 43.7726 164.813 41.9251 165.097 40.0775L164.955 39.9354C163.251 40.9302 161.404 41.9251 159.557 43.062C158.989 42.0672 158.421 41.0724 157.71 40.0775C157.852 39.9354 157.994 39.7933 158.136 39.6512C159.557 38.7985 161.12 37.9457 162.54 37.093C162.825 36.9509 162.967 36.8088 162.825 36.5246C160.978 35.9561 159.131 35.5297 157.284 34.9612C157.568 33.8243 157.852 32.6873 158.136 31.5504C158.705 31.6925 159.415 31.8346 159.983 31.9767C162.256 32.5452 164.387 33.1137 166.518 33.6822C166.66 33.6822 166.802 33.6822 166.944 33.8243C167.37 33.9664 167.655 33.9664 168.081 33.6822C171.348 31.8346 174.616 29.9871 177.741 27.9974C178.025 27.8553 178.167 27.7132 178.451 27.429C177.315 26.7184 176.32 26.1499 175.326 25.5814C172.911 24.1602 170.496 22.739 167.939 21.3178C167.513 21.0336 167.228 21.0336 166.66 21.1757C163.819 22.0285 160.978 22.739 158.136 23.4496C157.994 23.4496 157.994 23.4496 157.852 23.4496C157.568 22.3127 157.284 21.1757 157 20.0388C158.989 19.4703 160.836 19.0439 162.682 18.4754C162.825 18.0491 162.398 18.0491 162.256 17.907C160.694 17.0543 159.131 16.0594 157.426 15.2067C157.994 14.0698 158.563 13.0749 159.273 12.0801C161.12 13.0749 162.825 14.2119 164.813 15.2067C164.813 14.9225 164.813 14.6383 164.813 14.4961C164.387 13.0749 163.961 11.5116 163.535 10.0904C163.535 9.80621 163.535 9.66409 163.393 9.37985C164.529 9.09561 165.666 8.8114 166.802 8.38505C167.086 9.522 167.37 10.6589 167.797 11.7959C168.365 13.6434 168.791 15.491 169.217 17.4806C169.359 18.0491 169.786 18.1912 170.212 18.4754C172.343 19.7545 174.616 21.0336 176.747 22.1705C177.741 22.739 178.593 23.3075 179.588 23.876C179.73 24.0181 180.014 24.0181 180.298 24.1602C180.298 23.876 180.44 23.7339 180.44 23.5917C180.44 20.8915 180.44 18.1912 180.44 15.491C180.44 14.354 180.44 13.075 180.44 11.938C180.44 11.6538 180.298 11.3695 180.156 11.2274C178.593 9.66411 177.031 8.10079 175.61 6.6796C174.9 5.96901 174.189 5.25841 173.621 4.54782C174.474 3.69511 175.326 2.84241 176.178 1.9897C177.599 3.41089 179.02 4.83207 180.44 6.25326C180.866 5.96903 180.724 5.68478 180.724 5.40054C180.724 3.69512 180.724 1.84754 180.724 0C181.861 0 182.997 0 184.276 0C184.276 1.98966 184.276 3.97934 184.276 5.96901C184.56 6.25325 184.844 6.11112 184.986 5.82688C185.981 4.68993 187.117 3.69512 188.253 2.55816C188.396 2.41605 188.538 2.2739 188.68 2.13178C189.532 2.9845 190.384 3.83723 191.237 4.68995C191.095 4.83207 190.953 4.97417 190.811 5.11629C188.822 7.10595 186.691 9.23776 184.702 11.2274C184.418 11.5117 184.276 11.6537 184.276 12.0801C184.276 15.9173 184.276 19.8967 184.276 23.7339C184.276 23.876 184.276 24.0181 184.418 24.1602C184.702 24.0181 184.986 24.0181 185.128 23.876C188.396 22.0284 191.521 20.0388 194.788 18.1912C195.214 17.907 195.499 17.6227 195.641 17.0543C196.351 14.354 197.061 11.6538 197.772 8.95351C198.198 8.52716 198.198 8.38504 198.198 8.24292Z" fill="white"/>
</svg>
