<svg width="1051" height="831" viewBox="0 0 1051 831" fill="none" xmlns="http://www.w3.org/2000/svg">
<path d="M185.097 661C174.301 661 174.301 677.887 185.097 677.887C196.171 677.887 196.171 661 185.097 661Z" fill="#F2DCDB"/>
<path d="M1042.1 695C1031.3 695 1031.3 711.887 1042.1 711.887C1053.17 711.887 1053.17 695 1042.1 695Z" fill="#F2DCDB"/>
<path d="M8.09746 814C-2.69915 814 -2.69915 830.887 8.09746 830.887C19.1709 830.887 19.1709 814 8.09746 814Z" fill="#D7E8E6"/>
<path d="M560.097 678C549.301 678 549.301 694.887 560.097 694.887C571.171 694.887 571.171 678 560.097 678Z" fill="#F9F0B9"/>
<path d="M193.097 0C182.301 0 182.301 16.887 193.097 16.887C204.171 16.887 204.171 0 193.097 0Z" fill="#F9F0B9"/>
<path d="M965.097 228C954.301 228 954.301 244.887 965.097 244.887C976.171 244.887 976.171 228 965.097 228Z" fill="#A3DCF5"/>
</svg>
